<svg width="15" height="15" viewBox="0 0 15 15" fill="none" xmlns="http://www.w3.org/2000/svg">
<path d="M13.2422 1.17188H12.5391V0H11.3672V1.17188H3.63281V0H2.46094V1.17188H1.75781C0.788555 1.17188 0 1.96043 0 2.92969V13.2422C0 14.2114 0.788555 15 1.75781 15H13.2422C14.2114 15 15 14.2114 15 13.2422V2.92969C15 1.96043 14.2114 1.17188 13.2422 1.17188ZM13.8281 13.2422C13.8281 13.5653 13.5653 13.8281 13.2422 13.8281H1.75781C1.43473 13.8281 1.17188 13.5653 1.17188 13.2422V5.50781H13.8281V13.2422ZM13.8281 4.33594H1.17188V2.92969C1.17188 2.6066 1.43473 2.34375 1.75781 2.34375H2.46094V3.51562H3.63281V2.34375H11.3672V3.51562H12.5391V2.34375H13.2422C13.5653 2.34375 13.8281 2.6066 13.8281 2.92969V4.33594Z" fill="black"/>
<path d="M3.39856 6.73816H2.22668V7.91003H3.39856V6.73816Z" fill="black"/>
<path d="M5.74231 6.73816H4.57043V7.91003H5.74231V6.73816Z" fill="black"/>
<path d="M8.08606 6.73816H6.91418V7.91003H8.08606V6.73816Z" fill="black"/>
<path d="M10.4298 6.73816H9.25793V7.91003H10.4298V6.73816Z" fill="black"/>
<path d="M12.7736 6.73816H11.6017V7.91003H12.7736V6.73816Z" fill="black"/>
<path d="M3.39856 9.08191H2.22668V10.2538H3.39856V9.08191Z" fill="black"/>
<path d="M5.74231 9.08191H4.57043V10.2538H5.74231V9.08191Z" fill="black"/>
<path d="M8.08606 9.08191H6.91418V10.2538H8.08606V9.08191Z" fill="black"/>
<path d="M10.4298 9.08191H9.25793V10.2538H10.4298V9.08191Z" fill="black"/>
<path d="M3.39856 11.4256H2.22668V12.5975H3.39856V11.4256Z" fill="black"/>
<path d="M5.74231 11.4256H4.57043V12.5975H5.74231V11.4256Z" fill="black"/>
<path d="M8.08606 11.4256H6.91418V12.5975H8.08606V11.4256Z" fill="black"/>
<path d="M10.4298 11.4256H9.25793V12.5975H10.4298V11.4256Z" fill="black"/>
<path d="M12.7736 9.08191H11.6017V10.2538H12.7736V9.08191Z" fill="black"/>
</svg>
