<svg width="181" height="167" viewBox="0 0 181 167" fill="none" xmlns="http://www.w3.org/2000/svg">
<g opacity="0.2" clip-path="url(#clip0)">
<path d="M163.13 108.697C162.596 108.426 162.095 108.205 161.652 107.825C160.77 107.092 160.119 106.289 159.632 105.249C158.792 103.475 158.888 101.578 159.366 99.7288C160.493 95.3849 165.4 93.9608 169.258 95.2469C173.31 96.6036 175.413 100.833 174.034 104.841C173.39 106.72 172.018 107.973 170.391 109.005C169.719 109.43 168.834 109.663 168.05 109.725C167.492 109.768 166.989 109.804 166.446 109.735C166.393 109.703 164.076 109.221 165.233 109.449C164.87 109.381 164.535 109.272 164.204 109.152C163.869 109.043 163.547 108.9 163.225 108.719C163.955 109.126 163.27 108.774 163.13 108.697Z" fill="url(#paint0_linear)"/>
<path d="M72.5541 6.79328C74.6513 7.31074 76.2429 9.25473 77.1545 11.0804C79.0618 14.8911 77.5517 19.508 73.6562 21.2741C71.8659 22.0791 70.0479 22.0367 68.1716 21.5867C67.3899 21.3927 66.5998 20.9381 65.9919 20.408C65.5604 20.0322 65.1476 19.676 64.8218 19.2227C64.6007 18.8718 64.3796 18.5209 64.1586 18.17C64.089 18.0417 64.0599 17.9796 64.0641 17.9682C63.9426 17.7695 63.8295 17.548 63.7391 17.3348C63.5896 17.0357 63.4597 16.718 63.361 16.3858C63.5648 17.104 63.3454 16.393 63.2987 16.273C63.1096 15.7276 62.9267 15.2361 62.8723 14.6752C62.7646 13.5153 62.8559 12.5179 63.2343 11.4059C63.8742 9.53864 65.3841 8.15509 67.0623 7.23205C68.7913 6.27594 70.7275 6.3484 72.5541 6.79328ZM71.1127 14.2049C71.2112 14.2536 71.2568 14.2701 71.1054 14.1893C71.1054 14.1893 71.1168 14.1935 71.1127 14.2049Z" fill="url(#paint1_linear)"/>
<path d="M93.417 135.108C92.8191 132.881 92.6118 130.539 92.6532 128.222C92.652 127.977 92.6964 127.748 92.7667 127.555C92.8732 123.78 93.6047 120.027 94.7167 116.399C97.073 108.637 101.307 101.571 104.957 94.3692C109.073 86.242 113.185 78.088 116.85 69.7454C117.328 68.6437 118.3 68.3142 119.15 68.533C120.052 68.6804 120.868 69.4538 120.918 70.6312C121.437 82.9162 122.855 95.1416 124.104 107.37C124.936 115.492 125.14 123.669 122.866 131.345C122.872 131.579 122.842 131.838 122.743 132.111C122.457 132.897 122.141 133.696 121.782 134.506C121.161 136.071 120.423 137.606 119.539 139.114C117.296 142.975 114.122 146.949 109.732 148.406C106.02 149.634 101.619 148.704 98.7053 146.099C95.5811 143.328 94.1627 139.167 93.417 135.108ZM107.031 143.122C113.215 143.476 117.199 135.571 118.956 130.735C118.994 130.633 119.042 130.535 119.087 130.448C121.686 122.053 120.665 112.677 119.724 104.077C118.781 95.516 117.916 86.9184 117.355 78.3024C113.235 87.0462 108.773 95.6274 104.35 104.21C101.794 109.181 99.4276 114.272 97.9544 119.675C96.6981 124.269 96.5374 128.938 97.2836 133.563C98.5047 138.374 101.693 142.818 107.031 143.122Z" fill="url(#paint2_linear)"/>
<path d="M106.471 56.9553C107.454 56.9134 108.014 57.5035 108.179 58.2589C108.473 59.1903 108.122 60.441 107.214 60.9485C96.9625 66.5621 87.0471 72.8133 77.1774 79.0811C69.3411 84.0525 61.1253 88.8602 51.7319 89.9808C51.7164 89.988 51.6936 89.9797 51.678 89.9869C51.4916 90.0737 51.275 90.1367 51.0366 90.1532C49.0893 90.3601 47.1699 90.3838 45.2916 90.1521C42.5065 89.9643 39.7418 89.4361 37.18 88.4921C32.9872 86.9554 30.4887 83.8831 29.3325 79.6755C27.8684 74.3254 31.7279 69.3901 35.5123 66.1537C37.9968 64.0422 40.7595 62.3024 43.7153 60.9548C43.9681 60.8277 44.2322 60.7047 44.4809 60.589C44.5897 60.5383 44.7057 60.5032 44.8218 60.4681C45.9314 60.0083 47.0628 59.5951 48.2078 59.2511C56.4132 56.7456 65.104 56.9542 73.5957 57.142C84.5502 57.3747 95.5314 57.4625 106.471 56.9553ZM45.2608 64.6598C40.6144 66.9646 35.3007 70.7144 34.8578 76.1958C34.6138 79.2118 36.8539 81.8938 39.0879 83.6333C40.6903 84.8727 42.5244 85.6166 44.437 86.0026C53.3098 86.8828 61.5374 83.6767 69.2052 79.2753C74.36 76.318 79.3061 72.9756 84.3653 69.8548C89.1086 66.9282 93.8478 64.0131 98.6533 61.1993C89.426 61.4012 80.1922 61.2657 70.9636 61.0806C62.2448 60.9133 53.2952 61.0615 45.2608 64.6598Z" fill="url(#paint3_linear)"/>
<path d="M131.513 126.809C128.465 118.926 128.106 110.357 127.718 102.01C127.213 91.1088 126.552 80.1761 125.304 69.3269C125.189 68.2932 125.999 67.2735 126.943 66.9853C127.657 66.6908 128.456 66.8009 128.995 67.6279C135.3 77.4556 142.202 86.9204 149.132 96.3056C154.651 103.786 160.025 111.627 161.932 120.874C163.653 129.177 162.946 141.673 153.106 144.306C142.907 147.04 134.651 134.906 131.513 126.809ZM140.54 134.406C143.461 137.593 148.925 140.713 152.919 137.681C157.394 134.284 157.387 128.832 158.308 123.846C157.385 117.044 154.228 110.705 150.342 104.913C147.025 99.9714 143.349 95.273 139.891 90.435C136.578 85.804 133.264 81.1731 130.057 76.4646C130.869 85.4553 131.35 94.4676 131.782 103.475C132.225 112.808 132.975 122.394 137.818 130.634C138.464 131.732 139.228 132.899 140.108 134.03C140.251 134.133 140.402 134.253 140.54 134.406Z" fill="url(#paint4_linear)"/>
<path d="M65.0552 24.2285C72.0674 27.2795 78.4278 31.6266 85.0002 35.4968C92.5287 39.9335 100.052 44.4198 107.806 48.449C108.847 48.9948 109.218 50.07 108.972 50.9597C108.816 51.8174 108.118 52.5299 106.913 52.5044C94.5336 52.1789 82.1621 52.7194 69.7935 53.145C58.9153 53.5198 47.8982 52.7491 38.6726 46.5877C38.5512 46.5307 38.4268 46.4469 38.3023 46.363C38.2422 46.3153 38.1934 46.2719 38.1333 46.2242C37.8844 46.0565 37.6396 45.8774 37.3949 45.6982C33.7276 42.9998 30.2846 39.507 29.5238 34.8505C28.8757 30.8791 30.7811 26.7021 33.8655 24.2548C37.8551 21.093 43.6659 20.4867 48.5724 20.415C48.8563 20.4151 49.1403 20.4153 49.4243 20.4154C49.528 20.4145 49.6202 20.4093 49.7197 20.4197C55.0275 20.5582 60.2401 22.1307 65.0552 24.2285ZM49.3274 24.5541C46.9897 25.1601 44.5419 25.4299 42.304 26.3298C40.0194 27.2515 37.9562 28.8075 36.4696 30.7664C33.3018 34.9354 37.2058 40.4637 40.6408 43.0906C40.6895 43.134 40.7383 43.1775 40.787 43.221C41.4622 43.6725 42.1155 44.0774 42.7087 44.4347C52.6701 50.4899 65.2298 49.3608 76.3442 48.9044C83.9971 48.5941 91.6666 48.38 99.3415 48.3998C90.8488 43.7029 82.5528 38.6781 74.2486 33.676C66.4244 28.9515 58.2215 24.9139 49.3274 24.5541Z" fill="url(#paint5_linear)"/>
<path d="M127.782 61.3385C127.691 61.5889 127.543 61.8185 127.333 62.0388C126.935 62.4607 126.523 62.8133 126.089 63.1193C122.806 65.9711 118.118 66.9339 114.209 63.3362C110.161 59.6619 109.94 54.1584 113.676 50.1315C117.163 46.362 122.931 45.0574 127.147 48.4834C131.514 52.0285 130.756 57.5243 127.782 61.3385ZM125.006 51.995C122.893 49.2819 119.276 50.2473 117.007 52.4758C113.918 56.7121 120.94 62.8971 124.703 59.0088C126.253 56.9828 126.617 54.0621 125.006 51.995Z" fill="url(#paint6_linear)"/>
<path d="M162.318 87.7003C154.091 86.7459 146.752 81.2571 141.322 75.3803C138.097 71.8896 135.242 68.0949 131.77 64.8234C129.897 63.0479 132.992 60.5012 134.857 62.2612C138.98 66.1559 142.298 70.7755 146.288 74.7891C149.208 77.7312 152.775 80.174 156.556 81.8833C156.643 81.9278 156.734 81.961 156.821 82.0055C156.86 82.0066 156.898 82.0076 156.944 82.0242C161.166 82.7343 165.236 81.766 168.72 79.2837C172.698 76.4395 174.899 71.0946 175.071 66.2876C175.068 66.2607 175.072 66.2493 175.08 66.2265C174.547 61.5112 172.586 56.9597 169.072 53.982C167.559 52.7106 165.387 51.6892 163.165 51.2296C162.232 51.0967 161.264 50.9896 160.328 50.9715C157.409 51.0826 154.866 52.4646 154.181 55.9128C153.579 58.9916 154.303 62.2564 155.634 65.059C156.704 67.3028 158.603 69.8222 161.21 69.894C163.408 69.9584 164.445 68.171 164.741 66.2177C164.589 65.75 164.366 65.2956 164.102 64.8516C163.184 65.4585 162.029 65.6182 160.949 65.213C159.801 64.783 159.039 63.8617 158.564 62.7875C158.215 62.3641 158.046 61.7618 158.104 61.1773C158.007 60.7685 158.016 60.2822 158.224 59.675C159.199 56.706 163.287 55.9757 165.605 57.5528C168.143 59.2739 168.903 62.938 168.852 65.7792C168.847 65.9706 168.837 66.1734 168.817 66.3721C168.856 66.6183 168.896 66.8646 168.909 67.114C169.119 70.2305 167.141 73.08 164.536 74.6326C158.903 77.9829 152.97 75.0535 150.324 69.5445C148.01 64.7227 147.933 58.4339 149.835 53.483C151.104 50.1697 153.415 48.3944 156.184 47.5972C161.763 45.2836 169.332 48.4725 173.197 52.4023C176.741 56.009 178.557 60.9589 179.022 66.0363C179.06 66.2174 179.093 66.4098 179.08 66.624C179.083 66.6509 179.075 66.6737 179.082 66.6892C179.303 69.8482 179.008 73.0389 178.302 75.977C176.413 83.6253 170.322 88.6256 162.318 87.7003Z" fill="url(#paint7_linear)"/>
<path d="M132.79 54.4504C135.092 52.8396 137.823 51.0108 140.747 51.03C143.582 51.0429 146.099 52.9626 146.018 55.9217C145.948 58.318 143.434 59.9421 141.308 60.213C138.671 60.5426 136.095 59.2458 133.733 58.2843C133.194 58.0626 132.835 57.7003 132.654 57.2739C131.868 56.5244 131.644 55.2578 132.79 54.4504Z" fill="url(#paint8_linear)"/>
<path d="M117.16 43.14C116.021 40.9097 114.544 38.5436 114.569 35.9507C114.592 33.4727 116.205 30.8124 118.914 30.6763C121.573 30.535 123.41 32.7999 123.76 35.246C124.196 38.2385 122.493 41.2909 121.05 43.7682C120.355 44.9711 119.095 44.8483 118.269 44.136C117.832 43.9899 117.43 43.6761 117.16 43.14Z" fill="url(#paint9_linear)"/>
<path d="M83.5515 125.983C84.0227 125.575 84.5211 125.447 84.9917 125.502C86.0031 125.277 87.1467 125.718 87.3385 127.038C87.7265 129.806 88.0381 132.857 86.8454 135.464C85.7499 137.874 83.2916 139.132 80.7236 138.417C78.0645 137.67 77.6593 134.238 78.273 132.052C78.9693 129.496 81.6469 127.635 83.5515 125.983Z" fill="url(#paint10_linear)"/>
<path d="M54.0314 99.0354C52.6101 100.992 51.2688 103.12 49.1587 104.414C47.1812 105.628 44.1186 105.777 42.4886 103.832C40.6543 101.632 41.5429 98.6187 43.662 96.9799C46.0908 95.093 49.7112 95.185 52.6197 95.3532C53.9723 95.4326 54.534 96.5514 54.3877 97.5932C54.4835 98.0403 54.3896 98.5472 54.0314 99.0354Z" fill="url(#paint11_linear)"/>
<path d="M123.928 140.928C123.587 138.421 124.627 135.914 125.36 133.578C125.552 132.978 125.923 132.597 126.361 132.422C127.131 131.761 128.336 131.606 129.173 132.606C130.996 134.802 132.921 137.357 133.143 140.297C133.334 142.827 131.463 146.128 128.522 145.767C125.947 145.462 124.262 143.42 123.928 140.928Z" fill="url(#paint12_linear)"/>
<path d="M30.3118 55.1688C30.1883 52.5603 33.4101 50.8714 35.6303 50.944C38.5251 51.0429 41.1197 52.6429 43.4459 54.2355C44.5203 54.9738 44.4696 56.1792 43.8609 57.0014C43.7224 57.4535 43.3817 57.8579 42.7881 58.1058C40.2818 59.1402 37.7902 60.3473 34.9979 60.144C32.2977 59.9356 30.4323 57.7503 30.3118 55.1688Z" fill="url(#paint13_linear)"/>
<path d="M130.574 47.1909C132.364 44.7501 133.993 42.2243 136.61 40.5993C138.756 39.2792 142.151 39.8822 142.62 42.6419C143.017 44.9246 141.106 46.9867 139.39 48.1539C137.479 49.4689 134.944 50.7247 132.557 50.295C131.043 50.5177 129.411 48.7909 130.574 47.1909ZM138.967 43.955C139.128 43.9747 139.242 43.8744 138.967 43.955V43.955Z" fill="url(#paint14_linear)"/>
<path d="M131.2 32.9646C134.427 32.1149 135.311 36.0047 134.722 38.2641C133.962 41.2083 130.634 43.4383 128.478 45.3212C127.016 46.6065 125.2 45.1735 125.221 43.6609C124.052 39.6291 127.316 33.9878 131.2 32.9646Z" fill="url(#paint15_linear)"/>
<path d="M66.7925 107.654C68.3934 107.192 71.3993 107.448 72.5416 108.816C74.956 111.729 73.7711 116.09 71.7317 118.789C69.3144 121.994 65.3194 122.577 62.1053 120.16C62.0037 120.084 61.929 120.005 61.8543 119.927C61.817 119.887 61.7682 119.844 61.7309 119.804C58.9038 116.677 59.4872 113.012 62.2644 110.131C63.479 108.884 65.1605 108.13 66.7925 107.654ZM65.2362 112.86C63.6805 114.085 63.4611 115.577 64.647 117.038C66.2835 118.148 67.5745 117.651 68.7516 116.082C69.793 114.709 70.0508 113.218 69.5105 111.721C67.9482 111.295 66.6158 111.764 65.2362 112.86Z" fill="url(#paint16_linear)"/>
<path d="M100.747 130.571C101.629 127.079 105.13 123.804 108.907 124.107C110.611 124.25 112.154 126.434 112.796 127.827C113.548 129.452 113.6 131.442 113.332 133.174C112.711 137.084 109.645 139.731 105.662 139.108C105.417 139.109 105.161 139.067 104.88 138.952C101.172 137.502 99.7928 134.334 100.747 130.571ZM109.334 132.842C109.839 131.132 109.359 129.398 108.146 128.223C106.606 128.553 105.588 129.471 104.849 131.044C104.027 132.807 104.297 134.373 106.142 135.16C107.902 135.361 108.8 134.631 109.334 132.842Z" fill="url(#paint17_linear)"/>
<path d="M52.6356 78.4705C51.7675 80.1131 49.9859 81.3206 48.376 82.1267C44.7479 83.9385 40.9874 82.4558 39.211 78.9246C39.076 78.6565 39.0094 78.4133 38.9926 78.1753C38.0804 74.4686 40.1163 71.3182 43.719 70.1799C46.8886 69.1677 51.8847 69.6309 53.5129 73.1083C54.2761 74.7383 53.3982 77.0472 52.6356 78.4705ZM45.4303 73.855C43.3941 74.2357 42.5204 75.5027 42.9128 77.3715C43.9011 79.1993 45.407 79.1411 47.1568 78.2699C48.6735 77.5071 49.4694 76.2763 49.6515 74.7451C48.4628 73.6818 47.0925 73.5445 45.4303 73.855Z" fill="url(#paint18_linear)"/>
<path d="M142.558 129.6C141.9 126.153 143.347 122.17 146.519 120.476C150.318 118.443 154.239 123.321 155.071 126.573C156.041 130.404 154.498 133.656 150.96 134.972C150.717 135.142 150.407 135.248 150.012 135.272C149.629 135.365 149.295 135.359 149.006 135.267C145.629 135.109 143.232 133.143 142.558 129.6ZM149.294 131.314C154.026 130.123 149.561 123.012 147.691 124.535C145.55 126.269 145.919 131.504 149.294 131.314Z" fill="url(#paint19_linear)"/>
<path d="M54.3299 34.3076C54.7832 35.9023 52.7185 38.1019 51.5947 38.9559C50.1032 40.0756 48.1168 40.6033 46.2657 40.6519C42.2869 40.7645 39.5414 38.4785 39.0209 34.7596C38.9056 34.4729 38.868 34.1501 38.932 33.7611C38.9192 33.37 38.9966 33.0503 39.1415 32.7938C40.0258 29.5081 42.5676 27.7009 46.1528 27.8188C50.1256 27.9359 53.2684 30.5853 54.3299 34.3076ZM42.934 34.082C43.0864 38.8136 50.7421 35.9021 50.1531 34.3612C49.0706 31.5846 43.5215 30.4051 42.934 34.082Z" fill="url(#paint20_linear)"/>
<path d="M87.3243 22.9568C85.226 18.819 84.2331 14.0911 85.5526 9.57237C86.9011 4.974 91.2702 1.97586 95.5442 0.41173C103.123 -2.36011 112.391 -1.74868 119.063 2.98242C123.242 5.94388 126.498 11.7264 126.23 17.1169C126.273 18.8458 126.021 20.5705 125.241 22.2193C123.962 24.885 121.394 26.5152 118.69 27.4905C113.623 29.3201 107.252 29.2979 102.439 26.6982C97.2243 23.8883 95.768 17.9485 98.736 12.9082C100.105 10.5975 102.842 8.82246 105.572 8.91295C105.879 8.9214 106.166 8.94846 106.46 8.99104C107.71 8.74962 108.985 8.72342 110.188 8.92895C112.851 9.38153 115.379 10.7383 116.176 13.4496C116.828 15.6704 114.788 19.3993 112.259 19.1113C111.675 19.2599 111.048 19.1737 110.572 18.8848C109.457 18.5437 108.494 17.7817 107.918 16.7736C107.346 15.7541 107.403 14.6026 107.897 13.6354C107.271 13.3692 106.65 13.195 106.045 13.1171C105.708 13.2266 105.39 13.3557 105.095 13.4932C103.097 14.4802 102.817 16.8132 103.668 18.4495C104.586 20.1872 106.798 21.3131 108.603 21.9949C112.46 23.4611 118.652 23.9726 121.29 20.0878C122.101 18.888 122.29 17.3723 122.157 15.8554C122.01 14.8745 121.771 13.8987 121.552 13.0077C121.411 12.5441 121.246 12.1105 121.084 11.7037C119.566 7.95739 116.282 5.44961 112.58 4.05283C110.445 3.25081 107.728 2.8044 104.899 2.80698C101.176 3.4247 96.9757 5.38929 94.5301 8.21052C91.2376 12.0122 90.2048 17.305 91.4414 22.1086C91.4653 22.2203 91.482 22.3166 91.4945 22.4242C93.0132 25.1017 95.0095 27.5664 96.9993 29.6937C101.693 34.6845 107.999 37.8654 113.112 42.3773C115.029 44.0659 112.732 47.3663 110.789 45.6425C106.4 41.7673 101.32 38.8002 96.8672 35.0305C92.9289 31.6925 89.6521 27.5645 87.3243 22.9568Z" fill="url(#paint21_linear)"/>
<path d="M55.9179 105.106C57.586 102.079 59.73 99.3417 62.1365 96.8412C67.8172 90.9447 75.1921 86.8876 82.1772 82.7663C91.0373 77.5357 99.8444 72.1313 108.332 66.3274C109.313 65.6533 110.363 65.8546 110.983 66.4923C111.663 67.0742 111.969 68.1132 111.386 69.1506C105.527 79.5168 100.367 90.2663 95.1821 100.981C90.8773 109.876 85.931 118.797 77.5729 124.493C77.518 124.538 77.4517 124.578 77.3896 124.607C75.9572 125.812 74.3992 126.689 72.7373 127.283C69.6323 128.757 66.2761 129.714 62.8858 129.628C58.6363 129.527 54.7045 126.526 53.0159 122.717C51.2836 118.816 52.2446 114.36 53.5865 110.455C53.9849 108.577 54.7689 106.775 55.9179 105.106ZM60.2332 122.184C62.1261 123.761 65.132 124.016 67.4932 124.127C68.597 124.181 69.6406 124.045 70.6416 123.777C79.913 119.547 85.5615 111.216 90.0539 102.337C94.8577 92.8499 99.3432 83.2082 104.298 73.8017C96.5721 78.8259 88.6495 83.5728 80.7207 88.2658C72.6748 93.0322 64.361 98.3582 59.6422 106.653C59.5801 106.823 59.4912 106.997 59.368 107.158C59.3442 107.188 59.3359 107.211 59.3121 107.241C59.1186 107.596 58.9365 107.955 58.7544 108.314C58.3406 109.168 57.9247 110.099 57.539 111.054C57.2209 112.355 57.1547 113.71 57.3395 115.155C57.6545 117.486 58.3216 120.588 60.2332 122.184Z" fill="url(#paint22_linear)"/>
</g>
<defs>
<linearGradient id="paint0_linear" x1="163.44" y1="95.2971" x2="169.934" y2="109.248" gradientUnits="userSpaceOnUse">
<stop stop-color="#BC945C"/>
<stop offset="0.2784" stop-color="#966F40"/>
<stop offset="0.4243" stop-color="#C79B61"/>
<stop offset="0.5578" stop-color="#EEBD7B"/>
<stop offset="0.6275" stop-color="#FDCA85"/>
<stop offset="0.7092" stop-color="#ECBB79"/>
<stop offset="0.8713" stop-color="#BE935B"/>
<stop offset="1" stop-color="#966F40"/>
</linearGradient>
<linearGradient id="paint1_linear" x1="67.1519" y1="7.1623" x2="73.706" y2="21.2419" gradientUnits="userSpaceOnUse">
<stop stop-color="#BC945C"/>
<stop offset="0.2784" stop-color="#966F40"/>
<stop offset="0.4243" stop-color="#C79B61"/>
<stop offset="0.5578" stop-color="#EEBD7B"/>
<stop offset="0.6275" stop-color="#FDCA85"/>
<stop offset="0.7092" stop-color="#ECBB79"/>
<stop offset="0.8713" stop-color="#BE935B"/>
<stop offset="1" stop-color="#966F40"/>
</linearGradient>
<linearGradient id="paint2_linear" x1="95.5772" y1="79.0242" x2="124.672" y2="141.526" gradientUnits="userSpaceOnUse">
<stop stop-color="#BC945C"/>
<stop offset="0.2784" stop-color="#966F40"/>
<stop offset="0.4243" stop-color="#C79B61"/>
<stop offset="0.5578" stop-color="#EEBD7B"/>
<stop offset="0.6275" stop-color="#FDCA85"/>
<stop offset="0.7092" stop-color="#ECBB79"/>
<stop offset="0.8713" stop-color="#BE935B"/>
<stop offset="1" stop-color="#966F40"/>
</linearGradient>
<linearGradient id="paint3_linear" x1="61.1086" y1="52.8491" x2="74.4823" y2="81.5784" gradientUnits="userSpaceOnUse">
<stop stop-color="#BC945C"/>
<stop offset="0.2784" stop-color="#966F40"/>
<stop offset="0.4243" stop-color="#C79B61"/>
<stop offset="0.5578" stop-color="#EEBD7B"/>
<stop offset="0.6275" stop-color="#FDCA85"/>
<stop offset="0.7092" stop-color="#ECBB79"/>
<stop offset="0.8713" stop-color="#BE935B"/>
<stop offset="1" stop-color="#966F40"/>
</linearGradient>
<linearGradient id="paint4_linear" x1="121.76" y1="69.3661" x2="156.095" y2="143.125" gradientUnits="userSpaceOnUse">
<stop stop-color="#BC945C"/>
<stop offset="0.2784" stop-color="#966F40"/>
<stop offset="0.4243" stop-color="#C79B61"/>
<stop offset="0.5578" stop-color="#EEBD7B"/>
<stop offset="0.6275" stop-color="#FDCA85"/>
<stop offset="0.7092" stop-color="#ECBB79"/>
<stop offset="0.8713" stop-color="#BE935B"/>
<stop offset="1" stop-color="#966F40"/>
</linearGradient>
<linearGradient id="paint5_linear" x1="55.6273" y1="13.7424" x2="79.7034" y2="65.4627" gradientUnits="userSpaceOnUse">
<stop stop-color="#BC945C"/>
<stop offset="0.2784" stop-color="#966F40"/>
<stop offset="0.4243" stop-color="#C79B61"/>
<stop offset="0.5578" stop-color="#EEBD7B"/>
<stop offset="0.6275" stop-color="#FDCA85"/>
<stop offset="0.7092" stop-color="#ECBB79"/>
<stop offset="0.8713" stop-color="#BE935B"/>
<stop offset="1" stop-color="#966F40"/>
</linearGradient>
<linearGradient id="paint6_linear" x1="116.872" y1="47.6785" x2="124.609" y2="64.2982" gradientUnits="userSpaceOnUse">
<stop stop-color="#BC945C"/>
<stop offset="0.2784" stop-color="#966F40"/>
<stop offset="0.4243" stop-color="#C79B61"/>
<stop offset="0.5578" stop-color="#EEBD7B"/>
<stop offset="0.6275" stop-color="#FDCA85"/>
<stop offset="0.7092" stop-color="#ECBB79"/>
<stop offset="0.8713" stop-color="#BE935B"/>
<stop offset="1" stop-color="#966F40"/>
</linearGradient>
<linearGradient id="paint7_linear" x1="149.258" y1="50.6492" x2="166.708" y2="88.1351" gradientUnits="userSpaceOnUse">
<stop stop-color="#BC945C"/>
<stop offset="0.2784" stop-color="#966F40"/>
<stop offset="0.4243" stop-color="#C79B61"/>
<stop offset="0.5578" stop-color="#EEBD7B"/>
<stop offset="0.6275" stop-color="#FDCA85"/>
<stop offset="0.7092" stop-color="#ECBB79"/>
<stop offset="0.8713" stop-color="#BE935B"/>
<stop offset="1" stop-color="#966F40"/>
</linearGradient>
<linearGradient id="paint8_linear" x1="137.272" y1="51.7819" x2="141.339" y2="60.5195" gradientUnits="userSpaceOnUse">
<stop stop-color="#BC945C"/>
<stop offset="0.2784" stop-color="#966F40"/>
<stop offset="0.4243" stop-color="#C79B61"/>
<stop offset="0.5578" stop-color="#EEBD7B"/>
<stop offset="0.6275" stop-color="#FDCA85"/>
<stop offset="0.7092" stop-color="#ECBB79"/>
<stop offset="0.8713" stop-color="#BE935B"/>
<stop offset="1" stop-color="#966F40"/>
</linearGradient>
<linearGradient id="paint9_linear" x1="116.855" y1="31.3112" x2="122.521" y2="43.4845" gradientUnits="userSpaceOnUse">
<stop stop-color="#BC945C"/>
<stop offset="0.2784" stop-color="#966F40"/>
<stop offset="0.4243" stop-color="#C79B61"/>
<stop offset="0.5578" stop-color="#EEBD7B"/>
<stop offset="0.6275" stop-color="#FDCA85"/>
<stop offset="0.7092" stop-color="#ECBB79"/>
<stop offset="0.8713" stop-color="#BE935B"/>
<stop offset="1" stop-color="#966F40"/>
</linearGradient>
<linearGradient id="paint10_linear" x1="80.8217" y1="127.157" x2="85.6408" y2="137.509" gradientUnits="userSpaceOnUse">
<stop stop-color="#BC945C"/>
<stop offset="0.2784" stop-color="#966F40"/>
<stop offset="0.4243" stop-color="#C79B61"/>
<stop offset="0.5578" stop-color="#EEBD7B"/>
<stop offset="0.6275" stop-color="#FDCA85"/>
<stop offset="0.7092" stop-color="#ECBB79"/>
<stop offset="0.8713" stop-color="#BE935B"/>
<stop offset="1" stop-color="#966F40"/>
</linearGradient>
<linearGradient id="paint11_linear" x1="46.1868" y1="95.6304" x2="50.0937" y2="104.024" gradientUnits="userSpaceOnUse">
<stop stop-color="#BC945C"/>
<stop offset="0.2784" stop-color="#966F40"/>
<stop offset="0.4243" stop-color="#C79B61"/>
<stop offset="0.5578" stop-color="#EEBD7B"/>
<stop offset="0.6275" stop-color="#FDCA85"/>
<stop offset="0.7092" stop-color="#ECBB79"/>
<stop offset="0.8713" stop-color="#BE935B"/>
<stop offset="1" stop-color="#966F40"/>
</linearGradient>
<linearGradient id="paint12_linear" x1="125.072" y1="132.924" x2="130.822" y2="145.277" gradientUnits="userSpaceOnUse">
<stop stop-color="#BC945C"/>
<stop offset="0.2784" stop-color="#966F40"/>
<stop offset="0.4243" stop-color="#C79B61"/>
<stop offset="0.5578" stop-color="#EEBD7B"/>
<stop offset="0.6275" stop-color="#FDCA85"/>
<stop offset="0.7092" stop-color="#ECBB79"/>
<stop offset="0.8713" stop-color="#BE935B"/>
<stop offset="1" stop-color="#966F40"/>
</linearGradient>
<linearGradient id="paint13_linear" x1="34.9007" y1="50.6406" x2="39.1596" y2="59.7895" gradientUnits="userSpaceOnUse">
<stop stop-color="#BC945C"/>
<stop offset="0.2784" stop-color="#966F40"/>
<stop offset="0.4243" stop-color="#C79B61"/>
<stop offset="0.5578" stop-color="#EEBD7B"/>
<stop offset="0.6275" stop-color="#FDCA85"/>
<stop offset="0.7092" stop-color="#ECBB79"/>
<stop offset="0.8713" stop-color="#BE935B"/>
<stop offset="1" stop-color="#966F40"/>
</linearGradient>
<linearGradient id="paint14_linear" x1="134.532" y1="41.546" x2="138.035" y2="49.0707" gradientUnits="userSpaceOnUse">
<stop stop-color="#BC945C"/>
<stop offset="0.2784" stop-color="#966F40"/>
<stop offset="0.4243" stop-color="#C79B61"/>
<stop offset="0.5578" stop-color="#EEBD7B"/>
<stop offset="0.6275" stop-color="#FDCA85"/>
<stop offset="0.7092" stop-color="#ECBB79"/>
<stop offset="0.8713" stop-color="#BE935B"/>
<stop offset="1" stop-color="#966F40"/>
</linearGradient>
<linearGradient id="paint15_linear" x1="127.591" y1="34.55" x2="131.911" y2="43.8286" gradientUnits="userSpaceOnUse">
<stop stop-color="#BC945C"/>
<stop offset="0.2784" stop-color="#966F40"/>
<stop offset="0.4243" stop-color="#C79B61"/>
<stop offset="0.5578" stop-color="#EEBD7B"/>
<stop offset="0.6275" stop-color="#FDCA85"/>
<stop offset="0.7092" stop-color="#ECBB79"/>
<stop offset="0.8713" stop-color="#BE935B"/>
<stop offset="1" stop-color="#966F40"/>
</linearGradient>
<linearGradient id="paint16_linear" x1="64.3684" y1="108.591" x2="69.9581" y2="120.598" gradientUnits="userSpaceOnUse">
<stop stop-color="#BC945C"/>
<stop offset="0.2784" stop-color="#966F40"/>
<stop offset="0.4243" stop-color="#C79B61"/>
<stop offset="0.5578" stop-color="#EEBD7B"/>
<stop offset="0.6275" stop-color="#FDCA85"/>
<stop offset="0.7092" stop-color="#ECBB79"/>
<stop offset="0.8713" stop-color="#BE935B"/>
<stop offset="1" stop-color="#966F40"/>
</linearGradient>
<linearGradient id="paint17_linear" x1="104.005" y1="125.478" x2="110.015" y2="138.388" gradientUnits="userSpaceOnUse">
<stop stop-color="#BC945C"/>
<stop offset="0.2784" stop-color="#966F40"/>
<stop offset="0.4243" stop-color="#C79B61"/>
<stop offset="0.5578" stop-color="#EEBD7B"/>
<stop offset="0.6275" stop-color="#FDCA85"/>
<stop offset="0.7092" stop-color="#ECBB79"/>
<stop offset="0.8713" stop-color="#BE935B"/>
<stop offset="1" stop-color="#966F40"/>
</linearGradient>
<linearGradient id="paint18_linear" x1="43.6153" y1="70.1598" x2="49.0466" y2="81.8272" gradientUnits="userSpaceOnUse">
<stop stop-color="#BC945C"/>
<stop offset="0.2784" stop-color="#966F40"/>
<stop offset="0.4243" stop-color="#C79B61"/>
<stop offset="0.5578" stop-color="#EEBD7B"/>
<stop offset="0.6275" stop-color="#FDCA85"/>
<stop offset="0.7092" stop-color="#ECBB79"/>
<stop offset="0.8713" stop-color="#BE935B"/>
<stop offset="1" stop-color="#966F40"/>
</linearGradient>
<linearGradient id="paint19_linear" x1="145.413" y1="120.974" x2="151.764" y2="134.618" gradientUnits="userSpaceOnUse">
<stop stop-color="#BC945C"/>
<stop offset="0.2784" stop-color="#966F40"/>
<stop offset="0.4243" stop-color="#C79B61"/>
<stop offset="0.5578" stop-color="#EEBD7B"/>
<stop offset="0.6275" stop-color="#FDCA85"/>
<stop offset="0.7092" stop-color="#ECBB79"/>
<stop offset="0.8713" stop-color="#BE935B"/>
<stop offset="1" stop-color="#966F40"/>
</linearGradient>
<linearGradient id="paint20_linear" x1="43.5111" y1="28.0411" x2="49.1893" y2="40.239" gradientUnits="userSpaceOnUse">
<stop stop-color="#BC945C"/>
<stop offset="0.2784" stop-color="#966F40"/>
<stop offset="0.4243" stop-color="#C79B61"/>
<stop offset="0.5578" stop-color="#EEBD7B"/>
<stop offset="0.6275" stop-color="#FDCA85"/>
<stop offset="0.7092" stop-color="#ECBB79"/>
<stop offset="0.8713" stop-color="#BE935B"/>
<stop offset="1" stop-color="#966F40"/>
</linearGradient>
<linearGradient id="paint21_linear" x1="97.9355" y1="-0.789301" x2="118.444" y2="43.2659" gradientUnits="userSpaceOnUse">
<stop stop-color="#BC945C"/>
<stop offset="0.2784" stop-color="#966F40"/>
<stop offset="0.4243" stop-color="#C79B61"/>
<stop offset="0.5578" stop-color="#EEBD7B"/>
<stop offset="0.6275" stop-color="#FDCA85"/>
<stop offset="0.7092" stop-color="#ECBB79"/>
<stop offset="0.8713" stop-color="#BE935B"/>
<stop offset="1" stop-color="#966F40"/>
</linearGradient>
<linearGradient id="paint22_linear" x1="75.8977" y1="81.3737" x2="92.9247" y2="117.951" gradientUnits="userSpaceOnUse">
<stop stop-color="#BC945C"/>
<stop offset="0.2784" stop-color="#966F40"/>
<stop offset="0.4243" stop-color="#C79B61"/>
<stop offset="0.5578" stop-color="#EEBD7B"/>
<stop offset="0.6275" stop-color="#FDCA85"/>
<stop offset="0.7092" stop-color="#ECBB79"/>
<stop offset="0.8713" stop-color="#BE935B"/>
<stop offset="1" stop-color="#966F40"/>
</linearGradient>
<clipPath id="clip0">
<rect width="143" height="161" fill="white" transform="matrix(-0.341588 0.93985 0.93985 0.341588 49.2656 -23.1971)"/>
</clipPath>
</defs>
</svg>
