<svg width="40" height="40" viewBox="0 0 40 40" fill="none" xmlns="http://www.w3.org/2000/svg">
<path d="M38.1251 35.626H35.6251V34.0422C36.0676 34.2554 36.5563 34.376 37.0645 34.376H38.8207L37.032 17.6841C37.6895 17.2335 38.1251 16.4816 38.1251 15.626C38.1251 14.441 37.2957 13.4454 36.1863 13.1897C36.0126 12.4354 35.4926 11.8185 34.807 11.4954C32.7832 5.73223 27.3763 1.87598 21.2501 1.87598H19.6576C19.2245 1.13098 18.4226 0.625977 17.5001 0.625977C16.3145 0.625977 15.3195 1.45535 15.0638 2.56473C14.6895 2.65098 14.3507 2.82723 14.0613 3.0616C13.7676 2.82535 13.4307 2.64973 13.062 2.56473C12.8063 1.45535 11.8107 0.625977 10.6251 0.625977C9.64945 0.625977 8.80945 1.19223 8.3982 2.00973C7.1957 1.11598 5.74883 0.625977 4.2232 0.625977H2.50008V2.35348C2.50008 3.11098 2.6382 3.86973 2.8957 4.58348C2.1807 4.89223 1.50008 5.28223 0.875078 5.75098L0.423828 6.0891L1.2632 7.48785C2.03633 8.77598 3.19258 9.75285 4.56695 10.3066C4.44758 10.5991 4.37508 10.916 4.37508 11.251C4.37508 11.5016 4.41758 11.7497 4.4907 11.9872C4.16383 12.3135 3.9207 12.7241 3.81383 13.1891C2.70445 13.4454 1.87508 14.441 1.87508 15.626C1.87508 16.4816 2.3107 17.2335 2.9682 17.6841L1.17945 34.376H2.9357C3.44383 34.376 3.93258 34.2554 4.37508 34.0422V35.626H1.87508C1.1857 35.626 0.625078 36.1866 0.625078 36.876V38.126C0.625078 38.8154 1.1857 39.376 1.87508 39.376H10.6251C11.3145 39.376 11.8751 38.8154 11.8751 38.126V36.876C11.8751 36.1866 11.3145 35.626 10.6251 35.626H8.12508V30.0679C8.82758 29.6979 9.43945 29.1554 9.89508 28.4722L10.0388 28.2566L9.24195 24.2716C14.5295 22.5829 18.5288 18.3216 20.0001 13.1179C21.472 18.3216 25.4707 22.5829 30.7582 24.2716L29.9613 28.2566L30.1051 28.4722C30.5607 29.1554 31.1726 29.6979 31.8751 30.0679V35.626H29.3751C28.6857 35.626 28.1251 36.1866 28.1251 36.876V38.126C28.1251 38.8154 28.6857 39.376 29.3751 39.376H38.1251C38.8145 39.376 39.3751 38.8154 39.3751 38.126V36.876C39.3751 36.1866 38.8145 35.626 38.1251 35.626ZM23.1251 5.8016C23.9945 5.96035 24.8326 6.22848 25.6251 6.59098V8.69723C25.6251 11.9004 27.1382 14.9197 29.677 16.8097C30.0138 17.4329 30.6051 17.8997 31.3132 18.0629C31.3988 18.4329 31.572 18.7672 31.8013 19.0547L31.497 20.5772C26.4645 18.811 23.1251 14.1254 23.1251 8.6966V5.8016ZM32.3626 16.876H31.8751C31.1857 16.876 30.6251 16.3154 30.6251 15.626C30.6251 14.9366 31.1857 14.376 31.8751 14.376H32.3626C32.0626 14.7085 31.8751 15.1441 31.8751 15.626C31.8751 16.1079 32.0632 16.5435 32.3626 16.876ZM31.3138 13.1897C30.4188 13.396 29.7138 14.0885 29.472 14.9697C27.8332 13.3272 26.8751 11.0735 26.8751 8.6966V7.25785C28.962 8.56785 30.5882 10.5891 31.3676 13.0222C31.3501 13.0785 31.327 13.1316 31.3138 13.1897ZM32.5001 17.501V17.0135C32.8326 17.3135 33.2682 17.501 33.7501 17.501C34.232 17.501 34.6676 17.3129 35.0001 17.0135V17.501C35.0001 18.1904 34.4395 18.751 33.7501 18.751C33.0607 18.751 32.5001 18.1904 32.5001 17.501ZM33.1251 15.626C33.1251 15.281 33.4057 15.001 33.7501 15.001C34.0945 15.001 34.3751 15.281 34.3751 15.626C34.3751 15.971 34.0945 16.251 33.7501 16.251C33.4057 16.251 33.1251 15.971 33.1251 15.626ZM37.0645 33.126C36.3726 33.126 35.7307 32.7822 35.347 32.2066C35.1201 31.866 35.0001 31.471 35.0001 31.0616V19.6629C35.3676 19.4491 35.6738 19.1447 35.8926 18.7797L37.4295 33.126H37.0645ZM35.6251 14.376C36.3145 14.376 36.8751 14.9366 36.8751 15.626C36.8751 16.3154 36.3145 16.876 35.6251 16.876H35.1376C35.4376 16.5435 35.6251 16.1079 35.6251 15.626C35.6251 15.1441 35.437 14.7085 35.1376 14.376H35.6251ZM35.0001 14.2385C34.6676 13.9385 34.232 13.751 33.7501 13.751C33.2682 13.751 32.8326 13.9391 32.5001 14.2385V13.751C32.5001 13.0616 33.0607 12.501 33.7501 12.501C34.4395 12.501 35.0001 13.0616 35.0001 13.751V14.2385ZM33.3945 11.2816C32.9638 11.3435 32.5695 11.5135 32.2388 11.766C30.4995 7.53223 26.392 4.61348 21.7926 4.39848C21.6676 3.8991 21.4001 3.45598 21.0251 3.12598H21.2501C26.6188 3.12598 31.3851 6.36848 33.3945 11.2816ZM19.3751 6.25098H18.8876C19.187 5.91848 19.3751 5.48285 19.3751 5.00098C19.3751 4.5191 19.187 4.08348 18.8876 3.75098H19.3751C20.0645 3.75098 20.6251 4.3116 20.6251 5.00098C20.6251 5.69035 20.0645 6.25098 19.3751 6.25098ZM8.75008 3.75098H9.23758C8.9382 4.08348 8.75008 4.5191 8.75008 5.00098C8.75008 5.48285 8.9382 5.91848 9.23758 6.25098H8.75008C8.0607 6.25098 7.50008 5.69035 7.50008 5.00098C7.50008 4.3116 8.0607 3.75098 8.75008 3.75098ZM14.0376 6.92285C14.332 7.1666 14.6795 7.34848 15.0638 7.43723C15.3063 8.48973 16.2176 9.2816 17.3232 9.36035C17.4376 9.55285 17.5001 9.77348 17.5001 10.001C17.5001 10.6904 16.9395 11.251 16.2501 11.251H15.7626C16.0626 10.9185 16.2501 10.4829 16.2501 10.001C16.2501 8.96723 15.4088 8.12598 14.3751 8.12598C13.8932 8.12598 13.4576 8.3141 13.1251 8.61348V8.12598C13.1251 7.55973 13.5101 7.0716 14.0376 6.92285ZM13.1251 11.3885C13.4576 11.6885 13.8932 11.876 14.3751 11.876C14.857 11.876 15.2926 11.6879 15.6251 11.3885V11.876C15.6251 12.5654 15.0645 13.126 14.3751 13.126C13.6857 13.126 13.1251 12.5654 13.1251 11.876V11.3885ZM13.7501 10.001C13.7501 9.65598 14.0307 9.37598 14.3751 9.37598C14.7195 9.37598 15.0001 9.65598 15.0001 10.001C15.0001 10.346 14.7195 10.626 14.3751 10.626C14.0307 10.626 13.7501 10.346 13.7501 10.001ZM12.9876 11.251H12.5001C11.8107 11.251 11.2501 10.6904 11.2501 10.001C11.2501 9.3116 11.8107 8.75098 12.5001 8.75098H12.9876C12.6876 9.08348 12.5001 9.5191 12.5001 10.001C12.5001 10.4829 12.6882 10.9185 12.9876 11.251ZM8.68633 13.1897C8.6807 13.1647 8.66945 13.1422 8.6632 13.1172C8.69258 13.1185 8.72008 13.126 8.75008 13.126C9.23195 13.126 9.66758 12.9379 10.0001 12.6385V13.126C10.0001 13.3635 9.9282 13.5866 9.80758 13.7816C9.49508 13.4966 9.11258 13.2879 8.68633 13.1897ZM7.63758 14.376H8.12508C8.81445 14.376 9.37508 14.9366 9.37508 15.626C9.37508 16.3154 8.81445 16.876 8.12508 16.876H7.63758C7.93758 16.5435 8.12508 16.1079 8.12508 15.626C8.12508 15.1441 7.93695 14.7085 7.63758 14.376ZM8.12508 11.251C8.12508 10.906 8.4057 10.626 8.75008 10.626C9.09445 10.626 9.37508 10.906 9.37508 11.251C9.37508 11.596 9.09445 11.876 8.75008 11.876C8.4057 11.876 8.12508 11.596 8.12508 11.251ZM10.5895 11.6054C10.8088 11.866 11.082 12.0766 11.3895 12.231C11.1745 12.3985 10.9101 12.501 10.6251 12.501H10.1376C10.362 12.2522 10.5232 11.9472 10.5895 11.6054ZM10.0113 9.87285C9.67758 9.56723 9.23695 9.37598 8.75008 9.37598C8.2682 9.37598 7.83258 9.5641 7.50008 9.86348V9.37598C7.50008 8.77848 7.92195 8.2791 8.4832 8.15598C8.83445 8.74098 9.41695 9.16848 10.1045 9.31535C10.0532 9.4941 10.0213 9.68035 10.0113 9.87285ZM7.50008 13.751V14.2385C7.16758 13.9385 6.73195 13.751 6.25008 13.751C5.7682 13.751 5.33258 13.9391 5.00008 14.2385V13.751C5.00008 13.0616 5.5607 12.501 6.25008 12.501C6.93945 12.501 7.50008 13.0616 7.50008 13.751ZM6.87508 15.626C6.87508 15.971 6.59445 16.251 6.25008 16.251C5.9057 16.251 5.62508 15.971 5.62508 15.626C5.62508 15.281 5.9057 15.001 6.25008 15.001C6.59445 15.001 6.87508 15.281 6.87508 15.626ZM5.00008 17.501V17.0135C5.33258 17.3129 5.7682 17.501 6.25008 17.501C6.73195 17.501 7.16758 17.3129 7.50008 17.0135V17.501C7.50008 18.1904 6.93945 18.751 6.25008 18.751C5.5607 18.751 5.00008 18.1904 5.00008 17.501ZM8.1982 19.0541C8.42758 18.7666 8.60133 18.4322 8.68633 18.0622C9.7957 17.8066 10.6251 16.811 10.6251 15.626C10.6251 15.3722 10.5801 15.1297 10.5095 14.8985C10.8457 14.5654 11.082 14.1479 11.1876 13.6872C11.577 13.5972 11.9345 13.4129 12.2351 13.1597C12.6726 13.8866 13.4663 14.376 14.3751 14.376C14.882 14.376 15.3495 14.2172 15.7438 13.9572C14.3451 17.0335 11.7426 19.441 8.5032 20.5816L8.1982 19.0541ZM17.5001 8.12598C16.8107 8.12598 16.2501 7.56535 16.2501 6.87598V6.38848C16.5826 6.68848 17.0182 6.87598 17.5001 6.87598C17.982 6.87598 18.4176 6.68785 18.7501 6.38848V6.87598C18.7501 7.56535 18.1895 8.12598 17.5001 8.12598ZM16.8751 5.00098C16.8751 4.65598 17.1557 4.37598 17.5001 4.37598C17.8445 4.37598 18.1251 4.65598 18.1251 5.00098C18.1251 5.34598 17.8445 5.62598 17.5001 5.62598C17.1557 5.62598 16.8751 5.34598 16.8751 5.00098ZM17.5001 1.87598C18.1895 1.87598 18.7501 2.4366 18.7501 3.12598V3.61348C18.4176 3.3141 17.982 3.12598 17.5001 3.12598C17.0182 3.12598 16.5826 3.3141 16.2501 3.61348V3.12598C16.2501 2.4366 16.8107 1.87598 17.5001 1.87598ZM15.6251 3.75098H16.1126C15.8132 4.08348 15.6251 4.5191 15.6251 5.00098C15.6251 5.48285 15.8132 5.91848 16.1126 6.25098H15.6251C14.9357 6.25098 14.3751 5.69035 14.3751 5.00098C14.3751 4.3116 14.9357 3.75098 15.6251 3.75098ZM12.5001 3.75098C12.8045 3.75098 13.0926 3.86348 13.317 4.05785C13.197 4.34973 13.1251 4.66598 13.1251 5.00098C13.1251 5.3116 13.1851 5.60785 13.2888 5.88285C12.6176 6.21098 12.1113 6.82598 11.9395 7.5641C11.552 7.65285 11.2026 7.8366 10.907 8.08285C10.8138 8.10473 10.7207 8.12598 10.6251 8.12598C9.9357 8.12598 9.37508 7.56535 9.37508 6.87598V6.38848C9.70758 6.68848 10.1432 6.87598 10.6251 6.87598C11.6588 6.87598 12.5001 6.03473 12.5001 5.00098C12.5001 4.5191 12.312 4.08348 12.0126 3.75098H12.5001ZM10.0001 5.00098C10.0001 4.65598 10.2807 4.37598 10.6251 4.37598C10.9695 4.37598 11.2501 4.65598 11.2501 5.00098C11.2501 5.34598 10.9695 5.62598 10.6251 5.62598C10.2807 5.62598 10.0001 5.34598 10.0001 5.00098ZM10.6251 1.87598C11.3145 1.87598 11.8751 2.4366 11.8751 3.12598V3.61348C11.5426 3.3141 11.107 3.12598 10.6251 3.12598C10.1432 3.12598 9.70758 3.3141 9.37508 3.61348V3.12598C9.37508 2.4366 9.9357 1.87598 10.6251 1.87598ZM3.75008 2.35348V1.87598H4.2232C5.3932 1.87598 6.50945 2.22285 7.45695 2.86598C7.09445 3.0866 6.79133 3.39473 6.58008 3.76348C5.73008 3.78848 4.88758 3.92473 4.0732 4.16348C3.86258 3.5841 3.75008 2.96848 3.75008 2.35348ZM2.33508 6.84473L2.0857 6.42848C3.3282 5.61785 4.7732 5.1316 6.25195 5.0241C6.25758 5.6541 6.50133 6.22473 6.89258 6.66223L4.47758 6.25973L4.27195 7.49285L6.74633 7.90535C6.54508 8.1741 6.3907 8.4791 6.3132 8.81535C5.96195 8.8966 5.64445 9.05785 5.36633 9.26973C4.0982 8.84723 3.0282 7.99973 2.33508 6.84473ZM5.62508 11.251C5.62508 10.5616 6.1857 10.001 6.87508 10.001H7.36258C7.06258 10.3335 6.87508 10.7691 6.87508 11.251C6.87508 11.2822 6.88258 11.311 6.88445 11.3416C6.6807 11.2879 6.47008 11.251 6.25008 11.251C6.03695 11.251 5.83383 11.286 5.63633 11.3366C5.63383 11.3079 5.62508 11.2797 5.62508 11.251ZM4.37508 14.376H4.86258C4.5632 14.7085 4.37508 15.1441 4.37508 15.626C4.37508 16.1079 4.5632 16.5435 4.86258 16.876H4.37508C3.6857 16.876 3.12508 16.3154 3.12508 15.626C3.12508 14.9366 3.6857 14.376 4.37508 14.376ZM2.9357 33.126H2.5707L4.10758 18.7797C4.32633 19.1447 4.63258 19.4491 5.00008 19.6629V31.0616C5.00008 31.4704 4.88008 31.866 4.6532 32.2066C4.27008 32.7822 3.62758 33.126 2.9357 33.126ZM10.6257 38.126H1.87508V36.876H10.6251L10.6257 38.126ZM6.87508 35.626H5.62508V32.9904C5.64695 32.9597 5.67258 32.9322 5.6932 32.9004C6.05758 32.3541 6.25008 31.7178 6.25008 31.0616V30.6022C6.46195 30.586 6.67008 30.5566 6.87508 30.5129V35.626ZM6.25008 29.3541V20.001C6.54258 20.001 6.8232 19.9497 7.08383 19.8572L8.70883 27.9829C8.10945 28.7597 7.22195 29.2516 6.25008 29.3541ZM8.99508 23.0391L8.75008 21.8154C13.222 20.3047 16.6163 16.6085 17.7276 12.006C18.3445 11.5504 18.7501 10.8247 18.7501 10.001C18.7501 9.69598 18.6938 9.39723 18.5882 9.11723C18.8876 8.97098 19.157 8.77348 19.3751 8.52598V8.6966C19.3751 15.2191 15.1363 21.0141 8.99508 23.0391ZM20.6251 8.6966V7.15848C21.1882 6.83098 21.607 6.29098 21.7807 5.64785C21.812 5.64973 21.8438 5.65035 21.8751 5.65223V8.6966C21.8751 14.7235 25.622 19.9166 31.2507 21.8116L31.0051 23.0391C24.8638 21.0141 20.6251 15.2191 20.6251 8.6966ZM31.2907 27.9829L32.9157 19.8572C33.177 19.9497 33.4576 20.001 33.7501 20.001V29.3541C32.7782 29.2516 31.8907 28.7597 31.2907 27.9829ZM33.1251 30.5135C33.3301 30.5566 33.5382 30.586 33.7501 30.6029V31.0622C33.7501 31.7185 33.9426 32.3541 34.307 32.9004C34.3282 32.9322 34.3532 32.9597 34.3751 32.9904V35.626H33.1251V30.5135ZM38.1251 38.126H29.3751V36.876H38.1251V38.126Z" fill="white"/>
</svg>
