<svg width="61" height="61" viewBox="0 0 61 61" fill="none" xmlns="http://www.w3.org/2000/svg">
<g filter="url(#filter0_d)">
<rect x="8" y="4" width="45" height="45" rx="22.5" fill="#BE6D42"/>
</g>
<g clip-path="url(#clip0)">
<path d="M40.9804 22.8801C40.9336 21.8174 40.7617 21.0868 40.5156 20.4537C40.2616 19.7818 39.8709 19.1801 39.359 18.68C38.8589 18.1721 38.2533 17.7774 37.5891 17.5274C36.9524 17.2813 36.2256 17.1094 35.163 17.0626C34.0924 17.0118 33.7525 17 31.0371 17C28.3217 17 27.9819 17.0118 26.9152 17.0586C25.8525 17.1055 25.122 17.2775 24.489 17.5235C23.8169 17.7774 23.2153 18.1681 22.7152 18.68C22.2073 19.1801 21.8127 19.7857 21.5626 20.4499C21.3164 21.0868 21.1446 21.8134 21.0977 22.8761C21.0469 23.9467 21.0352 24.2866 21.0352 27.002C21.0352 29.7173 21.0469 30.0572 21.0938 31.1239C21.1406 32.1865 21.3126 32.9171 21.5588 33.5502C21.8127 34.2221 22.2073 34.8238 22.7152 35.3239C23.2153 35.8318 23.8209 36.2265 24.4851 36.4765C25.122 36.7226 25.8486 36.8945 26.9114 36.9413C27.9779 36.9883 28.3179 36.9999 31.0333 36.9999C33.7487 36.9999 34.0885 36.9883 35.1552 36.9413C36.2179 36.8945 36.9484 36.7226 37.5814 36.4765C38.9255 35.9568 39.9881 34.8941 40.5078 33.5502C40.7538 32.9133 40.9258 32.1865 40.9727 31.1239C41.0195 30.0572 41.0313 29.7173 41.0313 27.002C41.0313 24.2866 41.0273 23.9467 40.9804 22.8801ZM39.1794 31.0457C39.1364 32.0225 38.9723 32.5499 38.8356 32.9015C38.4995 33.7728 37.808 34.4643 36.9367 34.8004C36.5851 34.9372 36.0538 35.1012 35.0809 35.1441C34.026 35.1911 33.7096 35.2027 31.0411 35.2027C28.3726 35.2027 28.0522 35.1911 27.0011 35.1441C26.0244 35.1012 25.4969 34.9372 25.1453 34.8004C24.7117 34.6402 24.317 34.3862 23.9967 34.0541C23.6646 33.7298 23.4106 33.3391 23.2504 32.9055C23.1137 32.5539 22.9496 32.0225 22.9067 31.0497C22.8597 29.9948 22.8481 29.6783 22.8481 27.0097C22.8481 24.3412 22.8597 24.0209 22.9067 22.9699C22.9496 21.9932 23.1137 21.4657 23.2504 21.1141C23.4106 20.6804 23.6646 20.2859 24.0007 19.9654C24.3248 19.6333 24.7155 19.3793 25.1493 19.2192C25.5009 19.0825 26.0323 18.9184 27.0051 18.8754C28.06 18.8285 28.3765 18.8168 31.0449 18.8168C33.7174 18.8168 34.0338 18.8285 35.0848 18.8754C36.0616 18.9184 36.589 19.0825 36.9407 19.2192C37.3742 19.3793 37.7689 19.6333 38.0893 19.9654C38.4214 20.2897 38.6753 20.6804 38.8356 21.1141C38.9723 21.4657 39.1364 21.997 39.1794 22.9699C39.2263 24.0248 39.238 24.3412 39.238 27.0097C39.238 29.6783 39.2263 29.9908 39.1794 31.0457Z" fill="white"/>
<path d="M31.0371 21.8643C28.2007 21.8643 25.8994 24.1654 25.8994 27.002C25.8994 29.8385 28.2007 32.1397 31.0371 32.1397C33.8737 32.1397 36.1749 29.8385 36.1749 27.002C36.1749 24.1654 33.8737 21.8643 31.0371 21.8643ZM31.0371 30.3347C29.197 30.3347 27.7044 28.8422 27.7044 27.002C27.7044 25.1617 29.197 23.6693 31.0371 23.6693C32.8774 23.6693 34.3698 25.1617 34.3698 27.002C34.3698 28.8422 32.8774 30.3347 31.0371 30.3347Z" fill="white"/>
<path d="M37.5775 21.6608C37.5775 22.3232 37.0404 22.8603 36.3779 22.8603C35.7155 22.8603 35.1785 22.3232 35.1785 21.6608C35.1785 20.9983 35.7155 20.4614 36.3779 20.4614C37.0404 20.4614 37.5775 20.9983 37.5775 21.6608Z" fill="white"/>
</g>
<defs>
<filter id="filter0_d" x="0" y="0" width="61" height="61" filterUnits="userSpaceOnUse" color-interpolation-filters="sRGB">
<feFlood flood-opacity="0" result="BackgroundImageFix"/>
<feColorMatrix in="SourceAlpha" type="matrix" values="0 0 0 0 0 0 0 0 0 0 0 0 0 0 0 0 0 0 127 0"/>
<feOffset dy="4"/>
<feGaussianBlur stdDeviation="4"/>
<feColorMatrix type="matrix" values="0 0 0 0 0 0 0 0 0 0 0 0 0 0 0 0 0 0 0.15 0"/>
<feBlend mode="normal" in2="BackgroundImageFix" result="effect1_dropShadow"/>
<feBlend mode="normal" in="SourceGraphic" in2="effect1_dropShadow" result="shape"/>
</filter>
<clipPath id="clip0">
<rect width="20" height="20" fill="white" transform="translate(21 17)"/>
</clipPath>
</defs>
</svg>
