<svg width="66" height="35" viewBox="0 0 66 35" fill="none" xmlns="http://www.w3.org/2000/svg">
<g opacity="0.3" clip-path="url(#clip0)">
<path d="M50.7658 4.13761C50.8515 4.15066 50.9438 4.17024 51.0426 4.20287C51.0822 4.21592 51.1151 4.22898 51.1547 4.24855C53.8311 5.0317 56.2965 6.48051 58.2148 8.52321C58.696 9.03878 59.1311 9.58698 59.5069 10.1678C60.5089 11.4404 61.3263 12.8501 61.88 14.3837C63.8313 19.7679 60.944 25.3869 56.758 28.8262C52.216 32.5527 45.881 32.8072 41.405 28.8784C37.7925 25.7067 36.6455 20.1464 39.4076 16.1132C39.8097 15.2583 40.3569 14.4751 41.0622 13.8225C43.8968 11.199 49.2364 11.7798 50.6603 15.565C51.1877 16.9616 50.9569 18.8281 49.711 19.7744C48.4124 20.7598 45.7096 19.9049 46.1447 18.0123C46.1579 17.947 46.1777 17.8818 46.1975 17.823C46.1843 17.4706 46.2568 17.1117 46.4216 16.7593C46.6523 16.2568 47.1006 15.8065 47.6148 15.578C47.3774 15.3431 47.0808 15.1538 46.7314 15.0037C45.3471 14.4294 44.0682 14.8863 42.8684 15.6563C42.3345 16.0022 41.873 16.4199 41.4907 16.8963C40.7853 18.3321 40.6139 20.1464 40.937 21.7061C41.372 23.801 42.763 25.6936 44.5956 26.8096C46.56 28.0104 48.9661 27.9582 51.102 27.3056C55.4527 25.9743 58.9993 21.8301 59.2959 17.314C59.4475 15.0103 58.7554 12.9415 57.5358 11.2055C57.2062 10.8139 56.8569 10.4354 56.5075 10.0764C54.7342 8.27522 52.8291 7.17229 50.4559 6.29125C49.6253 6.04326 48.7684 5.86705 47.918 5.77568C40.8117 5.01212 34.4701 9.97203 28.8669 13.5745C26.2893 15.5062 24.0019 17.7904 21.4442 19.7548C19.9939 20.8708 18.4975 21.915 16.9418 22.8678C16.8693 22.9722 16.7704 23.0701 16.6451 23.155C13.6457 25.2107 9.82231 27.286 6.04504 26.529C2.38643 25.7915 -0.250407 22.0977 0.0132767 18.4757C0.257184 15.1538 3.67848 10.9053 7.35686 12.576C9.04444 13.3461 10.6595 17.2096 9.27516 18.6519C8.98511 19.1283 8.55003 19.5133 7.96334 19.7352C7.16569 20.0354 6.11096 20.0028 5.84068 19.0304C5.59018 18.1167 6.40101 17.4772 7.21184 17.2814C7.29753 17.2096 7.38982 17.1508 7.50189 17.1117C7.51507 17.0073 7.53485 16.9094 7.53485 16.8441C7.52826 16.2372 7.03385 15.5389 6.39442 15.4932C5.01008 15.3822 3.72462 16.9877 3.1643 18.0319C2.35347 19.5525 3.43457 21.4255 4.54863 22.4697C5.56382 23.4291 7.02726 23.8272 8.39841 23.8859C10.0596 23.9577 11.5033 23.3573 12.9535 22.6329C14.8059 21.7127 16.5594 20.6032 18.2536 19.4285C21.5694 17.1182 24.404 14.2532 27.6209 11.8255C27.6671 11.7863 27.7132 11.7472 27.766 11.7145C27.8121 11.6819 27.8517 11.6558 27.8978 11.6297C32.6309 8.57542 37.3838 5.14264 42.9937 3.92877C45.5514 3.37404 48.241 3.46541 50.7658 4.13761Z" fill="url(#paint0_linear)"/>
<path d="M17.8447 25.8177C17.8447 25.2303 18.3391 24.7343 18.9324 24.7343C19.5916 24.7408 20.0926 25.2303 20.0992 25.8894C20.1058 26.4768 19.5982 26.9728 19.0049 26.9728C18.6885 26.9728 18.4051 26.8292 18.2007 26.6139C17.9898 26.4115 17.8447 26.1309 17.8447 25.8177Z" fill="url(#paint1_linear)"/>
<path d="M21.7737 22.2152C21.7737 20.8251 23.9557 20.8251 23.9557 22.2152C23.9557 23.6118 21.7737 23.6118 21.7737 22.2152Z" fill="url(#paint2_linear)"/>
<path d="M27.3771 17.0334C27.9704 17.0269 28.4714 17.5294 28.4714 18.1167C28.4714 18.43 28.3263 18.7106 28.1088 18.9129C27.911 19.1283 27.6276 19.2719 27.3046 19.2719C26.7113 19.2719 26.2103 18.7824 26.2169 18.1951C26.2169 17.5294 26.7179 17.0334 27.3771 17.0334Z" fill="url(#paint3_linear)"/>
<path d="M32.4662 15.4475C32.4662 16.8376 30.2842 16.8376 30.2842 15.4475C30.2842 14.0509 32.4662 14.0509 32.4662 15.4475Z" fill="url(#paint4_linear)"/>
<path d="M35.815 13.3592C35.2217 13.3592 34.7207 12.8697 34.7207 12.2823C34.7207 12.2562 34.7207 12.2367 34.7207 12.2105C34.7207 11.6232 35.2151 11.1272 35.815 11.1272C36.4083 11.1272 36.9093 11.6167 36.9093 12.2105C36.9093 12.2367 36.9093 12.2562 36.9093 12.2823C36.9027 12.8697 36.4083 13.3592 35.815 13.3592Z" fill="url(#paint5_linear)"/>
<path d="M39.2295 10.0438C39.2295 8.65376 41.4115 8.65376 41.4115 10.0438C41.4115 11.4404 39.2295 11.4404 39.2295 10.0438Z" fill="url(#paint6_linear)"/>
<path d="M45.6307 10.1156C45.6043 10.1156 45.5845 10.1156 45.5581 10.1156C44.9649 10.1156 44.4705 9.62615 44.4705 9.03226C44.4705 8.4449 44.9649 7.94891 45.5581 7.94891C45.5845 7.94891 45.6043 7.94891 45.6307 7.94891C46.2239 7.94891 46.7184 8.43838 46.7184 9.03226C46.7249 9.62615 46.2239 10.1156 45.6307 10.1156Z" fill="url(#paint7_linear)"/>
<path d="M51.6688 9.61312C51.6688 11.0032 49.4868 11.0032 49.4868 9.61312C49.4868 8.22304 51.6688 8.22304 51.6688 9.61312Z" fill="url(#paint8_linear)"/>
<path d="M56.5404 12.8567C56.5404 14.2467 54.3584 14.2467 54.3584 12.8567C54.3584 11.4601 56.5404 11.4601 56.5404 12.8567Z" fill="url(#paint9_linear)"/>
<path d="M56.9095 18.3256C56.9095 18.913 56.4151 19.4089 55.8152 19.4089C55.7889 19.4089 55.7691 19.4089 55.7427 19.4089C55.1494 19.4089 54.6484 18.9195 54.6484 18.3256C54.6484 17.7382 55.1428 17.2422 55.7427 17.2422C55.7691 17.2422 55.7889 17.2422 55.8152 17.2422C56.4085 17.2488 56.9095 17.7382 56.9095 18.3256Z" fill="url(#paint10_linear)"/>
<path d="M55.0902 22.2152C55.0902 23.6052 52.9082 23.6052 52.9082 22.2152C52.9082 20.8251 55.0902 20.8251 55.0902 22.2152Z" fill="url(#paint11_linear)"/>
<path d="M50.5087 24.6625C50.5087 26.0526 48.3267 26.0526 48.3267 24.6625C48.3201 23.2724 50.5087 23.2724 50.5087 24.6625Z" fill="url(#paint12_linear)"/>
<path d="M43.7385 23.5139C43.7385 22.1239 45.9205 22.1239 45.9205 23.5139C45.9205 24.904 43.7385 24.904 43.7385 23.5139Z" fill="url(#paint13_linear)"/>
<path d="M42.2158 19.1936C42.2158 18.6062 42.7102 18.1102 43.3035 18.1102C43.3299 18.1102 43.3497 18.1102 43.376 18.1102C43.9693 18.1102 44.4703 18.5997 44.4703 19.1936C44.4703 19.7809 43.9759 20.2769 43.376 20.2769C43.3497 20.2769 43.3299 20.2769 43.3035 20.2769C42.7102 20.2704 42.2158 19.7809 42.2158 19.1936Z" fill="url(#paint14_linear)"/>
<path d="M9.69712 21.8563C9.69712 22.4436 9.20271 22.9396 8.60283 22.9396C8.00954 22.9396 7.51514 22.4501 7.51514 21.8563C7.51514 21.8106 7.51514 21.7584 7.51514 21.7127C7.51514 21.1253 8.00954 20.6293 8.60283 20.6293C9.19612 20.6293 9.69712 21.1188 9.69712 21.7127C9.69712 21.7584 9.69712 21.8106 9.69712 21.8563Z" fill="url(#paint15_linear)"/>
<path d="M12.3933 19.1218C12.3933 17.7317 14.5753 17.7317 14.5753 19.1218C14.5753 20.5119 12.3933 20.5119 12.3933 19.1218Z" fill="url(#paint16_linear)"/>
<path d="M19.3019 16.1654C19.3019 16.7528 18.8074 17.2422 18.2142 17.2422C17.6209 17.2422 17.1199 16.7528 17.1199 16.1654C17.1199 16.1197 17.1199 16.0675 17.1199 16.0218C17.1199 15.4345 17.6143 14.9385 18.2142 14.9385C18.8074 14.9385 19.3019 15.4279 19.3019 16.0218C19.3019 16.074 19.3019 16.1197 19.3019 16.1654Z" fill="url(#paint17_linear)"/>
<path d="M23.6656 12.204C23.6656 13.5941 21.4836 13.5941 21.4836 12.204C21.4836 10.8139 23.6656 10.8139 23.6656 12.204Z" fill="url(#paint18_linear)"/>
<path d="M26.0652 8.60805C26.0652 7.21797 28.2472 7.21797 28.2472 8.60805C28.2472 9.99813 26.0652 9.99813 26.0652 8.60805Z" fill="url(#paint19_linear)"/>
<path d="M32.3211 6.30433C32.2947 6.30433 32.275 6.30433 32.2486 6.30433C31.6553 6.30433 31.1543 5.81487 31.1543 5.22098C31.1543 4.63363 31.6487 4.13763 32.2486 4.13763C32.275 4.13763 32.2947 4.13763 32.3211 4.13763C32.9144 4.13763 33.4154 4.6271 33.4154 5.22098C33.4088 5.80834 32.9144 6.30433 32.3211 6.30433Z" fill="url(#paint20_linear)"/>
<path d="M37.3706 3.68079C37.3443 3.65469 37.3245 3.63511 37.2981 3.609C36.8762 3.19133 36.8762 2.49955 37.2981 2.08187C37.72 1.6642 38.4188 1.6642 38.8407 2.08187C38.867 2.10798 38.8868 2.12756 38.9132 2.15366C39.3351 2.57134 39.3351 3.26311 38.9132 3.68079C38.4913 4.09847 37.7859 4.09847 37.3706 3.68079Z" fill="url(#paint21_linear)"/>
<path d="M42.7234 1.04421C42.7234 -0.345872 44.9054 -0.345872 44.9054 1.04421C44.9054 2.44081 42.7234 2.44081 42.7234 1.04421Z" fill="url(#paint22_linear)"/>
<path d="M49.0518 1.54671C49.0518 0.15663 51.2337 0.15663 51.2337 1.54671C51.2337 2.94332 49.0518 2.94332 49.0518 1.54671Z" fill="url(#paint23_linear)"/>
<path d="M54.7275 3.49154C54.7275 2.10145 56.9095 2.10145 56.9095 3.49153C56.9095 4.88814 54.7275 4.88814 54.7275 3.49154Z" fill="url(#paint24_linear)"/>
<path d="M61.4186 6.95041C61.4186 8.34049 59.2366 8.34049 59.2366 6.95041C59.2366 5.5538 61.4186 5.5538 61.4186 6.95041Z" fill="url(#paint25_linear)"/>
<path d="M64.4708 11.9886C64.4708 12.0147 64.4708 12.0343 64.4708 12.0604C64.4708 12.6478 63.9764 13.1372 63.3831 13.1372C62.7898 13.1372 62.2888 12.6478 62.2888 12.0604C62.2888 12.0343 62.2888 12.0147 62.2888 11.9886C62.2888 11.4013 62.7832 10.9053 63.3831 10.9053C63.9764 10.9118 64.4708 11.4013 64.4708 11.9886Z" fill="url(#paint26_linear)"/>
<path d="M63.8181 17.3205C63.8181 15.9304 66.0001 15.9304 66.0001 17.3205C66.0001 18.7106 63.8181 18.7106 63.8181 17.3205Z" fill="url(#paint27_linear)"/>
<path d="M64.6158 23.5139C64.6158 24.904 62.4338 24.904 62.4338 23.5139C62.4338 22.1173 64.6158 22.1173 64.6158 23.5139Z" fill="url(#paint28_linear)"/>
<path d="M62.5062 28.4086C62.5062 29.7987 60.3242 29.7987 60.3242 28.4086C60.3242 27.0185 62.5062 27.0185 62.5062 28.4086Z" fill="url(#paint29_linear)"/>
<path d="M56.178 31.5085C56.178 31.4824 56.178 31.4628 56.178 31.4367C56.178 30.8493 56.6724 30.3533 57.2723 30.3533C57.8655 30.3533 58.36 30.8428 58.36 31.4367C58.36 31.4628 58.36 31.4824 58.36 31.5085C58.36 32.0958 57.8655 32.5853 57.2723 32.5853C56.6724 32.5853 56.178 32.0958 56.178 31.5085Z" fill="url(#paint30_linear)"/>
<path d="M52.9806 33.8841C52.9806 35.2741 50.7986 35.2741 50.7986 33.8841C50.7986 32.4875 52.9806 32.4875 52.9806 33.8841Z" fill="url(#paint31_linear)"/>
<path d="M46.4349 33.9558C46.4349 35.3459 44.2529 35.3459 44.2529 33.9558C44.2529 32.5592 46.4349 32.5592 46.4349 33.9558Z" fill="url(#paint32_linear)"/>
<path d="M40.9039 31.4367C40.9039 31.4628 40.9039 31.4824 40.9039 31.5085C40.9039 32.0958 40.4095 32.5853 39.8096 32.5853C39.2163 32.5853 38.7153 32.0958 38.7153 31.5085C38.7153 31.4824 38.7153 31.4628 38.7153 31.4367C38.7153 30.8493 39.2097 30.3533 39.8096 30.3533C40.4095 30.3533 40.9039 30.8428 40.9039 31.4367Z" fill="url(#paint33_linear)"/>
<path d="M36.5401 26.3202C37.1334 26.3202 37.6278 26.8097 37.6278 27.4035C37.6278 27.4296 37.6278 27.4492 37.6278 27.4753C37.6278 28.0627 37.1334 28.5587 36.5401 28.5587C35.9468 28.5587 35.4458 28.0692 35.4458 27.4753C35.4458 27.4492 35.4458 27.4296 35.4458 27.4035C35.4458 26.8097 35.9468 26.3202 36.5401 26.3202Z" fill="url(#paint34_linear)"/>
<path d="M36.1773 20.9948C36.1773 22.3849 33.9954 22.3849 33.9954 20.9948C33.9954 19.6047 36.1773 19.5982 36.1773 20.9948Z" fill="url(#paint35_linear)"/>
</g>
<defs>
<linearGradient id="paint0_linear" x1="14.8979" y1="1.2717" x2="49.446" y2="36.1686" gradientUnits="userSpaceOnUse">
<stop stop-color="#BC945C"/>
<stop offset="0.2784" stop-color="#966F40"/>
<stop offset="0.4243" stop-color="#C79B61"/>
<stop offset="0.5578" stop-color="#EEBD7B"/>
<stop offset="0.6275" stop-color="#FDCA85"/>
<stop offset="0.7092" stop-color="#ECBB79"/>
<stop offset="0.8713" stop-color="#BE935B"/>
<stop offset="1" stop-color="#966F40"/>
</linearGradient>
<linearGradient id="paint1_linear" x1="18.1808" y1="25.0431" x2="19.7749" y2="26.6532" gradientUnits="userSpaceOnUse">
<stop stop-color="#BC945C"/>
<stop offset="0.2784" stop-color="#966F40"/>
<stop offset="0.4243" stop-color="#C79B61"/>
<stop offset="0.5578" stop-color="#EEBD7B"/>
<stop offset="0.6275" stop-color="#FDCA85"/>
<stop offset="0.7092" stop-color="#ECBB79"/>
<stop offset="0.8713" stop-color="#BE935B"/>
<stop offset="1" stop-color="#966F40"/>
</linearGradient>
<linearGradient id="paint2_linear" x1="22.0919" y1="21.4511" x2="23.622" y2="22.9966" gradientUnits="userSpaceOnUse">
<stop stop-color="#BC945C"/>
<stop offset="0.2784" stop-color="#966F40"/>
<stop offset="0.4243" stop-color="#C79B61"/>
<stop offset="0.5578" stop-color="#EEBD7B"/>
<stop offset="0.6275" stop-color="#FDCA85"/>
<stop offset="0.7092" stop-color="#ECBB79"/>
<stop offset="0.8713" stop-color="#BE935B"/>
<stop offset="1" stop-color="#966F40"/>
</linearGradient>
<linearGradient id="paint3_linear" x1="26.5469" y1="17.364" x2="28.0885" y2="18.9212" gradientUnits="userSpaceOnUse">
<stop stop-color="#BC945C"/>
<stop offset="0.2784" stop-color="#966F40"/>
<stop offset="0.4243" stop-color="#C79B61"/>
<stop offset="0.5578" stop-color="#EEBD7B"/>
<stop offset="0.6275" stop-color="#FDCA85"/>
<stop offset="0.7092" stop-color="#ECBB79"/>
<stop offset="0.8713" stop-color="#BE935B"/>
<stop offset="1" stop-color="#966F40"/>
</linearGradient>
<linearGradient id="paint4_linear" x1="30.6026" y1="14.6821" x2="32.1326" y2="16.2277" gradientUnits="userSpaceOnUse">
<stop stop-color="#BC945C"/>
<stop offset="0.2784" stop-color="#966F40"/>
<stop offset="0.4243" stop-color="#C79B61"/>
<stop offset="0.5578" stop-color="#EEBD7B"/>
<stop offset="0.6275" stop-color="#FDCA85"/>
<stop offset="0.7092" stop-color="#ECBB79"/>
<stop offset="0.8713" stop-color="#BE935B"/>
<stop offset="1" stop-color="#966F40"/>
</linearGradient>
<linearGradient id="paint5_linear" x1="35.0257" y1="11.4637" x2="36.5834" y2="13.0372" gradientUnits="userSpaceOnUse">
<stop stop-color="#BC945C"/>
<stop offset="0.2784" stop-color="#966F40"/>
<stop offset="0.4243" stop-color="#C79B61"/>
<stop offset="0.5578" stop-color="#EEBD7B"/>
<stop offset="0.6275" stop-color="#FDCA85"/>
<stop offset="0.7092" stop-color="#ECBB79"/>
<stop offset="0.8713" stop-color="#BE935B"/>
<stop offset="1" stop-color="#966F40"/>
</linearGradient>
<linearGradient id="paint6_linear" x1="39.5492" y1="9.28113" x2="41.0793" y2="10.8266" gradientUnits="userSpaceOnUse">
<stop stop-color="#BC945C"/>
<stop offset="0.2784" stop-color="#966F40"/>
<stop offset="0.4243" stop-color="#C79B61"/>
<stop offset="0.5578" stop-color="#EEBD7B"/>
<stop offset="0.6275" stop-color="#FDCA85"/>
<stop offset="0.7092" stop-color="#ECBB79"/>
<stop offset="0.8713" stop-color="#BE935B"/>
<stop offset="1" stop-color="#966F40"/>
</linearGradient>
<linearGradient id="paint7_linear" x1="44.8091" y1="8.2593" x2="46.3668" y2="9.83268" gradientUnits="userSpaceOnUse">
<stop stop-color="#BC945C"/>
<stop offset="0.2784" stop-color="#966F40"/>
<stop offset="0.4243" stop-color="#C79B61"/>
<stop offset="0.5578" stop-color="#EEBD7B"/>
<stop offset="0.6275" stop-color="#FDCA85"/>
<stop offset="0.7092" stop-color="#ECBB79"/>
<stop offset="0.8713" stop-color="#BE935B"/>
<stop offset="1" stop-color="#966F40"/>
</linearGradient>
<linearGradient id="paint8_linear" x1="49.8054" y1="8.84903" x2="51.3355" y2="10.3945" gradientUnits="userSpaceOnUse">
<stop stop-color="#BC945C"/>
<stop offset="0.2784" stop-color="#966F40"/>
<stop offset="0.4243" stop-color="#C79B61"/>
<stop offset="0.5578" stop-color="#EEBD7B"/>
<stop offset="0.6275" stop-color="#FDCA85"/>
<stop offset="0.7092" stop-color="#ECBB79"/>
<stop offset="0.8713" stop-color="#BE935B"/>
<stop offset="1" stop-color="#966F40"/>
</linearGradient>
<linearGradient id="paint9_linear" x1="54.6789" y1="12.0896" x2="56.209" y2="13.6351" gradientUnits="userSpaceOnUse">
<stop stop-color="#BC945C"/>
<stop offset="0.2784" stop-color="#966F40"/>
<stop offset="0.4243" stop-color="#C79B61"/>
<stop offset="0.5578" stop-color="#EEBD7B"/>
<stop offset="0.6275" stop-color="#FDCA85"/>
<stop offset="0.7092" stop-color="#ECBB79"/>
<stop offset="0.8713" stop-color="#BE935B"/>
<stop offset="1" stop-color="#966F40"/>
</linearGradient>
<linearGradient id="paint10_linear" x1="54.9923" y1="17.5487" x2="56.55" y2="19.1222" gradientUnits="userSpaceOnUse">
<stop stop-color="#BC945C"/>
<stop offset="0.2784" stop-color="#966F40"/>
<stop offset="0.4243" stop-color="#C79B61"/>
<stop offset="0.5578" stop-color="#EEBD7B"/>
<stop offset="0.6275" stop-color="#FDCA85"/>
<stop offset="0.7092" stop-color="#ECBB79"/>
<stop offset="0.8713" stop-color="#BE935B"/>
<stop offset="1" stop-color="#966F40"/>
</linearGradient>
<linearGradient id="paint11_linear" x1="53.2242" y1="21.4511" x2="54.7543" y2="22.9966" gradientUnits="userSpaceOnUse">
<stop stop-color="#BC945C"/>
<stop offset="0.2784" stop-color="#966F40"/>
<stop offset="0.4243" stop-color="#C79B61"/>
<stop offset="0.5578" stop-color="#EEBD7B"/>
<stop offset="0.6275" stop-color="#FDCA85"/>
<stop offset="0.7092" stop-color="#ECBB79"/>
<stop offset="0.8713" stop-color="#BE935B"/>
<stop offset="1" stop-color="#966F40"/>
</linearGradient>
<linearGradient id="paint12_linear" x1="48.6416" y1="23.8996" x2="50.1716" y2="25.4451" gradientUnits="userSpaceOnUse">
<stop stop-color="#BC945C"/>
<stop offset="0.2784" stop-color="#966F40"/>
<stop offset="0.4243" stop-color="#C79B61"/>
<stop offset="0.5578" stop-color="#EEBD7B"/>
<stop offset="0.6275" stop-color="#FDCA85"/>
<stop offset="0.7092" stop-color="#ECBB79"/>
<stop offset="0.8713" stop-color="#BE935B"/>
<stop offset="1" stop-color="#966F40"/>
</linearGradient>
<linearGradient id="paint13_linear" x1="44.059" y1="22.7474" x2="45.5891" y2="24.2929" gradientUnits="userSpaceOnUse">
<stop stop-color="#BC945C"/>
<stop offset="0.2784" stop-color="#966F40"/>
<stop offset="0.4243" stop-color="#C79B61"/>
<stop offset="0.5578" stop-color="#EEBD7B"/>
<stop offset="0.6275" stop-color="#FDCA85"/>
<stop offset="0.7092" stop-color="#ECBB79"/>
<stop offset="0.8713" stop-color="#BE935B"/>
<stop offset="1" stop-color="#966F40"/>
</linearGradient>
<linearGradient id="paint14_linear" x1="42.554" y1="18.4128" x2="44.1118" y2="19.9864" gradientUnits="userSpaceOnUse">
<stop stop-color="#BC945C"/>
<stop offset="0.2784" stop-color="#966F40"/>
<stop offset="0.4243" stop-color="#C79B61"/>
<stop offset="0.5578" stop-color="#EEBD7B"/>
<stop offset="0.6275" stop-color="#FDCA85"/>
<stop offset="0.7092" stop-color="#ECBB79"/>
<stop offset="0.8713" stop-color="#BE935B"/>
<stop offset="1" stop-color="#966F40"/>
</linearGradient>
<linearGradient id="paint15_linear" x1="7.80321" y1="20.9872" x2="9.39689" y2="22.5971" gradientUnits="userSpaceOnUse">
<stop stop-color="#BC945C"/>
<stop offset="0.2784" stop-color="#966F40"/>
<stop offset="0.4243" stop-color="#C79B61"/>
<stop offset="0.5578" stop-color="#EEBD7B"/>
<stop offset="0.6275" stop-color="#FDCA85"/>
<stop offset="0.7092" stop-color="#ECBB79"/>
<stop offset="0.8713" stop-color="#BE935B"/>
<stop offset="1" stop-color="#966F40"/>
</linearGradient>
<linearGradient id="paint16_linear" x1="12.7088" y1="18.3547" x2="14.2388" y2="19.9001" gradientUnits="userSpaceOnUse">
<stop stop-color="#BC945C"/>
<stop offset="0.2784" stop-color="#966F40"/>
<stop offset="0.4243" stop-color="#C79B61"/>
<stop offset="0.5578" stop-color="#EEBD7B"/>
<stop offset="0.6275" stop-color="#FDCA85"/>
<stop offset="0.7092" stop-color="#ECBB79"/>
<stop offset="0.8713" stop-color="#BE935B"/>
<stop offset="1" stop-color="#966F40"/>
</linearGradient>
<linearGradient id="paint17_linear" x1="17.4047" y1="15.2984" x2="18.9985" y2="16.9082" gradientUnits="userSpaceOnUse">
<stop stop-color="#BC945C"/>
<stop offset="0.2784" stop-color="#966F40"/>
<stop offset="0.4243" stop-color="#C79B61"/>
<stop offset="0.5578" stop-color="#EEBD7B"/>
<stop offset="0.6275" stop-color="#FDCA85"/>
<stop offset="0.7092" stop-color="#ECBB79"/>
<stop offset="0.8713" stop-color="#BE935B"/>
<stop offset="1" stop-color="#966F40"/>
</linearGradient>
<linearGradient id="paint18_linear" x1="21.801" y1="11.4416" x2="23.331" y2="12.987" gradientUnits="userSpaceOnUse">
<stop stop-color="#BC945C"/>
<stop offset="0.2784" stop-color="#966F40"/>
<stop offset="0.4243" stop-color="#C79B61"/>
<stop offset="0.5578" stop-color="#EEBD7B"/>
<stop offset="0.6275" stop-color="#FDCA85"/>
<stop offset="0.7092" stop-color="#ECBB79"/>
<stop offset="0.8713" stop-color="#BE935B"/>
<stop offset="1" stop-color="#966F40"/>
</linearGradient>
<linearGradient id="paint19_linear" x1="26.3836" y1="7.84103" x2="27.9137" y2="9.38646" gradientUnits="userSpaceOnUse">
<stop stop-color="#BC945C"/>
<stop offset="0.2784" stop-color="#966F40"/>
<stop offset="0.4243" stop-color="#C79B61"/>
<stop offset="0.5578" stop-color="#EEBD7B"/>
<stop offset="0.6275" stop-color="#FDCA85"/>
<stop offset="0.7092" stop-color="#ECBB79"/>
<stop offset="0.8713" stop-color="#BE935B"/>
<stop offset="1" stop-color="#966F40"/>
</linearGradient>
<linearGradient id="paint20_linear" x1="31.4977" y1="4.4426" x2="33.0555" y2="6.01606" gradientUnits="userSpaceOnUse">
<stop stop-color="#BC945C"/>
<stop offset="0.2784" stop-color="#966F40"/>
<stop offset="0.4243" stop-color="#C79B61"/>
<stop offset="0.5578" stop-color="#EEBD7B"/>
<stop offset="0.6275" stop-color="#FDCA85"/>
<stop offset="0.7092" stop-color="#ECBB79"/>
<stop offset="0.8713" stop-color="#BE935B"/>
<stop offset="1" stop-color="#966F40"/>
</linearGradient>
<linearGradient id="paint21_linear" x1="37.2957" y1="2.08135" x2="38.8953" y2="3.69705" gradientUnits="userSpaceOnUse">
<stop stop-color="#BC945C"/>
<stop offset="0.2784" stop-color="#966F40"/>
<stop offset="0.4243" stop-color="#C79B61"/>
<stop offset="0.5578" stop-color="#EEBD7B"/>
<stop offset="0.6275" stop-color="#FDCA85"/>
<stop offset="0.7092" stop-color="#ECBB79"/>
<stop offset="0.8713" stop-color="#BE935B"/>
<stop offset="1" stop-color="#966F40"/>
</linearGradient>
<linearGradient id="paint22_linear" x1="43.0407" y1="0.279794" x2="44.5708" y2="1.8253" gradientUnits="userSpaceOnUse">
<stop stop-color="#BC945C"/>
<stop offset="0.2784" stop-color="#966F40"/>
<stop offset="0.4243" stop-color="#C79B61"/>
<stop offset="0.5578" stop-color="#EEBD7B"/>
<stop offset="0.6275" stop-color="#FDCA85"/>
<stop offset="0.7092" stop-color="#ECBB79"/>
<stop offset="0.8713" stop-color="#BE935B"/>
<stop offset="1" stop-color="#966F40"/>
</linearGradient>
<linearGradient id="paint23_linear" x1="49.369" y1="0.783863" x2="50.899" y2="2.32936" gradientUnits="userSpaceOnUse">
<stop stop-color="#BC945C"/>
<stop offset="0.2784" stop-color="#966F40"/>
<stop offset="0.4243" stop-color="#C79B61"/>
<stop offset="0.5578" stop-color="#EEBD7B"/>
<stop offset="0.6275" stop-color="#FDCA85"/>
<stop offset="0.7092" stop-color="#ECBB79"/>
<stop offset="0.8713" stop-color="#BE935B"/>
<stop offset="1" stop-color="#966F40"/>
</linearGradient>
<linearGradient id="paint24_linear" x1="55.0426" y1="2.72817" x2="56.5726" y2="4.27367" gradientUnits="userSpaceOnUse">
<stop stop-color="#BC945C"/>
<stop offset="0.2784" stop-color="#966F40"/>
<stop offset="0.4243" stop-color="#C79B61"/>
<stop offset="0.5578" stop-color="#EEBD7B"/>
<stop offset="0.6275" stop-color="#FDCA85"/>
<stop offset="0.7092" stop-color="#ECBB79"/>
<stop offset="0.8713" stop-color="#BE935B"/>
<stop offset="1" stop-color="#966F40"/>
</linearGradient>
<linearGradient id="paint25_linear" x1="59.5525" y1="6.18469" x2="61.0825" y2="7.73019" gradientUnits="userSpaceOnUse">
<stop stop-color="#BC945C"/>
<stop offset="0.2784" stop-color="#966F40"/>
<stop offset="0.4243" stop-color="#C79B61"/>
<stop offset="0.5578" stop-color="#EEBD7B"/>
<stop offset="0.6275" stop-color="#FDCA85"/>
<stop offset="0.7092" stop-color="#ECBB79"/>
<stop offset="0.8713" stop-color="#BE935B"/>
<stop offset="1" stop-color="#966F40"/>
</linearGradient>
<linearGradient id="paint26_linear" x1="62.5936" y1="11.2476" x2="64.1513" y2="12.8211" gradientUnits="userSpaceOnUse">
<stop stop-color="#BC945C"/>
<stop offset="0.2784" stop-color="#966F40"/>
<stop offset="0.4243" stop-color="#C79B61"/>
<stop offset="0.5578" stop-color="#EEBD7B"/>
<stop offset="0.6275" stop-color="#FDCA85"/>
<stop offset="0.7092" stop-color="#ECBB79"/>
<stop offset="0.8713" stop-color="#BE935B"/>
<stop offset="1" stop-color="#966F40"/>
</linearGradient>
<linearGradient id="paint27_linear" x1="64.1349" y1="16.5544" x2="65.665" y2="18.0999" gradientUnits="userSpaceOnUse">
<stop stop-color="#BC945C"/>
<stop offset="0.2784" stop-color="#966F40"/>
<stop offset="0.4243" stop-color="#C79B61"/>
<stop offset="0.5578" stop-color="#EEBD7B"/>
<stop offset="0.6275" stop-color="#FDCA85"/>
<stop offset="0.7092" stop-color="#ECBB79"/>
<stop offset="0.8713" stop-color="#BE935B"/>
<stop offset="1" stop-color="#966F40"/>
</linearGradient>
<linearGradient id="paint28_linear" x1="62.753" y1="22.7474" x2="64.2831" y2="24.2929" gradientUnits="userSpaceOnUse">
<stop stop-color="#BC945C"/>
<stop offset="0.2784" stop-color="#966F40"/>
<stop offset="0.4243" stop-color="#C79B61"/>
<stop offset="0.5578" stop-color="#EEBD7B"/>
<stop offset="0.6275" stop-color="#FDCA85"/>
<stop offset="0.7092" stop-color="#ECBB79"/>
<stop offset="0.8713" stop-color="#BE935B"/>
<stop offset="1" stop-color="#966F40"/>
</linearGradient>
<linearGradient id="paint29_linear" x1="60.6435" y1="27.6442" x2="62.1735" y2="29.1897" gradientUnits="userSpaceOnUse">
<stop stop-color="#BC945C"/>
<stop offset="0.2784" stop-color="#966F40"/>
<stop offset="0.4243" stop-color="#C79B61"/>
<stop offset="0.5578" stop-color="#EEBD7B"/>
<stop offset="0.6275" stop-color="#FDCA85"/>
<stop offset="0.7092" stop-color="#ECBB79"/>
<stop offset="0.8713" stop-color="#BE935B"/>
<stop offset="1" stop-color="#966F40"/>
</linearGradient>
<linearGradient id="paint30_linear" x1="56.4835" y1="30.6908" x2="58.0412" y2="32.2642" gradientUnits="userSpaceOnUse">
<stop stop-color="#BC945C"/>
<stop offset="0.2784" stop-color="#966F40"/>
<stop offset="0.4243" stop-color="#C79B61"/>
<stop offset="0.5578" stop-color="#EEBD7B"/>
<stop offset="0.6275" stop-color="#FDCA85"/>
<stop offset="0.7092" stop-color="#ECBB79"/>
<stop offset="0.8713" stop-color="#BE935B"/>
<stop offset="1" stop-color="#966F40"/>
</linearGradient>
<linearGradient id="paint31_linear" x1="51.1146" y1="33.1171" x2="52.6447" y2="34.6626" gradientUnits="userSpaceOnUse">
<stop stop-color="#BC945C"/>
<stop offset="0.2784" stop-color="#966F40"/>
<stop offset="0.4243" stop-color="#C79B61"/>
<stop offset="0.5578" stop-color="#EEBD7B"/>
<stop offset="0.6275" stop-color="#FDCA85"/>
<stop offset="0.7092" stop-color="#ECBB79"/>
<stop offset="0.8713" stop-color="#BE935B"/>
<stop offset="1" stop-color="#966F40"/>
</linearGradient>
<linearGradient id="paint32_linear" x1="44.5684" y1="33.1891" x2="46.0984" y2="34.7346" gradientUnits="userSpaceOnUse">
<stop stop-color="#BC945C"/>
<stop offset="0.2784" stop-color="#966F40"/>
<stop offset="0.4243" stop-color="#C79B61"/>
<stop offset="0.5578" stop-color="#EEBD7B"/>
<stop offset="0.6275" stop-color="#FDCA85"/>
<stop offset="0.7092" stop-color="#ECBB79"/>
<stop offset="0.8713" stop-color="#BE935B"/>
<stop offset="1" stop-color="#966F40"/>
</linearGradient>
<linearGradient id="paint33_linear" x1="39.0261" y1="30.6908" x2="40.5837" y2="32.2643" gradientUnits="userSpaceOnUse">
<stop stop-color="#BC945C"/>
<stop offset="0.2784" stop-color="#966F40"/>
<stop offset="0.4243" stop-color="#C79B61"/>
<stop offset="0.5578" stop-color="#EEBD7B"/>
<stop offset="0.6275" stop-color="#FDCA85"/>
<stop offset="0.7092" stop-color="#ECBB79"/>
<stop offset="0.8713" stop-color="#BE935B"/>
<stop offset="1" stop-color="#966F40"/>
</linearGradient>
<linearGradient id="paint34_linear" x1="35.753" y1="26.6582" x2="37.3108" y2="28.2317" gradientUnits="userSpaceOnUse">
<stop stop-color="#BC945C"/>
<stop offset="0.2784" stop-color="#966F40"/>
<stop offset="0.4243" stop-color="#C79B61"/>
<stop offset="0.5578" stop-color="#EEBD7B"/>
<stop offset="0.6275" stop-color="#FDCA85"/>
<stop offset="0.7092" stop-color="#ECBB79"/>
<stop offset="0.8713" stop-color="#BE935B"/>
<stop offset="1" stop-color="#966F40"/>
</linearGradient>
<linearGradient id="paint35_linear" x1="34.312" y1="20.227" x2="35.8421" y2="21.7725" gradientUnits="userSpaceOnUse">
<stop stop-color="#BC945C"/>
<stop offset="0.2784" stop-color="#966F40"/>
<stop offset="0.4243" stop-color="#C79B61"/>
<stop offset="0.5578" stop-color="#EEBD7B"/>
<stop offset="0.6275" stop-color="#FDCA85"/>
<stop offset="0.7092" stop-color="#ECBB79"/>
<stop offset="0.8713" stop-color="#BE935B"/>
<stop offset="1" stop-color="#966F40"/>
</linearGradient>
<clipPath id="clip0">
<rect width="35" height="66" fill="white" transform="matrix(4.37114e-08 1 1 -4.37114e-08 0 0)"/>
</clipPath>
</defs>
</svg>
