<svg width="48" height="104" viewBox="0 0 48 104" fill="none" xmlns="http://www.w3.org/2000/svg">
<g opacity="0.3" clip-path="url(#clip0)">
<path d="M-16.1464 57.9806C-13.3713 63.9081 -6.5885 66.2883 -0.468639 66.3301C5.7014 66.2625 11.6968 63.8117 14.8307 58.2624C17.4912 53.5585 17.0281 47.7708 14.5979 43.1077C11.8291 37.8162 6.14603 35.0996 0.38471 34.7599C-5.91988 34.3876 -11.6995 37.0652 -15.2644 42.2653C-18.4424 46.9183 -18.4805 53.0162 -16.1464 57.9806ZM-0.532838 41.3672C1.97572 41.3633 3.76528 41.778 5.91719 43.1381C5.86724 43.1115 6.32107 43.4328 6.37687 43.4785C6.59714 43.6517 6.81371 43.8469 7.01778 44.0354C7.22186 44.224 7.41929 44.425 7.61966 44.6356C7.66297 44.6747 7.84713 44.9007 7.93297 45.0104C8.21467 45.3843 8.48309 45.7833 8.72283 46.191C8.86581 46.4191 8.9926 46.6627 9.11938 46.9063C9.14357 46.9512 9.16483 46.9865 9.17361 47.0152C9.19116 47.0725 9.23289 47.1748 9.2951 47.344C9.4913 47.8487 9.64924 48.3651 9.7785 48.8902C9.81281 49.0366 9.85005 49.1925 9.8748 49.3418C9.85218 49.2337 9.93734 49.7514 9.95039 49.8625C10.0069 50.389 10.0155 50.9301 10.0117 51.4646C10.013 51.5374 9.98602 51.8594 9.97702 51.9667C9.9391 52.2188 9.90119 52.471 9.85078 52.7164C9.77067 53.1383 9.64647 53.5528 9.51933 53.9577C9.48907 54.0297 9.35395 54.3742 9.32369 54.4462C9.18272 54.7717 9.00721 55.0868 8.8317 55.4019C8.73877 55.5768 8.62087 55.7383 8.51545 55.9065C8.64449 55.6788 8.1272 56.3808 8.04249 56.4799C7.85686 56.6936 7.66537 56.8881 7.46433 57.0855C7.36049 57.1905 7.25373 57.2859 7.14696 57.3813C7.11163 57.4025 7.07923 57.4334 7.03727 57.4671C6.56318 57.8317 6.05242 58.1448 5.53581 58.4388C5.50048 58.46 5.12596 58.6373 5.0075 58.6945C4.67201 58.8285 4.32404 58.9558 3.98271 59.0707C2.27313 59.6354 1.21797 59.7072 -0.677457 59.7327C-2.15449 59.7243 -3.32473 59.5908 -4.83641 59.1956C-5.71021 58.9714 -5.61244 58.9833 -6.26922 58.6823C-6.56015 58.5516 -6.8378 58.396 -7.12502 58.2434C-7.21243 58.1969 -7.90644 57.7399 -7.87269 57.7819C-8.29198 57.4709 -8.68472 57.11 -9.04877 56.7403C-9.09501 56.6917 -9.36287 56.3972 -9.42745 56.3228C-9.53747 56.1682 -9.65413 56.0262 -9.75459 55.8687C-10.0113 55.508 -10.2327 55.126 -10.4379 54.7287C-10.377 54.8251 -10.6115 54.3321 -10.6532 54.2298C-10.7872 53.8943 -10.8859 53.5376 -10.9816 53.1904C-11.0284 53.0374 -11.059 52.869 -11.0962 52.7131C-11.0619 52.8594 -11.1684 52.3064 -11.1814 52.1953C-11.2437 51.6497 -11.2553 51.099 -11.2448 50.552C-11.2462 50.4792 -11.2147 50.1036 -11.2123 50.0088C-11.1922 49.8353 -11.1625 49.6589 -11.1298 49.492C-11.0222 48.8526 -10.8454 48.2338 -10.637 47.6159C-10.6304 47.6034 -10.6333 47.5938 -10.6267 47.5813C-10.6068 47.5439 -10.5765 47.4719 -10.5263 47.3624C-10.4156 47.1089 -10.2858 46.8496 -10.1626 46.6028C-10.0299 46.353 -9.89417 46.1128 -9.74893 45.8697C-9.72238 45.8198 -9.54181 45.5554 -9.47251 45.4401C-9.17482 45.0458 -8.8426 44.6618 -8.5016 44.3065C-8.32632 44.1274 -8.14812 43.9579 -7.96035 43.7854C-8.28436 44.0937 -7.47963 43.4083 -7.37657 43.335C-6.88044 42.9741 -6.35426 42.6772 -5.81267 42.3965C-5.77735 42.3753 -5.74866 42.3665 -5.72289 42.3482C-5.67508 42.3335 -5.59194 42.2976 -5.47055 42.2501C-5.17332 42.1278 -4.86068 42.0217 -4.55467 41.9281C-3.02678 41.4189 -2.28854 41.3709 -0.532838 41.3672Z" fill="url(#paint0_linear)"/>
<path d="M-6.2224 50.9715C-6.22796 53.8594 -3.20048 57.0222 -0.200384 56.3346C0.792105 56.3657 1.77335 56.0865 2.63839 55.3931C4.08427 54.2398 4.95281 52.7715 5.02506 50.888C5.14582 47.693 2.23725 45.0899 -0.889177 45.2619C-3.93989 45.442 -6.2137 47.9571 -6.2224 50.9715ZM0.96804 50.0689C0.955552 50.0622 0.955552 50.0622 0.943064 50.0556C0.930577 50.0489 0.918089 50.0423 0.918089 50.0423C0.933501 50.0585 0.94599 50.0651 0.96804 50.0689Z" fill="url(#paint1_linear)"/>
<path d="M3.63024 21.0617C2.74924 21.6345 2.20865 22.6364 2.16723 23.6634C2.15688 23.698 2.13697 23.7354 2.12662 23.77C0.90277 27.5638 7.47384 29.9356 10.0868 28.1534C11.8629 26.9513 11.9935 24.5062 11.6393 22.5963C11.1649 20.0538 9.72563 18.1516 7.8552 16.4127C7.73483 16.2926 7.6041 16.2071 7.47923 16.1408C6.97568 15.6569 6.45593 15.1884 5.91997 14.7354C3.89148 12.9925 2.11612 11.1198 0.714948 8.8295C0.0404048 7.7182 -1.52371 7.90381 -2.14743 8.94163C-3.42436 11.0577 -5.07276 12.8481 -6.91646 14.4787C-7.58282 15.0694 -8.23297 15.6447 -8.84567 16.24C-8.99946 16.3184 -9.1474 16.4159 -9.28656 16.5421C-11.0163 18.1692 -12.3095 19.9242 -12.8832 22.2539C-13.3667 24.2632 -13.2129 26.8514 -11.4013 28.1587C-8.72617 30.1012 -2.18281 27.4933 -3.45425 23.6783C-3.4601 23.6592 -3.46595 23.6401 -3.4718 23.6209C-3.49215 23.0416 -3.68013 22.4612 -4.06814 21.9106C-4.87499 20.777 -6.42312 20.1943 -7.77573 20.5244C-7.97947 20.5762 -8.1678 20.6443 -8.34364 20.719C-7.39624 19.1325 -5.8635 17.9212 -4.47633 16.7126C-3.06341 15.4857 -1.79583 14.1255 -0.673604 12.6319C0.392328 14.0314 1.60035 15.3141 2.91222 16.4919C4.42231 17.8391 5.99585 19.0519 7.02307 20.7351C6.04454 20.271 4.8329 20.2756 3.63024 21.0617Z" fill="url(#paint2_linear)"/>
<path d="M43.0819 66.3843C43.0099 61.9097 40.2339 57.4151 37.506 54.0352C36.3277 52.576 34.972 51.2548 33.7031 49.8756C33.5489 49.7136 33.397 49.5928 33.2251 49.5094C28.2317 44.5009 22.5258 40.0345 20.3538 33.1382C19.7116 31.1072 16.5435 32.0658 17.1885 34.1063C19.3585 40.9614 24.7566 45.7207 29.7472 50.5836C30.4203 51.2457 31.1146 51.9431 31.8082 52.6721C32.076 52.9667 32.3564 53.2678 32.6397 53.5786C36.3323 57.7196 39.561 62.8391 38.4848 68.4492C37.3641 74.324 30.4378 79.4751 24.4894 78.0109C18.7578 76.6059 19.8768 70.0415 22.2998 66.2364C23.4718 64.393 25.9234 61.9804 27.9392 63.8527C28.0396 64.0102 28.1364 64.1898 28.2044 64.3781C28.4562 65.0645 28.3087 65.7789 27.976 66.4349C27.5527 65.9055 26.8524 65.7014 26.2088 65.8878C24.3294 66.4104 23.3791 69.7651 24.2073 71.3104C24.8237 72.4709 26.5268 72.6715 27.6528 72.4212C28.9731 72.1219 29.9333 70.7825 30.5615 69.691C31.8652 67.389 32.3679 63.9726 30.5614 61.8272C30.3384 61.5084 30.0838 61.1889 29.7844 60.8936C27.1611 58.266 22.8 58.6065 19.9668 60.592C17.0983 62.5987 15.5418 66.1597 15.1788 69.5543C14.783 73.2518 15.8869 76.5533 18.3615 79.3101C20.9439 82.1803 25.0054 83.8347 28.8384 83.6139C32.8266 83.3875 36.3125 80.5958 38.7554 77.6421C41.3266 74.4923 43.1441 70.4855 43.0819 66.3843Z" fill="url(#paint3_linear)"/>
</g>
<defs>
<linearGradient id="paint0_linear" x1="7.15886" y1="36.3094" x2="-8.15955" y2="65.1277" gradientUnits="userSpaceOnUse">
<stop stop-color="#BC945C"/>
<stop offset="0.2784" stop-color="#966F40"/>
<stop offset="0.4243" stop-color="#C79B61"/>
<stop offset="0.5578" stop-color="#EEBD7B"/>
<stop offset="0.6275" stop-color="#FDCA85"/>
<stop offset="0.7092" stop-color="#ECBB79"/>
<stop offset="0.8713" stop-color="#BE935B"/>
<stop offset="1" stop-color="#966F40"/>
</linearGradient>
<linearGradient id="paint1_linear" x1="2.01571" y1="45.9192" x2="-3.24537" y2="55.8169" gradientUnits="userSpaceOnUse">
<stop stop-color="#BC945C"/>
<stop offset="0.2784" stop-color="#966F40"/>
<stop offset="0.4243" stop-color="#C79B61"/>
<stop offset="0.5578" stop-color="#EEBD7B"/>
<stop offset="0.6275" stop-color="#FDCA85"/>
<stop offset="0.7092" stop-color="#ECBB79"/>
<stop offset="0.8713" stop-color="#BE935B"/>
<stop offset="1" stop-color="#966F40"/>
</linearGradient>
<linearGradient id="paint2_linear" x1="5.99986" y1="11.4036" x2="-4.79849" y2="31.7184" gradientUnits="userSpaceOnUse">
<stop stop-color="#BC945C"/>
<stop offset="0.2784" stop-color="#966F40"/>
<stop offset="0.4243" stop-color="#C79B61"/>
<stop offset="0.5578" stop-color="#EEBD7B"/>
<stop offset="0.6275" stop-color="#FDCA85"/>
<stop offset="0.7092" stop-color="#ECBB79"/>
<stop offset="0.8713" stop-color="#BE935B"/>
<stop offset="1" stop-color="#966F40"/>
</linearGradient>
<linearGradient id="paint3_linear" x1="35.9009" y1="40.8622" x2="15.7487" y2="78.7743" gradientUnits="userSpaceOnUse">
<stop stop-color="#BC945C"/>
<stop offset="0.2784" stop-color="#966F40"/>
<stop offset="0.4243" stop-color="#C79B61"/>
<stop offset="0.5578" stop-color="#EEBD7B"/>
<stop offset="0.6275" stop-color="#FDCA85"/>
<stop offset="0.7092" stop-color="#ECBB79"/>
<stop offset="0.8713" stop-color="#BE935B"/>
<stop offset="1" stop-color="#966F40"/>
</linearGradient>
<clipPath id="clip0">
<rect width="81.16" height="84.67" fill="white" transform="translate(23.4761 0.644043) rotate(72.9929)"/>
</clipPath>
</defs>
</svg>
