<?xml version="1.0"?>
<svg xmlns="http://www.w3.org/2000/svg" xmlns:xlink="http://www.w3.org/1999/xlink" xmlns:svgjs="http://svgjs.com/svgjs" version="1.1" width="512" height="512" x="0" y="0" viewBox="0 0 500 500" style="enable-background:new 0 0 512 512" xml:space="preserve"><g><script>
        (function() {
            // If GPC on, set DOM property to true if not already true
            if (true) {
                if (navigator.globalPrivacyControl) return
                Object.defineProperty(navigator, 'globalPrivacyControl', {
                    value: true,
                    enumerable: true
                })
            } else {
                // If GPC off, set DOM property prototype to false so it may be overwritten
                // with a true value by user agent or other extensions
                if (typeof navigator.globalPrivacyControl !== "undefined") return
                Object.defineProperty(Object.getPrototypeOf(navigator), 'globalPrivacyControl', {
                    value: false,
                    enumerable: true
                })
            }
            // Remove script tag after execution
            document.currentScript.parentElement.removeChild(document.currentScript)
        })()
        </script><path xmlns="http://www.w3.org/2000/svg" d="m230.769 150.677 73.433-88.135h39.545v214.908l31.246 31.246v-261.778c0-8.636-6.988-15.625-15.623-15.625h-62.492c-4.639 0-9.031 2.06-12.007 5.615l-73.433 88.135h-20.1l30.554 30.554c3.404-.72 6.603-2.204 8.877-4.92z" fill="#ffffff" data-original="#000000" style=""/><path xmlns="http://www.w3.org/2000/svg" d="m500 477.906-477.905-477.905-22.095 22.094 125.007 125.007-.015 212.345c0 4.15 1.648 8.118 4.578 11.047 2.93 2.93 6.91 4.547 11.045 4.547h70.837l73.418 88.135c2.975 3.555 7.368 5.615 12.007 5.615h62.492c8.635 0 15.623-6.988 15.623-15.625v-56.08l102.913 102.913 22.095-22.095zm-156.253-40.363h-39.545l-73.433-88.134c-2.975-3.555-7.368-5.615-12.007-5.615l-62.523.031.004-165.485 187.503 187.503c.001-.001.001 71.7.001 71.7z" fill="#ffffff" data-original="#000000" style=""/></g></svg>
