<svg width="17" height="17" viewBox="0 0 17 17" fill="none" xmlns="http://www.w3.org/2000/svg">
<path d="M3.19669 3.19669C4.61324 1.78014 6.49671 1 8.5 1C10.5034 1 12.3868 1.78014 13.8033 3.19669C15.2199 4.61324 16 6.4966 16 8.5C16 10.5033 15.2199 12.3868 13.8033 13.8033C12.3868 15.2199 10.5034 16 8.5 16C6.49671 16 4.61324 15.2199 3.19669 13.8033C1.78014 12.3868 1 10.5033 1 8.5C1 6.4966 1.78014 4.61324 3.19669 3.19669ZM12.24 13.9605C11.9264 12.1544 10.3613 10.8222 8.5 10.8222C6.63862 10.8222 5.07364 12.1544 4.75996 13.9605C5.82483 14.6922 7.1132 15.1211 8.5 15.1211C9.8868 15.1211 11.1752 14.6922 12.24 13.9605ZM10.8847 7.55861C10.8847 6.24357 9.81493 5.17389 8.5 5.17389C7.18507 5.17389 6.11528 6.24368 6.11528 7.55861C6.11528 8.87354 7.18507 9.94333 8.5 9.94333C9.81493 9.94333 10.8847 8.87354 10.8847 7.55861ZM3.9987 13.3509C4.23524 12.5101 4.70502 11.7473 5.36352 11.1514C5.76749 10.7857 6.22732 10.4972 6.7217 10.2939C5.82815 9.71101 5.23626 8.70267 5.23626 7.55861C5.23626 5.75903 6.70042 4.29498 8.5 4.29498C10.2996 4.29498 11.7636 5.75903 11.7636 7.55861C11.7636 8.70267 11.1717 9.71101 10.2783 10.2939C10.7726 10.4972 11.2325 10.7856 11.6365 11.1513C12.2949 11.7471 12.7648 12.51 13.0013 13.3508C14.3042 12.1408 15.1211 10.4141 15.1211 8.5C15.1211 4.84911 12.1509 1.87891 8.5 1.87891C4.84911 1.87891 1.87891 4.84911 1.87891 8.5C1.87891 10.4143 2.69579 12.1409 3.9987 13.3509Z" fill="black" stroke="black" stroke-width="0.25"/>
</svg>
