<svg width="15" height="15" viewBox="0 0 15 15" fill="none" xmlns="http://www.w3.org/2000/svg">
<g clip-path="url(#clip0)">
<path d="M12.4792 2.60828C11.3341 0.950957 9.51922 0.000244141 7.50035 0.000244141C5.48147 0.000244141 3.66662 0.950957 2.52149 2.60828C1.38199 4.25723 1.11887 6.34483 1.81625 8.18922C2.00279 8.69289 2.2993 9.18224 2.69545 9.64079L7.10106 14.8156C7.2007 14.9327 7.34668 15.0002 7.50035 15.0002C7.65401 15.0002 7.79999 14.9328 7.89963 14.8156L12.304 9.6422C12.7019 9.18101 12.9981 8.69219 13.183 8.19256C13.8818 6.34483 13.6187 4.25723 12.4792 2.60828ZM12.2009 7.82523C12.0582 8.21072 11.8254 8.59185 11.5091 8.95844C11.5082 8.95932 11.5073 8.96019 11.5066 8.96125L7.50035 13.6669L3.4916 8.95829C3.17551 8.59202 2.94263 8.21093 2.79858 7.82175C2.22184 6.29641 2.44072 4.57035 3.38425 3.2048C4.33075 1.83487 5.8311 1.04919 7.50035 1.04919C9.16957 1.04919 10.6697 1.83484 11.6163 3.2048C12.56 4.57035 12.779 6.29641 12.2009 7.82523Z" fill="black"/>
<path d="M7.50006 3.11206C5.88065 3.11206 4.56299 4.42954 4.56299 6.04913C4.56299 7.66872 5.88047 8.9862 7.50006 8.9862C9.11965 8.9862 10.4371 7.66872 10.4371 6.04913C10.4371 4.42972 9.11947 3.11206 7.50006 3.11206ZM7.50006 7.93723C6.45897 7.93723 5.61193 7.0902 5.61193 6.0491C5.61193 5.00801 6.45897 4.16098 7.50006 4.16098C8.54115 4.16098 9.38819 5.00801 9.38819 6.0491C9.38819 7.0902 8.54115 7.93723 7.50006 7.93723Z" fill="black"/>
</g>
<defs>
<clipPath id="clip0">
<rect width="15" height="15" fill="white"/>
</clipPath>
</defs>
</svg>
