<svg width="66" height="35" viewBox="0 0 66 35" fill="none" xmlns="http://www.w3.org/2000/svg">
<g opacity="0.3" clip-path="url(#clip0)">
<path d="M15.2342 4.13761C15.1485 4.15066 15.0562 4.17024 14.9574 4.20287C14.9178 4.21592 14.8849 4.22898 14.8453 4.24855C12.1689 5.0317 9.70347 6.48051 7.78517 8.52321C7.30395 9.03878 6.86887 9.58698 6.49313 10.1678C5.49113 11.4404 4.6737 12.8501 4.11997 14.3837C2.16871 19.7679 5.05605 25.3869 9.24202 28.8262C13.784 32.5527 20.119 32.8072 24.595 28.8784C28.2075 25.7067 29.3545 20.1464 26.5924 16.1132C26.1903 15.2583 25.6431 14.4751 24.9378 13.8225C22.1032 11.199 16.7636 11.7798 15.3397 15.565C14.8123 16.9616 15.0431 18.8281 16.289 19.7744C17.5876 20.7598 20.2904 19.9049 19.8553 18.0123C19.8421 17.947 19.8223 17.8818 19.8025 17.823C19.8157 17.4706 19.7432 17.1117 19.5784 16.7593C19.3477 16.2568 18.8994 15.8065 18.3852 15.578C18.6226 15.3431 18.9192 15.1538 19.2686 15.0037C20.6529 14.4294 21.9318 14.8863 23.1316 15.6563C23.6655 16.0022 24.127 16.4199 24.5093 16.8963C25.2147 18.3321 25.3861 20.1464 25.063 21.7061C24.628 23.801 23.237 25.6936 21.4044 26.8096C19.44 28.0104 17.0339 27.9582 14.898 27.3056C10.5473 25.9743 7.00071 21.8301 6.70407 17.314C6.55245 15.0103 7.24462 12.9415 8.46416 11.2055C8.79376 10.8139 9.14314 10.4354 9.49252 10.0764C11.2658 8.27522 13.1709 7.17229 15.5441 6.29125C16.3747 6.04326 17.2316 5.86705 18.082 5.77568C25.1883 5.01212 31.5299 9.97203 37.1331 13.5745C39.7107 15.5062 41.9981 17.7904 44.5558 19.7548C46.0061 20.8708 47.5025 21.915 49.0582 22.8678C49.1307 22.9722 49.2296 23.0701 49.3549 23.155C52.3543 25.2107 56.1777 27.286 59.955 26.529C63.6136 25.7915 66.2504 22.0977 65.9867 18.4757C65.7428 15.1538 62.3215 10.9053 58.6431 12.576C56.9556 13.3461 55.3405 17.2096 56.7248 18.6519C57.0149 19.1283 57.45 19.5133 58.0367 19.7352C58.8343 20.0354 59.889 20.0028 60.1593 19.0304C60.4098 18.1167 59.599 17.4772 58.7882 17.2814C58.7025 17.2096 58.6102 17.1508 58.4981 17.1117C58.4849 17.0073 58.4651 16.9094 58.4651 16.8441C58.4717 16.2372 58.9661 15.5389 59.6056 15.4932C60.9899 15.3822 62.2754 16.9877 62.8357 18.0319C63.6465 19.5525 62.5654 21.4255 61.4514 22.4697C60.4362 23.4291 58.9727 23.8272 57.6016 23.8859C55.9404 23.9577 54.4967 23.3573 53.0465 22.6329C51.1941 21.7127 49.4406 20.6032 47.7464 19.4285C44.4306 17.1182 41.596 14.2532 38.3791 11.8255C38.3329 11.7863 38.2868 11.7472 38.234 11.7145C38.1879 11.6819 38.1483 11.6558 38.1022 11.6297C33.3691 8.57542 28.6162 5.14264 23.0063 3.92877C20.4486 3.37404 17.759 3.46541 15.2342 4.13761Z" fill="url(#paint0_linear)"/>
<path d="M48.1553 25.8177C48.1553 25.2303 47.6609 24.7343 47.0676 24.7343C46.4084 24.7408 45.9074 25.2303 45.9008 25.8894C45.8942 26.4768 46.4018 26.9728 46.9951 26.9728C47.3115 26.9728 47.5949 26.8292 47.7993 26.6139C48.0102 26.4115 48.1553 26.1309 48.1553 25.8177Z" fill="url(#paint1_linear)"/>
<path d="M44.2263 22.2152C44.2263 20.8251 42.0443 20.8251 42.0443 22.2152C42.0443 23.6118 44.2263 23.6118 44.2263 22.2152Z" fill="url(#paint2_linear)"/>
<path d="M38.6229 17.0334C38.0296 17.0269 37.5286 17.5294 37.5286 18.1167C37.5286 18.43 37.6737 18.7106 37.8912 18.9129C38.089 19.1283 38.3724 19.2719 38.6954 19.2719C39.2887 19.2719 39.7897 18.7824 39.7831 18.1951C39.7831 17.5294 39.2821 17.0334 38.6229 17.0334Z" fill="url(#paint3_linear)"/>
<path d="M33.5338 15.4475C33.5338 16.8376 35.7158 16.8376 35.7158 15.4475C35.7158 14.0509 33.5338 14.0509 33.5338 15.4475Z" fill="url(#paint4_linear)"/>
<path d="M30.185 13.3592C30.7783 13.3592 31.2793 12.8697 31.2793 12.2823C31.2793 12.2562 31.2793 12.2367 31.2793 12.2105C31.2793 11.6232 30.7849 11.1272 30.185 11.1272C29.5917 11.1272 29.0907 11.6167 29.0907 12.2105C29.0907 12.2367 29.0907 12.2562 29.0907 12.2823C29.0973 12.8697 29.5917 13.3592 30.185 13.3592Z" fill="url(#paint5_linear)"/>
<path d="M26.7705 10.0438C26.7705 8.65376 24.5885 8.65376 24.5885 10.0438C24.5885 11.4404 26.7705 11.4404 26.7705 10.0438Z" fill="url(#paint6_linear)"/>
<path d="M20.3693 10.1156C20.3957 10.1156 20.4155 10.1156 20.4419 10.1156C21.0351 10.1156 21.5295 9.62615 21.5295 9.03226C21.5295 8.4449 21.0351 7.94891 20.4419 7.94891C20.4155 7.94891 20.3957 7.94891 20.3693 7.94891C19.7761 7.94891 19.2816 8.43838 19.2816 9.03226C19.2751 9.62615 19.7761 10.1156 20.3693 10.1156Z" fill="url(#paint7_linear)"/>
<path d="M14.3312 9.61312C14.3312 11.0032 16.5132 11.0032 16.5132 9.61312C16.5132 8.22304 14.3312 8.22304 14.3312 9.61312Z" fill="url(#paint8_linear)"/>
<path d="M9.45962 12.8567C9.45962 14.2467 11.6416 14.2467 11.6416 12.8567C11.6416 11.4601 9.45962 11.4601 9.45962 12.8567Z" fill="url(#paint9_linear)"/>
<path d="M9.09047 18.3256C9.09047 18.913 9.58488 19.4089 10.1848 19.4089C10.2111 19.4089 10.2309 19.4089 10.2573 19.4089C10.8506 19.4089 11.3516 18.9195 11.3516 18.3256C11.3516 17.7382 10.8572 17.2422 10.2573 17.2422C10.2309 17.2422 10.2111 17.2422 10.1848 17.2422C9.59147 17.2488 9.09047 17.7382 9.09047 18.3256Z" fill="url(#paint10_linear)"/>
<path d="M10.9098 22.2152C10.9098 23.6052 13.0918 23.6052 13.0918 22.2152C13.0918 20.8251 10.9098 20.8251 10.9098 22.2152Z" fill="url(#paint11_linear)"/>
<path d="M15.4913 24.6625C15.4913 26.0526 17.6733 26.0526 17.6733 24.6625C17.6799 23.2724 15.4913 23.2724 15.4913 24.6625Z" fill="url(#paint12_linear)"/>
<path d="M22.2615 23.5139C22.2615 22.1239 20.0795 22.1239 20.0795 23.5139C20.0795 24.904 22.2615 24.904 22.2615 23.5139Z" fill="url(#paint13_linear)"/>
<path d="M23.7842 19.1936C23.7842 18.6062 23.2898 18.1102 22.6965 18.1102C22.6701 18.1102 22.6503 18.1102 22.624 18.1102C22.0307 18.1102 21.5297 18.5997 21.5297 19.1936C21.5297 19.7809 22.0241 20.2769 22.624 20.2769C22.6503 20.2769 22.6701 20.2769 22.6965 20.2769C23.2898 20.2704 23.7842 19.7809 23.7842 19.1936Z" fill="url(#paint14_linear)"/>
<path d="M56.3029 21.8563C56.3029 22.4436 56.7973 22.9396 57.3972 22.9396C57.9905 22.9396 58.4849 22.4501 58.4849 21.8563C58.4849 21.8106 58.4849 21.7584 58.4849 21.7127C58.4849 21.1253 57.9905 20.6293 57.3972 20.6293C56.8039 20.6293 56.3029 21.1188 56.3029 21.7127C56.3029 21.7584 56.3029 21.8106 56.3029 21.8563Z" fill="url(#paint15_linear)"/>
<path d="M53.6067 19.1218C53.6067 17.7317 51.4247 17.7317 51.4247 19.1218C51.4247 20.5119 53.6067 20.5119 53.6067 19.1218Z" fill="url(#paint16_linear)"/>
<path d="M46.6981 16.1654C46.6981 16.7528 47.1926 17.2422 47.7858 17.2422C48.3791 17.2422 48.8801 16.7528 48.8801 16.1654C48.8801 16.1197 48.8801 16.0675 48.8801 16.0218C48.8801 15.4345 48.3857 14.9385 47.7858 14.9385C47.1926 14.9385 46.6981 15.4279 46.6981 16.0218C46.6981 16.074 46.6981 16.1197 46.6981 16.1654Z" fill="url(#paint17_linear)"/>
<path d="M42.3344 12.204C42.3344 13.5941 44.5164 13.5941 44.5164 12.204C44.5164 10.8139 42.3344 10.8139 42.3344 12.204Z" fill="url(#paint18_linear)"/>
<path d="M39.9348 8.60805C39.9348 7.21797 37.7528 7.21797 37.7528 8.60805C37.7528 9.99813 39.9348 9.99813 39.9348 8.60805Z" fill="url(#paint19_linear)"/>
<path d="M33.6789 6.30433C33.7053 6.30433 33.725 6.30433 33.7514 6.30433C34.3447 6.30433 34.8457 5.81487 34.8457 5.22098C34.8457 4.63363 34.3513 4.13763 33.7514 4.13763C33.725 4.13763 33.7053 4.13763 33.6789 4.13763C33.0856 4.13763 32.5846 4.6271 32.5846 5.22098C32.5912 5.80834 33.0856 6.30433 33.6789 6.30433Z" fill="url(#paint20_linear)"/>
<path d="M28.6294 3.68079C28.6557 3.65469 28.6755 3.63511 28.7019 3.609C29.1238 3.19133 29.1238 2.49955 28.7019 2.08187C28.28 1.6642 27.5812 1.6642 27.1593 2.08187C27.133 2.10798 27.1132 2.12756 27.0868 2.15366C26.6649 2.57134 26.6649 3.26311 27.0868 3.68079C27.5087 4.09847 28.2141 4.09847 28.6294 3.68079Z" fill="url(#paint21_linear)"/>
<path d="M23.2766 1.04421C23.2766 -0.345872 21.0946 -0.345872 21.0946 1.04421C21.0946 2.44081 23.2766 2.44081 23.2766 1.04421Z" fill="url(#paint22_linear)"/>
<path d="M16.9482 1.54671C16.9482 0.15663 14.7663 0.15663 14.7663 1.54671C14.7663 2.94332 16.9482 2.94332 16.9482 1.54671Z" fill="url(#paint23_linear)"/>
<path d="M11.2725 3.49154C11.2725 2.10145 9.09047 2.10145 9.09047 3.49153C9.09047 4.88814 11.2725 4.88814 11.2725 3.49154Z" fill="url(#paint24_linear)"/>
<path d="M4.58145 6.95041C4.58145 8.34049 6.76343 8.34049 6.76343 6.95041C6.76343 5.5538 4.58145 5.5538 4.58145 6.95041Z" fill="url(#paint25_linear)"/>
<path d="M1.5292 11.9886C1.5292 12.0147 1.5292 12.0343 1.5292 12.0604C1.5292 12.6478 2.02361 13.1372 2.61689 13.1372C3.21018 13.1372 3.71118 12.6478 3.71118 12.0604C3.71118 12.0343 3.71118 12.0147 3.71118 11.9886C3.71118 11.4013 3.21677 10.9053 2.61689 10.9053C2.02361 10.9118 1.5292 11.4013 1.5292 11.9886Z" fill="url(#paint26_linear)"/>
<path d="M2.18188 17.3205C2.18188 15.9304 -9.91669e-05 15.9304 -9.92277e-05 17.3205C-9.92885e-05 18.7106 2.18188 18.7106 2.18188 17.3205Z" fill="url(#paint27_linear)"/>
<path d="M1.38418 23.5139C1.38418 24.904 3.56616 24.904 3.56616 23.5139C3.56616 22.1173 1.38418 22.1173 1.38418 23.5139Z" fill="url(#paint28_linear)"/>
<path d="M3.4938 28.4086C3.4938 29.7987 5.67578 29.7987 5.67578 28.4086C5.67578 27.0185 3.4938 27.0185 3.4938 28.4086Z" fill="url(#paint29_linear)"/>
<path d="M9.82202 31.5085C9.82202 31.4824 9.82202 31.4628 9.82202 31.4367C9.82202 30.8493 9.32762 30.3533 8.72774 30.3533C8.13445 30.3533 7.64005 30.8428 7.64005 31.4367C7.64005 31.4628 7.64005 31.4824 7.64005 31.5085C7.64005 32.0958 8.13445 32.5853 8.72774 32.5853C9.32762 32.5853 9.82202 32.0958 9.82202 31.5085Z" fill="url(#paint30_linear)"/>
<path d="M13.0194 33.8841C13.0194 35.2741 15.2014 35.2741 15.2014 33.8841C15.2014 32.4875 13.0194 32.4875 13.0194 33.8841Z" fill="url(#paint31_linear)"/>
<path d="M19.5651 33.9558C19.5651 35.3459 21.7471 35.3459 21.7471 33.9558C21.7471 32.5592 19.5651 32.5592 19.5651 33.9558Z" fill="url(#paint32_linear)"/>
<path d="M25.0961 31.4367C25.0961 31.4628 25.0961 31.4824 25.0961 31.5085C25.0961 32.0958 25.5905 32.5853 26.1904 32.5853C26.7837 32.5853 27.2847 32.0958 27.2847 31.5085C27.2847 31.4824 27.2847 31.4628 27.2847 31.4367C27.2847 30.8493 26.7903 30.3533 26.1904 30.3533C25.5905 30.3533 25.0961 30.8428 25.0961 31.4367Z" fill="url(#paint33_linear)"/>
<path d="M29.4599 26.3202C28.8666 26.3202 28.3722 26.8097 28.3722 27.4035C28.3722 27.4296 28.3722 27.4492 28.3722 27.4753C28.3722 28.0627 28.8666 28.5587 29.4599 28.5587C30.0532 28.5587 30.5542 28.0692 30.5542 27.4753C30.5542 27.4492 30.5542 27.4296 30.5542 27.4035C30.5542 26.8097 30.0532 26.3202 29.4599 26.3202Z" fill="url(#paint34_linear)"/>
<path d="M29.8227 20.9948C29.8227 22.3849 32.0046 22.3849 32.0046 20.9948C32.0046 19.6047 29.8227 19.5982 29.8227 20.9948Z" fill="url(#paint35_linear)"/>
</g>
<defs>
<linearGradient id="paint0_linear" x1="51.1021" y1="1.2717" x2="16.554" y2="36.1686" gradientUnits="userSpaceOnUse">
<stop stop-color="#BC945C"/>
<stop offset="0.2784" stop-color="#966F40"/>
<stop offset="0.4243" stop-color="#C79B61"/>
<stop offset="0.5578" stop-color="#EEBD7B"/>
<stop offset="0.6275" stop-color="#FDCA85"/>
<stop offset="0.7092" stop-color="#ECBB79"/>
<stop offset="0.8713" stop-color="#BE935B"/>
<stop offset="1" stop-color="#966F40"/>
</linearGradient>
<linearGradient id="paint1_linear" x1="47.8192" y1="25.0431" x2="46.2251" y2="26.6532" gradientUnits="userSpaceOnUse">
<stop stop-color="#BC945C"/>
<stop offset="0.2784" stop-color="#966F40"/>
<stop offset="0.4243" stop-color="#C79B61"/>
<stop offset="0.5578" stop-color="#EEBD7B"/>
<stop offset="0.6275" stop-color="#FDCA85"/>
<stop offset="0.7092" stop-color="#ECBB79"/>
<stop offset="0.8713" stop-color="#BE935B"/>
<stop offset="1" stop-color="#966F40"/>
</linearGradient>
<linearGradient id="paint2_linear" x1="43.9081" y1="21.4511" x2="42.378" y2="22.9966" gradientUnits="userSpaceOnUse">
<stop stop-color="#BC945C"/>
<stop offset="0.2784" stop-color="#966F40"/>
<stop offset="0.4243" stop-color="#C79B61"/>
<stop offset="0.5578" stop-color="#EEBD7B"/>
<stop offset="0.6275" stop-color="#FDCA85"/>
<stop offset="0.7092" stop-color="#ECBB79"/>
<stop offset="0.8713" stop-color="#BE935B"/>
<stop offset="1" stop-color="#966F40"/>
</linearGradient>
<linearGradient id="paint3_linear" x1="39.4531" y1="17.364" x2="37.9115" y2="18.9212" gradientUnits="userSpaceOnUse">
<stop stop-color="#BC945C"/>
<stop offset="0.2784" stop-color="#966F40"/>
<stop offset="0.4243" stop-color="#C79B61"/>
<stop offset="0.5578" stop-color="#EEBD7B"/>
<stop offset="0.6275" stop-color="#FDCA85"/>
<stop offset="0.7092" stop-color="#ECBB79"/>
<stop offset="0.8713" stop-color="#BE935B"/>
<stop offset="1" stop-color="#966F40"/>
</linearGradient>
<linearGradient id="paint4_linear" x1="35.3974" y1="14.6821" x2="33.8674" y2="16.2277" gradientUnits="userSpaceOnUse">
<stop stop-color="#BC945C"/>
<stop offset="0.2784" stop-color="#966F40"/>
<stop offset="0.4243" stop-color="#C79B61"/>
<stop offset="0.5578" stop-color="#EEBD7B"/>
<stop offset="0.6275" stop-color="#FDCA85"/>
<stop offset="0.7092" stop-color="#ECBB79"/>
<stop offset="0.8713" stop-color="#BE935B"/>
<stop offset="1" stop-color="#966F40"/>
</linearGradient>
<linearGradient id="paint5_linear" x1="30.9743" y1="11.4637" x2="29.4166" y2="13.0372" gradientUnits="userSpaceOnUse">
<stop stop-color="#BC945C"/>
<stop offset="0.2784" stop-color="#966F40"/>
<stop offset="0.4243" stop-color="#C79B61"/>
<stop offset="0.5578" stop-color="#EEBD7B"/>
<stop offset="0.6275" stop-color="#FDCA85"/>
<stop offset="0.7092" stop-color="#ECBB79"/>
<stop offset="0.8713" stop-color="#BE935B"/>
<stop offset="1" stop-color="#966F40"/>
</linearGradient>
<linearGradient id="paint6_linear" x1="26.4508" y1="9.28113" x2="24.9207" y2="10.8266" gradientUnits="userSpaceOnUse">
<stop stop-color="#BC945C"/>
<stop offset="0.2784" stop-color="#966F40"/>
<stop offset="0.4243" stop-color="#C79B61"/>
<stop offset="0.5578" stop-color="#EEBD7B"/>
<stop offset="0.6275" stop-color="#FDCA85"/>
<stop offset="0.7092" stop-color="#ECBB79"/>
<stop offset="0.8713" stop-color="#BE935B"/>
<stop offset="1" stop-color="#966F40"/>
</linearGradient>
<linearGradient id="paint7_linear" x1="21.1909" y1="8.2593" x2="19.6332" y2="9.83268" gradientUnits="userSpaceOnUse">
<stop stop-color="#BC945C"/>
<stop offset="0.2784" stop-color="#966F40"/>
<stop offset="0.4243" stop-color="#C79B61"/>
<stop offset="0.5578" stop-color="#EEBD7B"/>
<stop offset="0.6275" stop-color="#FDCA85"/>
<stop offset="0.7092" stop-color="#ECBB79"/>
<stop offset="0.8713" stop-color="#BE935B"/>
<stop offset="1" stop-color="#966F40"/>
</linearGradient>
<linearGradient id="paint8_linear" x1="16.1946" y1="8.84903" x2="14.6645" y2="10.3945" gradientUnits="userSpaceOnUse">
<stop stop-color="#BC945C"/>
<stop offset="0.2784" stop-color="#966F40"/>
<stop offset="0.4243" stop-color="#C79B61"/>
<stop offset="0.5578" stop-color="#EEBD7B"/>
<stop offset="0.6275" stop-color="#FDCA85"/>
<stop offset="0.7092" stop-color="#ECBB79"/>
<stop offset="0.8713" stop-color="#BE935B"/>
<stop offset="1" stop-color="#966F40"/>
</linearGradient>
<linearGradient id="paint9_linear" x1="11.3211" y1="12.0896" x2="9.79104" y2="13.6351" gradientUnits="userSpaceOnUse">
<stop stop-color="#BC945C"/>
<stop offset="0.2784" stop-color="#966F40"/>
<stop offset="0.4243" stop-color="#C79B61"/>
<stop offset="0.5578" stop-color="#EEBD7B"/>
<stop offset="0.6275" stop-color="#FDCA85"/>
<stop offset="0.7092" stop-color="#ECBB79"/>
<stop offset="0.8713" stop-color="#BE935B"/>
<stop offset="1" stop-color="#966F40"/>
</linearGradient>
<linearGradient id="paint10_linear" x1="11.0077" y1="17.5487" x2="9.44999" y2="19.1222" gradientUnits="userSpaceOnUse">
<stop stop-color="#BC945C"/>
<stop offset="0.2784" stop-color="#966F40"/>
<stop offset="0.4243" stop-color="#C79B61"/>
<stop offset="0.5578" stop-color="#EEBD7B"/>
<stop offset="0.6275" stop-color="#FDCA85"/>
<stop offset="0.7092" stop-color="#ECBB79"/>
<stop offset="0.8713" stop-color="#BE935B"/>
<stop offset="1" stop-color="#966F40"/>
</linearGradient>
<linearGradient id="paint11_linear" x1="12.7758" y1="21.4511" x2="11.2457" y2="22.9966" gradientUnits="userSpaceOnUse">
<stop stop-color="#BC945C"/>
<stop offset="0.2784" stop-color="#966F40"/>
<stop offset="0.4243" stop-color="#C79B61"/>
<stop offset="0.5578" stop-color="#EEBD7B"/>
<stop offset="0.6275" stop-color="#FDCA85"/>
<stop offset="0.7092" stop-color="#ECBB79"/>
<stop offset="0.8713" stop-color="#BE935B"/>
<stop offset="1" stop-color="#966F40"/>
</linearGradient>
<linearGradient id="paint12_linear" x1="17.3584" y1="23.8996" x2="15.8284" y2="25.4451" gradientUnits="userSpaceOnUse">
<stop stop-color="#BC945C"/>
<stop offset="0.2784" stop-color="#966F40"/>
<stop offset="0.4243" stop-color="#C79B61"/>
<stop offset="0.5578" stop-color="#EEBD7B"/>
<stop offset="0.6275" stop-color="#FDCA85"/>
<stop offset="0.7092" stop-color="#ECBB79"/>
<stop offset="0.8713" stop-color="#BE935B"/>
<stop offset="1" stop-color="#966F40"/>
</linearGradient>
<linearGradient id="paint13_linear" x1="21.941" y1="22.7474" x2="20.4109" y2="24.2929" gradientUnits="userSpaceOnUse">
<stop stop-color="#BC945C"/>
<stop offset="0.2784" stop-color="#966F40"/>
<stop offset="0.4243" stop-color="#C79B61"/>
<stop offset="0.5578" stop-color="#EEBD7B"/>
<stop offset="0.6275" stop-color="#FDCA85"/>
<stop offset="0.7092" stop-color="#ECBB79"/>
<stop offset="0.8713" stop-color="#BE935B"/>
<stop offset="1" stop-color="#966F40"/>
</linearGradient>
<linearGradient id="paint14_linear" x1="23.446" y1="18.4128" x2="21.8882" y2="19.9864" gradientUnits="userSpaceOnUse">
<stop stop-color="#BC945C"/>
<stop offset="0.2784" stop-color="#966F40"/>
<stop offset="0.4243" stop-color="#C79B61"/>
<stop offset="0.5578" stop-color="#EEBD7B"/>
<stop offset="0.6275" stop-color="#FDCA85"/>
<stop offset="0.7092" stop-color="#ECBB79"/>
<stop offset="0.8713" stop-color="#BE935B"/>
<stop offset="1" stop-color="#966F40"/>
</linearGradient>
<linearGradient id="paint15_linear" x1="58.1968" y1="20.9872" x2="56.6031" y2="22.5971" gradientUnits="userSpaceOnUse">
<stop stop-color="#BC945C"/>
<stop offset="0.2784" stop-color="#966F40"/>
<stop offset="0.4243" stop-color="#C79B61"/>
<stop offset="0.5578" stop-color="#EEBD7B"/>
<stop offset="0.6275" stop-color="#FDCA85"/>
<stop offset="0.7092" stop-color="#ECBB79"/>
<stop offset="0.8713" stop-color="#BE935B"/>
<stop offset="1" stop-color="#966F40"/>
</linearGradient>
<linearGradient id="paint16_linear" x1="53.2912" y1="18.3547" x2="51.7612" y2="19.9001" gradientUnits="userSpaceOnUse">
<stop stop-color="#BC945C"/>
<stop offset="0.2784" stop-color="#966F40"/>
<stop offset="0.4243" stop-color="#C79B61"/>
<stop offset="0.5578" stop-color="#EEBD7B"/>
<stop offset="0.6275" stop-color="#FDCA85"/>
<stop offset="0.7092" stop-color="#ECBB79"/>
<stop offset="0.8713" stop-color="#BE935B"/>
<stop offset="1" stop-color="#966F40"/>
</linearGradient>
<linearGradient id="paint17_linear" x1="48.5953" y1="15.2984" x2="47.0015" y2="16.9082" gradientUnits="userSpaceOnUse">
<stop stop-color="#BC945C"/>
<stop offset="0.2784" stop-color="#966F40"/>
<stop offset="0.4243" stop-color="#C79B61"/>
<stop offset="0.5578" stop-color="#EEBD7B"/>
<stop offset="0.6275" stop-color="#FDCA85"/>
<stop offset="0.7092" stop-color="#ECBB79"/>
<stop offset="0.8713" stop-color="#BE935B"/>
<stop offset="1" stop-color="#966F40"/>
</linearGradient>
<linearGradient id="paint18_linear" x1="44.199" y1="11.4416" x2="42.669" y2="12.987" gradientUnits="userSpaceOnUse">
<stop stop-color="#BC945C"/>
<stop offset="0.2784" stop-color="#966F40"/>
<stop offset="0.4243" stop-color="#C79B61"/>
<stop offset="0.5578" stop-color="#EEBD7B"/>
<stop offset="0.6275" stop-color="#FDCA85"/>
<stop offset="0.7092" stop-color="#ECBB79"/>
<stop offset="0.8713" stop-color="#BE935B"/>
<stop offset="1" stop-color="#966F40"/>
</linearGradient>
<linearGradient id="paint19_linear" x1="39.6164" y1="7.84103" x2="38.0863" y2="9.38646" gradientUnits="userSpaceOnUse">
<stop stop-color="#BC945C"/>
<stop offset="0.2784" stop-color="#966F40"/>
<stop offset="0.4243" stop-color="#C79B61"/>
<stop offset="0.5578" stop-color="#EEBD7B"/>
<stop offset="0.6275" stop-color="#FDCA85"/>
<stop offset="0.7092" stop-color="#ECBB79"/>
<stop offset="0.8713" stop-color="#BE935B"/>
<stop offset="1" stop-color="#966F40"/>
</linearGradient>
<linearGradient id="paint20_linear" x1="34.5023" y1="4.4426" x2="32.9445" y2="6.01606" gradientUnits="userSpaceOnUse">
<stop stop-color="#BC945C"/>
<stop offset="0.2784" stop-color="#966F40"/>
<stop offset="0.4243" stop-color="#C79B61"/>
<stop offset="0.5578" stop-color="#EEBD7B"/>
<stop offset="0.6275" stop-color="#FDCA85"/>
<stop offset="0.7092" stop-color="#ECBB79"/>
<stop offset="0.8713" stop-color="#BE935B"/>
<stop offset="1" stop-color="#966F40"/>
</linearGradient>
<linearGradient id="paint21_linear" x1="28.7043" y1="2.08135" x2="27.1047" y2="3.69705" gradientUnits="userSpaceOnUse">
<stop stop-color="#BC945C"/>
<stop offset="0.2784" stop-color="#966F40"/>
<stop offset="0.4243" stop-color="#C79B61"/>
<stop offset="0.5578" stop-color="#EEBD7B"/>
<stop offset="0.6275" stop-color="#FDCA85"/>
<stop offset="0.7092" stop-color="#ECBB79"/>
<stop offset="0.8713" stop-color="#BE935B"/>
<stop offset="1" stop-color="#966F40"/>
</linearGradient>
<linearGradient id="paint22_linear" x1="22.9593" y1="0.279794" x2="21.4292" y2="1.8253" gradientUnits="userSpaceOnUse">
<stop stop-color="#BC945C"/>
<stop offset="0.2784" stop-color="#966F40"/>
<stop offset="0.4243" stop-color="#C79B61"/>
<stop offset="0.5578" stop-color="#EEBD7B"/>
<stop offset="0.6275" stop-color="#FDCA85"/>
<stop offset="0.7092" stop-color="#ECBB79"/>
<stop offset="0.8713" stop-color="#BE935B"/>
<stop offset="1" stop-color="#966F40"/>
</linearGradient>
<linearGradient id="paint23_linear" x1="16.631" y1="0.783863" x2="15.101" y2="2.32936" gradientUnits="userSpaceOnUse">
<stop stop-color="#BC945C"/>
<stop offset="0.2784" stop-color="#966F40"/>
<stop offset="0.4243" stop-color="#C79B61"/>
<stop offset="0.5578" stop-color="#EEBD7B"/>
<stop offset="0.6275" stop-color="#FDCA85"/>
<stop offset="0.7092" stop-color="#ECBB79"/>
<stop offset="0.8713" stop-color="#BE935B"/>
<stop offset="1" stop-color="#966F40"/>
</linearGradient>
<linearGradient id="paint24_linear" x1="10.9574" y1="2.72817" x2="9.42737" y2="4.27367" gradientUnits="userSpaceOnUse">
<stop stop-color="#BC945C"/>
<stop offset="0.2784" stop-color="#966F40"/>
<stop offset="0.4243" stop-color="#C79B61"/>
<stop offset="0.5578" stop-color="#EEBD7B"/>
<stop offset="0.6275" stop-color="#FDCA85"/>
<stop offset="0.7092" stop-color="#ECBB79"/>
<stop offset="0.8713" stop-color="#BE935B"/>
<stop offset="1" stop-color="#966F40"/>
</linearGradient>
<linearGradient id="paint25_linear" x1="6.44754" y1="6.18469" x2="4.91748" y2="7.73019" gradientUnits="userSpaceOnUse">
<stop stop-color="#BC945C"/>
<stop offset="0.2784" stop-color="#966F40"/>
<stop offset="0.4243" stop-color="#C79B61"/>
<stop offset="0.5578" stop-color="#EEBD7B"/>
<stop offset="0.6275" stop-color="#FDCA85"/>
<stop offset="0.7092" stop-color="#ECBB79"/>
<stop offset="0.8713" stop-color="#BE935B"/>
<stop offset="1" stop-color="#966F40"/>
</linearGradient>
<linearGradient id="paint26_linear" x1="3.40643" y1="11.2476" x2="1.8487" y2="12.8211" gradientUnits="userSpaceOnUse">
<stop stop-color="#BC945C"/>
<stop offset="0.2784" stop-color="#966F40"/>
<stop offset="0.4243" stop-color="#C79B61"/>
<stop offset="0.5578" stop-color="#EEBD7B"/>
<stop offset="0.6275" stop-color="#FDCA85"/>
<stop offset="0.7092" stop-color="#ECBB79"/>
<stop offset="0.8713" stop-color="#BE935B"/>
<stop offset="1" stop-color="#966F40"/>
</linearGradient>
<linearGradient id="paint27_linear" x1="1.86507" y1="16.5544" x2="0.335013" y2="18.0999" gradientUnits="userSpaceOnUse">
<stop stop-color="#BC945C"/>
<stop offset="0.2784" stop-color="#966F40"/>
<stop offset="0.4243" stop-color="#C79B61"/>
<stop offset="0.5578" stop-color="#EEBD7B"/>
<stop offset="0.6275" stop-color="#FDCA85"/>
<stop offset="0.7092" stop-color="#ECBB79"/>
<stop offset="0.8713" stop-color="#BE935B"/>
<stop offset="1" stop-color="#966F40"/>
</linearGradient>
<linearGradient id="paint28_linear" x1="3.24697" y1="22.7474" x2="1.71692" y2="24.2929" gradientUnits="userSpaceOnUse">
<stop stop-color="#BC945C"/>
<stop offset="0.2784" stop-color="#966F40"/>
<stop offset="0.4243" stop-color="#C79B61"/>
<stop offset="0.5578" stop-color="#EEBD7B"/>
<stop offset="0.6275" stop-color="#FDCA85"/>
<stop offset="0.7092" stop-color="#ECBB79"/>
<stop offset="0.8713" stop-color="#BE935B"/>
<stop offset="1" stop-color="#966F40"/>
</linearGradient>
<linearGradient id="paint29_linear" x1="5.35653" y1="27.6442" x2="3.82647" y2="29.1897" gradientUnits="userSpaceOnUse">
<stop stop-color="#BC945C"/>
<stop offset="0.2784" stop-color="#966F40"/>
<stop offset="0.4243" stop-color="#C79B61"/>
<stop offset="0.5578" stop-color="#EEBD7B"/>
<stop offset="0.6275" stop-color="#FDCA85"/>
<stop offset="0.7092" stop-color="#ECBB79"/>
<stop offset="0.8713" stop-color="#BE935B"/>
<stop offset="1" stop-color="#966F40"/>
</linearGradient>
<linearGradient id="paint30_linear" x1="9.51648" y1="30.6908" x2="7.95876" y2="32.2642" gradientUnits="userSpaceOnUse">
<stop stop-color="#BC945C"/>
<stop offset="0.2784" stop-color="#966F40"/>
<stop offset="0.4243" stop-color="#C79B61"/>
<stop offset="0.5578" stop-color="#EEBD7B"/>
<stop offset="0.6275" stop-color="#FDCA85"/>
<stop offset="0.7092" stop-color="#ECBB79"/>
<stop offset="0.8713" stop-color="#BE935B"/>
<stop offset="1" stop-color="#966F40"/>
</linearGradient>
<linearGradient id="paint31_linear" x1="14.8854" y1="33.1171" x2="13.3553" y2="34.6626" gradientUnits="userSpaceOnUse">
<stop stop-color="#BC945C"/>
<stop offset="0.2784" stop-color="#966F40"/>
<stop offset="0.4243" stop-color="#C79B61"/>
<stop offset="0.5578" stop-color="#EEBD7B"/>
<stop offset="0.6275" stop-color="#FDCA85"/>
<stop offset="0.7092" stop-color="#ECBB79"/>
<stop offset="0.8713" stop-color="#BE935B"/>
<stop offset="1" stop-color="#966F40"/>
</linearGradient>
<linearGradient id="paint32_linear" x1="21.4316" y1="33.1891" x2="19.9016" y2="34.7346" gradientUnits="userSpaceOnUse">
<stop stop-color="#BC945C"/>
<stop offset="0.2784" stop-color="#966F40"/>
<stop offset="0.4243" stop-color="#C79B61"/>
<stop offset="0.5578" stop-color="#EEBD7B"/>
<stop offset="0.6275" stop-color="#FDCA85"/>
<stop offset="0.7092" stop-color="#ECBB79"/>
<stop offset="0.8713" stop-color="#BE935B"/>
<stop offset="1" stop-color="#966F40"/>
</linearGradient>
<linearGradient id="paint33_linear" x1="26.9739" y1="30.6908" x2="25.4163" y2="32.2643" gradientUnits="userSpaceOnUse">
<stop stop-color="#BC945C"/>
<stop offset="0.2784" stop-color="#966F40"/>
<stop offset="0.4243" stop-color="#C79B61"/>
<stop offset="0.5578" stop-color="#EEBD7B"/>
<stop offset="0.6275" stop-color="#FDCA85"/>
<stop offset="0.7092" stop-color="#ECBB79"/>
<stop offset="0.8713" stop-color="#BE935B"/>
<stop offset="1" stop-color="#966F40"/>
</linearGradient>
<linearGradient id="paint34_linear" x1="30.247" y1="26.6582" x2="28.6892" y2="28.2317" gradientUnits="userSpaceOnUse">
<stop stop-color="#BC945C"/>
<stop offset="0.2784" stop-color="#966F40"/>
<stop offset="0.4243" stop-color="#C79B61"/>
<stop offset="0.5578" stop-color="#EEBD7B"/>
<stop offset="0.6275" stop-color="#FDCA85"/>
<stop offset="0.7092" stop-color="#ECBB79"/>
<stop offset="0.8713" stop-color="#BE935B"/>
<stop offset="1" stop-color="#966F40"/>
</linearGradient>
<linearGradient id="paint35_linear" x1="31.688" y1="20.227" x2="30.1579" y2="21.7725" gradientUnits="userSpaceOnUse">
<stop stop-color="#BC945C"/>
<stop offset="0.2784" stop-color="#966F40"/>
<stop offset="0.4243" stop-color="#C79B61"/>
<stop offset="0.5578" stop-color="#EEBD7B"/>
<stop offset="0.6275" stop-color="#FDCA85"/>
<stop offset="0.7092" stop-color="#ECBB79"/>
<stop offset="0.8713" stop-color="#BE935B"/>
<stop offset="1" stop-color="#966F40"/>
</linearGradient>
<clipPath id="clip0">
<rect width="35" height="66" fill="white" transform="translate(66) rotate(90)"/>
</clipPath>
</defs>
</svg>
