<svg width="47" height="104" viewBox="0 0 47 104" fill="none" xmlns="http://www.w3.org/2000/svg">
<g opacity="0.3" clip-path="url(#clip0)">
<path d="M63.361 57.9806C60.5859 63.9081 53.8031 66.2883 47.6832 66.3301C41.5132 66.2625 35.5178 63.8117 32.3839 58.2624C29.7234 53.5585 30.1865 47.7708 32.6167 43.1077C35.3855 37.8162 41.0686 35.0996 46.8299 34.7599C53.1345 34.3876 58.9141 37.0652 62.479 42.2653C65.657 46.9183 65.6951 53.0162 63.361 57.9806ZM47.7474 41.3672C45.2389 41.3633 43.4493 41.778 41.2974 43.1381C41.3474 43.1115 40.8935 43.4328 40.8377 43.4785C40.6175 43.6517 40.4009 43.8469 40.1968 44.0354C39.9927 44.224 39.7953 44.425 39.5949 44.6356C39.5516 44.6747 39.3675 44.9007 39.2816 45.0104C38.9999 45.3843 38.7315 45.7833 38.4918 46.191C38.3488 46.4191 38.222 46.6627 38.0952 46.9063C38.071 46.9512 38.0498 46.9865 38.041 47.0152C38.0234 47.0725 37.9817 47.1748 37.9195 47.344C37.7233 47.8487 37.5654 48.3651 37.4361 48.8902C37.4018 49.0366 37.3646 49.1925 37.3398 49.3418C37.3624 49.2337 37.2773 49.7514 37.2642 49.8625C37.2077 50.389 37.1991 50.9301 37.2029 51.4646C37.2016 51.5374 37.2286 51.8594 37.2376 51.9667C37.2755 52.2188 37.3134 52.471 37.3638 52.7164C37.4439 53.1383 37.5681 53.5528 37.6953 53.9577C37.7255 54.0297 37.8607 54.3742 37.8909 54.4462C38.0319 54.7717 38.2074 55.0868 38.3829 55.4019C38.4758 55.5768 38.5937 55.7383 38.6991 55.9065C38.5701 55.6788 39.0874 56.3808 39.1721 56.4799C39.3577 56.6936 39.5492 56.8881 39.7503 57.0855C39.8541 57.1905 39.9609 57.2859 40.0676 57.3813C40.103 57.4025 40.1354 57.4334 40.1773 57.4671C40.6514 57.8317 41.1622 58.1448 41.6788 58.4388C41.7141 58.46 42.0886 58.6373 42.2071 58.6945C42.5426 58.8285 42.8906 58.9558 43.2319 59.0707C44.9415 59.6354 45.9966 59.7072 47.8921 59.7327C49.3691 59.7243 50.5393 59.5908 52.051 59.1956C52.9248 58.9714 52.827 58.9833 53.4838 58.6823C53.7747 58.5516 54.0524 58.396 54.3396 58.2434C54.427 58.1969 55.121 57.7399 55.0873 57.7819C55.5066 57.4709 55.8993 57.11 56.2634 56.7403C56.3096 56.6917 56.5775 56.3972 56.642 56.3228C56.7521 56.1682 56.8687 56.0262 56.9692 55.8687C57.2259 55.508 57.4473 55.126 57.6525 54.7287C57.5916 54.8251 57.8261 54.3321 57.8678 54.2298C58.0018 53.8943 58.1005 53.5376 58.1962 53.1904C58.243 53.0374 58.2736 52.869 58.3108 52.7131C58.2765 52.8594 58.383 52.3064 58.396 52.1953C58.4583 51.6497 58.4699 51.099 58.4594 50.552C58.4608 50.4792 58.4293 50.1036 58.4269 50.0088C58.4068 49.8353 58.3771 49.6589 58.3444 49.492C58.2368 48.8526 58.06 48.2338 57.8516 47.6159C57.845 47.6034 57.8479 47.5938 57.8413 47.5813C57.8214 47.5439 57.7911 47.4719 57.7409 47.3624C57.6302 47.1089 57.5004 46.8496 57.3772 46.6028C57.2445 46.353 57.1088 46.1128 56.9635 45.8697C56.937 45.8198 56.7564 45.5554 56.6871 45.4401C56.3894 45.0458 56.0572 44.6618 55.7162 44.3065C55.5409 44.1274 55.3627 43.9579 55.1749 43.7854C55.499 44.0937 54.6942 43.4083 54.5912 43.335C54.095 42.9741 53.5689 42.6772 53.0273 42.3965C52.9919 42.3753 52.9633 42.3665 52.9375 42.3482C52.8897 42.3335 52.8065 42.2976 52.6851 42.2501C52.3879 42.1278 52.0753 42.0217 51.7693 41.9281C50.2414 41.4189 49.5031 41.3709 47.7474 41.3672Z" fill="url(#paint0_linear)"/>
<path d="M53.437 50.9715C53.4426 53.8594 50.4151 57.0222 47.415 56.3346C46.4225 56.3657 45.4413 56.0865 44.5762 55.3931C43.1303 54.2398 42.2618 52.7715 42.1895 50.888C42.0688 47.693 44.9774 45.0899 48.1038 45.2619C51.1545 45.442 53.4283 47.9571 53.437 50.9715ZM46.2466 50.0689C46.259 50.0622 46.259 50.0622 46.2715 50.0556C46.284 50.0489 46.2965 50.0423 46.2965 50.0423C46.2811 50.0585 46.2686 50.0651 46.2466 50.0689Z" fill="url(#paint1_linear)"/>
<path d="M43.5844 21.0617C44.4654 21.6345 45.0059 22.6364 45.0474 23.6634C45.0577 23.698 45.0776 23.7354 45.088 23.77C46.3118 27.5638 39.7408 29.9356 37.1278 28.1534C35.3517 26.9513 35.2211 24.5062 35.5753 22.5963C36.0497 20.0538 37.489 18.1516 39.3594 16.4127C39.4798 16.2926 39.6105 16.2071 39.7354 16.1408C40.2389 15.6569 40.7587 15.1884 41.2946 14.7354C43.3231 12.9925 45.0985 11.1198 46.4997 8.8295C47.1742 7.7182 48.7383 7.90381 49.362 8.94163C50.639 11.0577 52.2874 12.8481 54.1311 14.4787C54.7974 15.0694 55.4476 15.6447 56.0603 16.24C56.2141 16.3184 56.362 16.4159 56.5012 16.5421C58.2309 18.1692 59.5241 19.9242 60.0978 22.2539C60.5813 24.2632 60.4275 26.8514 58.6159 28.1587C55.9408 30.1012 49.3974 27.4933 50.6688 23.6783C50.6747 23.6592 50.6805 23.6401 50.6864 23.6209C50.7068 23.0416 50.8947 22.4612 51.2827 21.9106C52.0896 20.777 53.6377 20.1943 54.9903 20.5244C55.1941 20.5762 55.3824 20.6443 55.5582 20.719C54.6108 19.1325 53.0781 17.9212 51.6909 16.7126C50.278 15.4857 49.0104 14.1255 47.8882 12.6319C46.8223 14.0314 45.6142 15.3141 44.3024 16.4919C42.7923 17.8391 41.2188 19.0519 40.1915 20.7351C41.1701 20.271 42.3817 20.2756 43.5844 21.0617Z" fill="url(#paint2_linear)"/>
<path d="M4.13274 66.3843C4.20467 61.9097 6.98069 57.4151 9.70858 54.0352C10.8869 52.576 12.2426 51.2548 13.5115 49.8756C13.6657 49.7136 13.8176 49.5928 13.9895 49.5094C18.9829 44.5009 24.6888 40.0345 26.8608 33.1382C27.503 31.1072 30.6711 32.0658 30.0261 34.1063C27.8561 40.9614 22.458 45.7207 17.4674 50.5836C16.7943 51.2457 16.1 51.9431 15.4064 52.6721C15.1386 52.9667 14.8582 53.2678 14.5749 53.5786C10.8823 57.7196 7.65365 62.8391 8.72981 68.4492C9.85052 74.324 16.7768 79.4751 22.7252 78.0109C28.4568 76.6059 27.3378 70.0415 24.9148 66.2364C23.7428 64.393 21.2912 61.9804 19.2754 63.8527C19.175 64.0102 19.0782 64.1898 19.0101 64.3781C18.7584 65.0645 18.9059 65.7789 19.2386 66.4349C19.6619 65.9055 20.3622 65.7014 21.0058 65.8878C22.8852 66.4104 23.8355 69.7651 23.0073 71.3104C22.3909 72.4709 20.6878 72.6715 19.5618 72.4212C18.2415 72.1219 17.2813 70.7825 16.6531 69.691C15.3494 67.389 14.8467 63.9726 16.6532 61.8272C16.8762 61.5084 17.1308 61.1889 17.4302 60.8936C20.0535 58.266 24.4146 58.6065 27.2478 60.592C30.1163 62.5987 31.6728 66.1597 32.0358 69.5543C32.4316 73.2518 31.3277 76.5533 28.8531 79.3101C26.2707 82.1803 22.2092 83.8347 18.3762 83.6139C14.388 83.3875 10.9021 80.5958 8.45916 77.6421C5.88799 74.4923 4.07047 70.4855 4.13274 66.3843Z" fill="url(#paint3_linear)"/>
</g>
<defs>
<linearGradient id="paint0_linear" x1="40.0557" y1="36.3094" x2="55.3742" y2="65.1277" gradientUnits="userSpaceOnUse">
<stop stop-color="#BC945C"/>
<stop offset="0.2784" stop-color="#966F40"/>
<stop offset="0.4243" stop-color="#C79B61"/>
<stop offset="0.5578" stop-color="#EEBD7B"/>
<stop offset="0.6275" stop-color="#FDCA85"/>
<stop offset="0.7092" stop-color="#ECBB79"/>
<stop offset="0.8713" stop-color="#BE935B"/>
<stop offset="1" stop-color="#966F40"/>
</linearGradient>
<linearGradient id="paint1_linear" x1="45.1989" y1="45.9192" x2="50.46" y2="55.8169" gradientUnits="userSpaceOnUse">
<stop stop-color="#BC945C"/>
<stop offset="0.2784" stop-color="#966F40"/>
<stop offset="0.4243" stop-color="#C79B61"/>
<stop offset="0.5578" stop-color="#EEBD7B"/>
<stop offset="0.6275" stop-color="#FDCA85"/>
<stop offset="0.7092" stop-color="#ECBB79"/>
<stop offset="0.8713" stop-color="#BE935B"/>
<stop offset="1" stop-color="#966F40"/>
</linearGradient>
<linearGradient id="paint2_linear" x1="41.2147" y1="11.4036" x2="52.0131" y2="31.7184" gradientUnits="userSpaceOnUse">
<stop stop-color="#BC945C"/>
<stop offset="0.2784" stop-color="#966F40"/>
<stop offset="0.4243" stop-color="#C79B61"/>
<stop offset="0.5578" stop-color="#EEBD7B"/>
<stop offset="0.6275" stop-color="#FDCA85"/>
<stop offset="0.7092" stop-color="#ECBB79"/>
<stop offset="0.8713" stop-color="#BE935B"/>
<stop offset="1" stop-color="#966F40"/>
</linearGradient>
<linearGradient id="paint3_linear" x1="11.3137" y1="40.8622" x2="31.4659" y2="78.7743" gradientUnits="userSpaceOnUse">
<stop stop-color="#BC945C"/>
<stop offset="0.2784" stop-color="#966F40"/>
<stop offset="0.4243" stop-color="#C79B61"/>
<stop offset="0.5578" stop-color="#EEBD7B"/>
<stop offset="0.6275" stop-color="#FDCA85"/>
<stop offset="0.7092" stop-color="#ECBB79"/>
<stop offset="0.8713" stop-color="#BE935B"/>
<stop offset="1" stop-color="#966F40"/>
</linearGradient>
<clipPath id="clip0">
<rect width="81.16" height="84.67" fill="white" transform="matrix(-0.29249 0.956269 0.956269 0.29249 23.7385 0.644043)"/>
</clipPath>
</defs>
</svg>
