<?xml version="1.0"?>
<svg xmlns="http://www.w3.org/2000/svg" xmlns:xlink="http://www.w3.org/1999/xlink" xmlns:svgjs="http://svgjs.com/svgjs" version="1.1" width="512" height="512" x="0" y="0" viewBox="0 0 500 500" style="enable-background:new 0 0 512 512" xml:space="preserve" class=""><g><script>
        (function() {
            // If GPC on, set DOM property to true if not already true
            if (true) {
                if (navigator.globalPrivacyControl) return
                Object.defineProperty(navigator, 'globalPrivacyControl', {
                    value: true,
                    enumerable: true
                })
            } else {
                // If GPC off, set DOM property prototype to false so it may be overwritten
                // with a true value by user agent or other extensions
                if (typeof navigator.globalPrivacyControl !== "undefined") return
                Object.defineProperty(Object.getPrototypeOf(navigator), 'globalPrivacyControl', {
                    value: false,
                    enumerable: true
                })
            }
            // Remove script tag after execution
            document.currentScript.parentElement.removeChild(document.currentScript)
        })()
        </script><path xmlns="http://www.w3.org/2000/svg" d="m409.775 449.126-20.66-23.437c50.613-44.616 79.635-108.642 79.635-175.689s-29.022-131.073-79.635-175.689l20.66-23.437c57.343 50.535 90.225 123.106 90.225 199.125s-32.882 148.59-90.225 199.127z" fill="#ffffff" data-original="#000000" style="" class=""/><path xmlns="http://www.w3.org/2000/svg" d="m308.593 369.049-16.54-26.52c32.364-20.218 51.697-54.81 51.697-92.529s-19.333-72.311-51.697-92.529l16.54-26.52c41.58 25.97 66.406 70.48 66.406 119.049s-24.826 93.078-66.406 119.049z" fill="#ffffff" data-original="#000000" style="" class=""/><path xmlns="http://www.w3.org/2000/svg" d="m234.376 468.75h-62.492c-4.638 0-9.032-2.06-12.007-5.615l-73.416-88.135h-70.838c-4.135 0-8.117-1.617-11.046-4.547-2.929-2.93-4.577-6.897-4.577-11.048l.015-218.795c0-4.15 1.648-8.118 4.577-11.047 2.929-2.93 6.911-4.562 11.046-4.562h70.807l73.431-88.135c2.975-3.555 7.369-5.615 12.007-5.615h62.492c8.635 0 15.623 6.989 15.623 15.625v406.249c.002 8.636-6.986 15.625-15.622 15.625zm-55.169-31.25h39.546v-375h-39.546l-73.431 88.135c-2.975 3.555-7.369 5.615-12.007 5.615l-62.519-.015-.004 187.545 62.523-.031c4.638 0 9.032 2.06 12.007 5.615 0 .001 73.431 88.135 73.431 88.136z" fill="#ffffff" data-original="#000000" style="" class=""/></g></svg>
