<svg width="40" height="40" viewBox="0 0 40 40" fill="none" xmlns="http://www.w3.org/2000/svg">
<path d="M27.2864 18.7811C26.9624 18.7811 26.6997 19.0439 26.6997 19.3678V20.0457C26.6997 20.3697 26.9624 20.6324 27.2864 20.6324C27.6104 20.6324 27.8731 20.3696 27.8731 20.0457V19.3678C27.8731 19.0438 27.6105 18.7811 27.2864 18.7811Z" fill="white"/>
<path d="M31.8626 18.7811C31.5386 18.7811 31.2759 19.0439 31.2759 19.3678V20.0457C31.2759 20.3696 31.5385 20.6324 31.8626 20.6324C32.1867 20.6324 32.4493 20.3696 32.4493 20.0457V19.3678C32.4493 19.0438 32.1866 18.7811 31.8626 18.7811Z" fill="white"/>
<path d="M31.1783 22.159C30.9153 21.9697 30.5487 22.0295 30.3594 22.2926C30.2441 22.4527 29.9567 22.6143 29.5745 22.6143C29.1923 22.6143 28.9049 22.4527 28.7897 22.2926C28.6004 22.0295 28.2337 21.9697 27.9707 22.159C27.7076 22.3483 27.6478 22.7149 27.8371 22.9779C28.202 23.485 28.8515 23.7878 29.5745 23.7878C30.2976 23.7878 30.947 23.485 31.3119 22.9779C31.5012 22.7149 31.4414 22.3483 31.1783 22.159Z" fill="white"/>
<path d="M8.51494 19.6694C8.19088 19.6694 7.92822 19.9322 7.92822 20.2562V20.9124C7.92822 21.2365 8.19096 21.4991 8.51494 21.4991C8.83893 21.4991 9.10166 21.2365 9.10166 20.9124V20.2562C9.10166 19.9321 8.83893 19.6694 8.51494 19.6694Z" fill="white"/>
<path d="M12.2936 22.9435C12.0306 22.7543 11.6639 22.8141 11.4747 23.0771C11.3659 23.2283 11.0935 23.3809 10.73 23.3809C10.3664 23.3809 10.094 23.2283 9.98519 23.0771C9.7959 22.8141 9.42918 22.7543 9.16621 22.9435C8.90316 23.1328 8.8434 23.4994 9.03262 23.7625C9.38941 24.2584 10.0239 24.5543 10.7299 24.5543C11.4359 24.5543 12.0704 24.2583 12.4272 23.7625C12.6164 23.4995 12.5567 23.1328 12.2936 22.9435Z" fill="white"/>
<path d="M23.084 31.5922C22.76 31.5922 22.4973 31.8549 22.4973 32.1789V33.3233C22.4973 33.6474 22.76 33.91 23.084 33.91C23.4081 33.91 23.6708 33.6473 23.6708 33.3233V32.1789C23.6708 31.8548 23.4081 31.5922 23.084 31.5922Z" fill="white"/>
<path d="M22.5537 1.02051C21.596 1.02051 20.6944 1.37012 19.9975 1.99691C19.3005 1.37012 18.399 1.02051 17.4413 1.02051C15.329 1.02051 13.6106 2.73895 13.6106 4.85121C13.6105 6.71082 14.6953 8.49934 16.7475 10.0234C18.2433 11.1343 19.7214 11.7187 19.7836 11.743C19.8523 11.7699 19.9248 11.7833 19.9974 11.7833C20.07 11.7833 20.1425 11.7699 20.2112 11.743C20.2734 11.7187 21.7515 11.1343 23.2473 10.0234C25.2996 8.49926 26.3844 6.71082 26.3844 4.85121C26.3844 2.73895 24.6659 1.02051 22.5537 1.02051ZM19.9973 10.5592C18.9904 10.1132 14.784 8.05777 14.784 4.85129C14.784 3.38605 15.976 2.19402 17.4412 2.19402C18.2641 2.19402 19.0274 2.56629 19.5353 3.21535C19.6465 3.35746 19.8169 3.44051 19.9973 3.44051C20.1777 3.44051 20.3482 3.35746 20.4594 3.21535C20.9673 2.56629 21.7306 2.19402 22.5534 2.19402C24.0187 2.19402 25.2107 3.38605 25.2107 4.85129C25.2107 8.05824 21.0033 10.1138 19.9973 10.5592Z" fill="white"/>
<path d="M36.5953 27.0523L32.8864 25.9602C32.8688 25.9549 32.8508 25.9503 32.8325 25.9465L32.2506 25.8296C32.1122 25.8018 32.0118 25.6791 32.0118 25.5379V25.258C33.535 24.5634 34.7132 23.2401 35.2109 21.6207H35.6594C36.4507 21.6207 37.0946 20.9768 37.0946 20.1855V19.2454C37.0946 18.8221 36.9066 18.4268 36.5948 18.1582V17.1233C36.5948 13.7504 33.8507 11.0064 30.4779 11.0064H28.6711C25.2982 11.0064 22.5541 13.7504 22.5541 17.1233V18.1582C22.2423 18.4268 22.0543 18.8221 22.0543 19.2454V20.1855C22.0543 20.9768 22.6982 21.6207 23.4895 21.6207H23.938C24.4243 23.2029 25.5593 24.5035 27.0318 25.2103V25.5591C27.0318 25.7003 26.9313 25.823 26.7929 25.8508L26.3254 25.9448C26.325 25.9449 26.3246 25.945 26.3242 25.945L26.3164 25.9466C26.298 25.9503 26.28 25.955 26.2624 25.9603L22.5536 27.0523C21.2618 27.4326 20.2218 28.3456 19.645 29.5056C19.3951 29.1088 19.0833 28.7522 18.7211 28.4516L20.1507 27.9989C20.9695 27.7396 21.5067 26.9587 21.4572 26.1001C21.369 24.5735 20.9976 21.4811 19.5004 17.9232C17.6402 13.5029 14.9739 11.8099 12.9907 11.1758C12.4843 10.4739 11.66 10.0157 10.7303 10.0157C9.80051 10.0157 8.97621 10.4739 8.46973 11.1758C6.48653 11.81 3.82028 13.503 1.96012 17.9232C0.4627 21.4811 0.0912936 24.5735 0.0031686 26.1C-0.0464408 26.9586 0.490825 27.7395 1.30965 27.9988L2.73918 28.4515C1.75161 29.2708 1.13786 30.5065 1.13786 31.8378V38.3929C1.13786 38.7169 1.40059 38.9796 1.72457 38.9796L39.4132 38.9757C39.7373 38.9757 40 38.7131 40 38.389V31.6039C40 29.5142 38.5999 27.6425 36.5953 27.0523ZM18.4186 18.3783C19.8478 21.7744 20.2018 24.7164 20.2855 26.1677C20.3041 26.49 20.1029 26.783 19.7963 26.8801L17.3097 27.6676C17.2634 27.6522 17.2169 27.6377 17.1704 27.624L13.7722 26.6233C13.7557 26.6184 13.739 26.6143 13.7221 26.6109L13.1894 26.5038C13.0858 26.483 13.0107 26.3912 13.0107 26.2856V26.0164C13.0332 26.0065 13.055 25.9952 13.0774 25.985C13.1388 25.9573 13.1998 25.9292 13.26 25.8993C13.2898 25.8846 13.3192 25.8692 13.3486 25.8539C13.4093 25.8225 13.4693 25.7905 13.5286 25.7572C13.5543 25.7427 13.5797 25.728 13.605 25.7132C13.6697 25.6755 13.7335 25.6365 13.7964 25.5964C13.8148 25.5847 13.8332 25.5732 13.8513 25.5612C13.9247 25.5133 13.9969 25.4637 14.0679 25.4125C14.0749 25.4075 14.082 25.4027 14.0889 25.3976C15.0789 24.6781 15.8312 23.6505 16.2014 22.4558H16.634C17.4104 22.4558 18.0422 21.8241 18.0422 21.0477V20.1375C18.0422 20.0943 18.0395 20.0517 18.0357 20.0095C18.0347 19.9993 18.0337 19.9891 18.0326 19.9789C18.0279 19.9374 18.022 19.8961 18.0138 19.8557C18.0132 19.853 18.0125 19.8504 18.0119 19.8479C18.0039 19.8095 17.9939 19.7718 17.9828 19.7347C17.98 19.7253 17.9771 19.7159 17.9742 19.7066C17.9618 19.6679 17.9481 19.6299 17.9325 19.5928C17.9307 19.5887 17.9288 19.5849 17.9271 19.5808C17.9124 19.5469 17.8963 19.5139 17.8791 19.4814C17.8747 19.4731 17.8704 19.4648 17.8658 19.4566C17.8464 19.4217 17.8259 19.3875 17.8038 19.3546C17.8006 19.3498 17.7971 19.3454 17.7939 19.3407C17.7736 19.3114 17.7523 19.2829 17.73 19.2553C17.7243 19.2483 17.7189 19.2413 17.7131 19.2344C17.6876 19.204 17.6611 19.1747 17.6332 19.1466C17.6286 19.1418 17.6236 19.1374 17.6188 19.1327C17.5938 19.1082 17.5679 19.0847 17.5412 19.0622C17.5347 19.0567 17.5284 19.0511 17.5218 19.0457C17.4911 19.0207 17.4594 18.9969 17.4266 18.9745C17.4204 18.9703 17.414 18.9664 17.4079 18.9623C17.3929 18.9524 17.378 18.9422 17.3626 18.9329C17.3625 18.8354 17.3594 18.7385 17.355 18.6417C17.3534 18.6065 17.3511 18.5717 17.349 18.5367C17.3453 18.4764 17.3407 18.4164 17.3353 18.3565C17.3312 18.3104 17.3274 18.2643 17.3224 18.2185C17.3206 18.2026 17.3182 18.1868 17.3164 18.171C17.1214 16.4955 16.3 15.0095 15.0926 13.9525C15.0925 13.9525 15.0925 13.9525 15.0925 13.9524C14.98 13.8539 14.8645 13.7587 14.7455 13.6679C14.7398 13.6636 14.7343 13.6589 14.7285 13.6546C14.692 13.6269 14.6547 13.6002 14.6176 13.5733C14.574 13.5416 14.5302 13.5102 14.4858 13.4795C14.4556 13.4586 14.4254 13.4379 14.3948 13.4176C14.3292 13.3739 14.2628 13.3312 14.1954 13.2897C14.1835 13.2823 14.1718 13.2746 14.1599 13.2673C14.0751 13.2158 13.9889 13.1664 13.9015 13.1186C13.8881 13.1112 13.8745 13.1043 13.8611 13.097C13.786 13.0566 13.71 13.0177 13.6332 12.9801C13.6153 12.9714 13.5974 12.9626 13.5794 12.954C13.5576 12.9436 13.5362 12.9325 13.5143 12.9223C13.516 12.8822 13.5169 12.8422 13.5169 12.8022C13.5169 12.7505 13.5153 12.6993 13.5125 12.6482C13.5123 12.6458 13.5124 12.6434 13.5122 12.641C15.1122 13.4 17.0007 15.0088 18.4186 18.3783ZM12.9454 21.4992C13.2695 21.4992 13.5322 21.2364 13.5322 20.9125V20.2562C13.5322 20.1234 13.4875 20.0013 13.4131 19.9029H15.2832V20.7637C15.2832 20.8449 15.281 20.9261 15.2765 21.0075C15.2762 21.0129 15.2756 21.0181 15.2754 21.0234C15.2709 21.1003 15.2648 21.1772 15.2564 21.254C15.2562 21.2559 15.256 21.2577 15.2557 21.2596C15.247 21.339 15.2362 21.4182 15.2233 21.4973C15.2227 21.5013 15.2218 21.5052 15.2212 21.5092C15.2088 21.584 15.1945 21.6586 15.1784 21.733C15.1713 21.7655 15.1637 21.7979 15.1559 21.8302C15.1448 21.8762 15.133 21.922 15.1205 21.9675C15.1119 21.9989 15.1031 22.0303 15.0938 22.0614C15.0844 22.0928 15.075 22.1241 15.065 22.1551C15.0542 22.1889 15.0425 22.2224 15.0309 22.2558C15.0136 22.3055 14.9955 22.3549 14.9764 22.4038C14.9686 22.4242 14.9606 22.4445 14.9524 22.4647C14.902 22.589 14.8464 22.711 14.7854 22.8299C14.7838 22.833 14.7822 22.8362 14.7806 22.8393C14.475 23.432 14.0413 23.9528 13.5156 24.3616C13.51 24.3659 13.5046 24.3704 13.499 24.3746C13.4669 24.3993 13.4343 24.4236 13.4015 24.4475C13.3832 24.4607 13.3647 24.4738 13.3463 24.4868C13.3033 24.5172 13.2597 24.5468 13.2157 24.5757C13.1854 24.5954 13.1552 24.6151 13.1245 24.6342C13.1011 24.6488 13.0774 24.6631 13.0536 24.6773C13.012 24.7021 12.97 24.7264 12.9276 24.7499C12.9104 24.7594 12.8932 24.7689 12.876 24.7782C12.8275 24.8043 12.7786 24.8293 12.7291 24.8536C12.7117 24.8622 12.6941 24.8706 12.6765 24.879C12.6198 24.9059 12.5626 24.9322 12.5047 24.9568C12.498 24.9596 12.4913 24.9622 12.4846 24.9649C12.4318 24.987 12.3783 25.0079 12.3246 25.0281C12.3047 25.0355 12.2848 25.0429 12.2648 25.05C12.2291 25.0629 12.193 25.0747 12.1569 25.0866C12.1242 25.0974 12.0915 25.1086 12.0586 25.1186C12.0251 25.1289 11.9911 25.138 11.9573 25.1475C11.9 25.1635 11.8425 25.1785 11.7846 25.1922C11.746 25.2014 11.7075 25.2109 11.6685 25.2191C11.637 25.2257 11.6054 25.2312 11.5737 25.2372C11.5357 25.2444 11.4977 25.2515 11.4593 25.2577C11.4284 25.2627 11.3974 25.2671 11.3664 25.2715C11.3258 25.2772 11.285 25.2824 11.2442 25.287C11.2151 25.2903 11.1861 25.2934 11.1569 25.2961C11.1108 25.3004 11.0644 25.3038 11.0179 25.3068C10.9935 25.3083 10.9692 25.3102 10.9447 25.3114C10.8736 25.3147 10.8021 25.3168 10.73 25.3168C10.6561 25.3168 10.5825 25.3147 10.5093 25.3112C10.487 25.3101 10.4647 25.3082 10.4425 25.3068C10.3912 25.3036 10.34 25.3 10.2892 25.295C10.2643 25.2926 10.2396 25.2896 10.2148 25.2868C10.1662 25.2813 10.1179 25.2753 10.0697 25.2682C10.0454 25.2647 10.0212 25.2608 9.99699 25.2569C9.94793 25.2489 9.89903 25.2402 9.85051 25.2307C9.82832 25.2263 9.80614 25.2219 9.78403 25.2172C9.73246 25.2063 9.68129 25.1943 9.63043 25.1817C9.61184 25.1771 9.59324 25.1726 9.57473 25.1678C9.51731 25.1527 9.46043 25.1364 9.40395 25.1192C9.39254 25.1157 9.38098 25.1125 9.36957 25.109C9.09153 25.0217 8.82496 24.9084 8.57262 24.772C8.56457 24.7676 8.5566 24.7632 8.54864 24.7589C8.49223 24.7279 8.43653 24.6959 8.38168 24.6628C8.36786 24.6543 8.35426 24.6456 8.34051 24.6371C8.30317 24.6139 8.26629 24.5901 8.22965 24.5659C8.20106 24.5469 8.17254 24.5279 8.14442 24.5082C8.13418 24.5012 8.12418 24.4938 8.11403 24.4867C7.3916 23.975 6.82332 23.2576 6.49543 22.4329C6.49332 22.4275 6.49114 22.4222 6.48903 22.4168C6.46004 22.343 6.43325 22.2682 6.40817 22.1929C6.40395 22.1802 6.39934 22.1676 6.39528 22.1548C6.38473 22.122 6.37489 22.089 6.36504 22.0559C6.35621 22.0261 6.3477 21.996 6.33942 21.9658C6.32809 21.9247 6.31731 21.8833 6.30723 21.8418C6.29832 21.8053 6.28981 21.7687 6.28184 21.7318C6.26606 21.6589 6.25207 21.5857 6.23981 21.5123C6.23895 21.5069 6.23778 21.5016 6.23692 21.4962C6.22426 21.4186 6.21371 21.3407 6.20512 21.2628C6.20481 21.2596 6.20426 21.2564 6.20387 21.2532C6.19567 21.1775 6.18965 21.1018 6.18528 21.026C6.18489 21.0197 6.18418 21.0135 6.18387 21.0072C6.1795 20.9259 6.17723 20.8447 6.17723 20.7636V19.8204C6.1827 19.8181 6.18786 19.8152 6.19325 19.8129C6.21481 19.8037 6.23598 19.7939 6.25684 19.7833C6.2652 19.7791 6.27356 19.775 6.28176 19.7707C6.30965 19.7557 6.337 19.74 6.36348 19.7227C6.36395 19.7224 6.36434 19.7221 6.36481 19.7218C6.39082 19.7047 6.41582 19.6864 6.44035 19.6672C6.4477 19.6615 6.45481 19.6555 6.462 19.6496C6.4802 19.6346 6.49793 19.619 6.51512 19.6029C6.52184 19.5966 6.52864 19.5904 6.53528 19.584C6.58059 19.5394 6.62223 19.4908 6.65957 19.4385C6.66504 19.4308 6.67012 19.423 6.67543 19.4153C6.68887 19.3954 6.70168 19.3751 6.71387 19.3543C6.71864 19.3461 6.72356 19.338 6.72817 19.3297C6.74387 19.3011 6.75887 19.2721 6.77215 19.2419C6.78442 19.2141 6.79457 19.1854 6.80239 19.1559L7.23496 17.5321C7.26067 17.4356 7.33293 17.3997 7.37371 17.3868C7.41473 17.374 7.49481 17.3621 7.57153 17.4268C9.67106 19.2 11.3491 19.7589 12.4986 19.8766C12.4117 19.9789 12.3589 20.1112 12.3589 20.256V20.9122C12.3587 21.2365 12.6214 21.4992 12.9454 21.4992ZM16.433 21.2825C16.4363 21.2471 16.4378 21.2116 16.4404 21.1761C16.4436 21.1299 16.4477 21.0839 16.4499 21.0375C16.4543 20.9461 16.4568 20.8548 16.4568 20.7637V19.9029H16.4798H16.6339C16.7633 19.9029 16.8686 20.0082 16.8686 20.1376V21.0479C16.8686 21.1772 16.7633 21.2825 16.6339 21.2825H16.433ZM9.1477 12.4906C9.15582 12.4493 9.16528 12.4085 9.17653 12.3684C9.17871 12.3604 9.1816 12.3526 9.18395 12.3447C9.19395 12.3111 9.20481 12.2779 9.21684 12.2452C9.22098 12.234 9.22535 12.223 9.22973 12.2119C9.24215 12.1805 9.25543 12.1496 9.26973 12.1191C9.27348 12.111 9.27715 12.1029 9.28106 12.0948C9.54364 11.5591 10.0944 11.1891 10.7302 11.1891C11.3659 11.1891 11.9165 11.5589 12.1792 12.0946C12.1832 12.1028 12.1869 12.1111 12.1908 12.1194C12.205 12.1497 12.2182 12.1804 12.2305 12.2116C12.2349 12.2228 12.2394 12.2339 12.2436 12.2453C12.2556 12.2778 12.2664 12.3108 12.2763 12.3443C12.2787 12.3523 12.2815 12.3602 12.2838 12.3683C12.295 12.4084 12.3045 12.4492 12.3125 12.4904C12.3132 12.4939 12.3136 12.4975 12.3143 12.501C12.2389 12.4824 12.1631 12.4656 12.0871 12.4497C12.0675 12.4457 12.0478 12.4419 12.0281 12.438C11.9375 12.42 11.8466 12.4034 11.7553 12.3892C11.7482 12.3881 11.7411 12.3867 11.7339 12.3856C11.6364 12.3707 11.5385 12.3587 11.4403 12.3482C11.4211 12.3461 11.4019 12.3439 11.3827 12.3421C11.2858 12.3325 11.1887 12.3251 11.0913 12.3198C11.0737 12.3189 11.0561 12.3182 11.0386 12.3175C10.9361 12.3128 10.8333 12.3097 10.7302 12.3097C10.6271 12.3097 10.5244 12.3128 10.4218 12.3175C10.4043 12.3182 10.3866 12.3189 10.369 12.3198C10.2716 12.325 10.1744 12.3325 10.0776 12.3421C10.0583 12.3439 10.0392 12.3461 10.02 12.3482C9.92176 12.3586 9.82387 12.3707 9.72637 12.3856C9.71918 12.3867 9.71207 12.3881 9.70489 12.3892C9.61371 12.4034 9.52293 12.4199 9.43246 12.4379C9.41262 12.4418 9.39278 12.4456 9.37301 12.4497C9.29707 12.4656 9.22137 12.4824 9.14598 12.501C9.1466 12.4976 9.147 12.494 9.1477 12.4906ZM8.16145 14.1269C8.17285 14.1208 8.18418 14.1144 8.19567 14.1084C8.33949 14.0327 8.48723 13.9632 8.63824 13.9004C8.65543 13.8932 8.67278 13.8865 8.69004 13.8796C8.74293 13.8582 8.79637 13.8377 8.85012 13.8179C8.88606 13.8047 8.92207 13.7921 8.95817 13.7797C9.00121 13.7649 9.04442 13.7505 9.08785 13.7368C9.12629 13.7247 9.16481 13.7129 9.20348 13.7016C9.24653 13.689 9.28973 13.6771 9.33325 13.6656C9.37199 13.6553 9.41082 13.6453 9.44981 13.6359C9.49457 13.6251 9.53973 13.6151 9.58489 13.6054C9.62285 13.5972 9.66082 13.5891 9.69887 13.5818C9.74645 13.5726 9.79442 13.5646 9.84246 13.5567C9.87879 13.5507 9.91512 13.5445 9.9516 13.5393C10.0029 13.5319 10.0545 13.5259 10.1062 13.52C10.1402 13.5161 10.174 13.5118 10.2081 13.5085C10.2658 13.503 10.324 13.4992 10.3823 13.4955C10.4108 13.4937 10.4392 13.4911 10.4678 13.4897C10.5547 13.4856 10.6421 13.4832 10.73 13.4832C10.8179 13.4832 10.9053 13.4856 10.9922 13.4897C11.0209 13.4911 11.0494 13.4937 11.0781 13.4955C11.1362 13.4992 11.1943 13.5029 11.2518 13.5085C11.2861 13.5118 11.32 13.5162 11.3541 13.5201C11.4057 13.526 11.4572 13.532 11.5082 13.5393C11.5449 13.5446 11.5813 13.5508 11.6179 13.5568C11.6657 13.5647 11.7136 13.5728 11.761 13.5818C11.7993 13.5892 11.8373 13.5973 11.8754 13.6055C11.9205 13.6152 11.9654 13.6251 12.01 13.6359C12.0492 13.6454 12.0882 13.6554 12.1271 13.6657C12.1704 13.6772 12.2134 13.6891 12.2563 13.7016C12.2951 13.7129 12.3338 13.7247 12.3725 13.7369C12.4157 13.7506 12.4588 13.7649 12.5016 13.7797C12.5379 13.7922 12.5741 13.8048 12.6102 13.8181C12.6639 13.8379 12.7175 13.8583 12.7704 13.8798C12.7875 13.8867 12.8047 13.8933 12.8217 13.9004C12.9729 13.9634 13.1206 14.0329 13.2646 14.1086C13.2759 14.1146 13.287 14.1208 13.2982 14.1268C13.3571 14.1583 13.4152 14.1909 13.4727 14.2245C13.4904 14.2349 13.5082 14.2454 13.5258 14.2559C13.577 14.2865 13.6275 14.3182 13.6775 14.3504C13.6964 14.3626 13.7155 14.3745 13.7343 14.387C13.7886 14.423 13.8421 14.4603 13.8952 14.4982C13.9376 14.5286 13.9793 14.5598 14.0207 14.5914C14.0437 14.6089 14.0669 14.6261 14.0897 14.6439C14.1336 14.6785 14.1768 14.7138 14.2196 14.7497C14.2287 14.7572 14.2378 14.7648 14.2468 14.7725C15.2987 15.665 15.9944 16.9399 16.1532 18.3331C16.1563 18.3601 16.1598 18.387 16.1624 18.4142C16.1661 18.4524 16.1689 18.4907 16.1718 18.5291C16.1755 18.5776 16.1787 18.6264 16.1811 18.6752C16.1819 18.6933 16.1828 18.7114 16.1835 18.7297H15.8696H12.9916C11.1994 18.7297 9.30043 17.3519 8.32809 16.5307C8.29973 16.5067 8.27035 16.4844 8.24051 16.463C8.23207 16.457 8.22364 16.4512 8.21512 16.4454C8.19121 16.4289 8.16692 16.4134 8.14223 16.3987C8.13496 16.3943 8.12785 16.3898 8.12051 16.3856C8.08934 16.3678 8.0577 16.3511 8.02551 16.3359C8.01824 16.3325 8.01082 16.3294 8.00356 16.3261C7.97746 16.3143 7.95106 16.3033 7.92442 16.2932C7.91473 16.2896 7.90512 16.2859 7.89535 16.2825C7.86364 16.2712 7.83168 16.2609 7.79926 16.2521C7.79715 16.2515 7.79512 16.2507 7.79301 16.2502C7.75879 16.2411 7.7241 16.2336 7.68926 16.2272C7.67926 16.2253 7.66918 16.2237 7.65918 16.2221C7.63176 16.2176 7.60426 16.2139 7.5766 16.2111C7.56778 16.2103 7.55895 16.2091 7.55012 16.2084C7.51489 16.2055 7.47957 16.2039 7.44418 16.2037C7.44223 16.2037 7.4402 16.2035 7.43825 16.2035C7.43067 16.2035 7.42317 16.2043 7.41559 16.2043C7.39301 16.2047 7.37035 16.2054 7.3477 16.2069C7.33598 16.2077 7.32426 16.2088 7.31246 16.2099C7.29137 16.2118 7.27035 16.2142 7.24926 16.2172C7.23746 16.2188 7.22567 16.2204 7.21387 16.2224C7.1916 16.2261 7.16942 16.2304 7.14731 16.2352C7.13723 16.2374 7.12715 16.2393 7.11707 16.2416C7.08504 16.2493 7.05309 16.2578 7.02129 16.2678C6.56723 16.4105 6.22301 16.7704 6.10043 17.2304L5.70098 18.7297H5.58989H5.27598C5.27668 18.7116 5.27746 18.6935 5.2784 18.6754C5.28075 18.6264 5.28403 18.5776 5.2877 18.529C5.29067 18.4907 5.2934 18.4525 5.29715 18.4143C5.29981 18.387 5.30332 18.3599 5.30637 18.3327C5.46528 16.9396 6.16098 15.665 7.21278 14.7725C7.22176 14.7649 7.23082 14.7573 7.23989 14.7497C7.28278 14.7139 7.32614 14.6785 7.37012 14.6439C7.39254 14.6263 7.41543 14.6093 7.43809 14.5921C7.4802 14.56 7.52246 14.5283 7.56559 14.4975C7.61817 14.4599 7.67129 14.4229 7.7252 14.3872C7.74418 14.3747 7.76356 14.3626 7.7827 14.3503C7.83254 14.3182 7.8827 14.2867 7.93364 14.2562C7.95145 14.2455 7.96934 14.235 7.98731 14.2245C8.04496 14.1907 8.10285 14.1583 8.16145 14.1269ZM1.66395 26.8801C1.35723 26.783 1.15606 26.49 1.17465 26.1677C1.25848 24.7163 1.61239 21.7744 3.04153 18.3783C4.4595 15.0089 6.34801 13.4 7.94825 12.6411C7.94809 12.6436 7.94817 12.646 7.94801 12.6484C7.9452 12.6993 7.94356 12.7507 7.94356 12.8023C7.94356 12.8423 7.94442 12.8823 7.94621 12.9225C7.92434 12.9326 7.90301 12.9437 7.88121 12.954C7.86309 12.9627 7.84504 12.9716 7.82699 12.9804C7.75043 13.0178 7.67465 13.0566 7.59989 13.0968C7.58614 13.1043 7.57223 13.1114 7.55856 13.1189C7.47137 13.1666 7.38528 13.2159 7.30075 13.2673C7.2884 13.2748 7.27637 13.2829 7.26403 13.2904C7.19715 13.3317 7.13114 13.374 7.0659 13.4175C7.03512 13.438 7.00457 13.4589 6.9741 13.48C6.93004 13.5104 6.88653 13.5415 6.84332 13.5731C6.80598 13.6002 6.7684 13.6272 6.73161 13.655C6.72746 13.6582 6.72348 13.6615 6.71942 13.6647C5.32075 14.7301 4.35739 16.3376 4.14403 18.1713C4.14215 18.1872 4.13973 18.2029 4.13801 18.2188C4.13301 18.2647 4.12918 18.3107 4.12512 18.3568C4.11973 18.4168 4.11512 18.4768 4.11137 18.537C4.10926 18.572 4.107 18.6069 4.10543 18.642C4.10098 18.7387 4.09793 18.8357 4.09778 18.9332C4.08239 18.9425 4.06754 18.9527 4.05254 18.9626C4.04629 18.9668 4.03996 18.9706 4.03379 18.9748C4.00098 18.9972 3.96926 19.0211 3.93856 19.0461C3.932 19.0514 3.92567 19.057 3.91918 19.0625C3.89246 19.085 3.86653 19.1086 3.84161 19.133C3.83684 19.1377 3.83184 19.1422 3.82715 19.1469C3.79926 19.175 3.7727 19.2044 3.74731 19.2347C3.74161 19.2416 3.73606 19.2486 3.73043 19.2556C3.70817 19.2832 3.68676 19.3116 3.66653 19.341C3.66332 19.3457 3.65981 19.3502 3.65661 19.3549C3.63442 19.3879 3.61395 19.422 3.59457 19.4569C3.59004 19.4651 3.58575 19.4734 3.58129 19.4817C3.56411 19.5142 3.54793 19.5472 3.53332 19.5811C3.53161 19.5851 3.52957 19.589 3.52793 19.5931C3.51231 19.6302 3.49864 19.6682 3.48621 19.7069C3.48325 19.7162 3.48043 19.7256 3.47762 19.735C3.46653 19.7722 3.45653 19.8097 3.44848 19.8482C3.44793 19.8508 3.44715 19.8534 3.44661 19.856C3.43832 19.8965 3.43246 19.9376 3.42778 19.9793C3.42661 19.9894 3.42567 19.9996 3.42473 20.0098C3.4209 20.0521 3.41825 20.0946 3.41825 20.1378V21.048C3.41825 21.8244 4.04996 22.4561 4.82637 22.4561H5.25879C5.25918 22.4574 5.25965 22.4586 5.26004 22.4598C5.27145 22.4964 5.28457 22.5324 5.29668 22.5687C5.78239 24.0407 6.83785 25.2438 8.23699 25.9184C8.24442 25.922 8.25176 25.9257 8.25926 25.9293C8.29074 25.9443 8.32145 25.9606 8.35324 25.975V26.3052C8.35324 26.4108 8.27809 26.5026 8.17426 26.5235L7.73809 26.6113C7.72129 26.6147 7.70465 26.6188 7.68817 26.6236L4.28981 27.624C4.28871 27.6243 4.28754 27.6247 4.28645 27.6251C4.24114 27.6385 4.19575 27.6527 4.15051 27.6677L1.66395 26.8801ZM5.01043 21.0376C5.01254 21.0829 5.01653 21.1278 5.01973 21.1728C5.02239 21.2093 5.02395 21.2459 5.02723 21.2825H4.82629C4.69692 21.2825 4.59161 21.1772 4.59161 21.0478V20.1375C4.59161 20.0082 4.69692 19.9029 4.82629 19.9029H4.98051H5.00348V20.7636C5.00348 20.8549 5.00598 20.9462 5.01043 21.0376ZM19.1491 37.8061H19.1489H17.5331V32.2719C17.5331 31.9777 17.4373 31.6865 17.2635 31.4522C16.5183 30.4472 15.3278 29.8473 14.0788 29.8473C12.8982 29.8473 11.7876 30.3684 11.0318 31.2768C10.9282 31.4015 10.7983 31.4202 10.7301 31.4202C10.6619 31.4202 10.5321 31.4016 10.4283 31.2768C9.67262 30.3683 8.562 29.8473 7.38145 29.8473C6.13246 29.8473 4.94192 30.4472 4.19676 31.4522C4.02286 31.6866 3.92715 31.9778 3.92715 32.272V33.3234C3.92715 33.6475 4.18989 33.9101 4.51387 33.9101C4.83786 33.9101 5.10059 33.6474 5.10059 33.3234V32.272C5.10059 32.2278 5.11434 32.1849 5.13934 32.1511C5.672 31.4328 6.48926 31.0207 7.38145 31.0207C8.21239 31.0207 8.9941 31.3876 9.52621 32.0273C9.82567 32.3872 10.2644 32.5937 10.7302 32.5936C11.1959 32.5936 11.6347 32.3872 11.934 32.0273C12.4661 31.3876 13.2479 31.0207 14.0789 31.0207C14.9711 31.0207 15.7883 31.4327 16.321 32.1511C16.3459 32.1848 16.3596 32.2277 16.3596 32.2719V37.8061H5.10059V36.0534C5.10059 35.7293 4.83786 35.4667 4.51387 35.4667C4.18989 35.4667 3.92715 35.7294 3.92715 36.0534V37.8061H2.31129V31.8378C2.31129 30.4736 3.19082 29.2468 4.46887 28.7992C4.47793 28.796 4.48692 28.7925 4.49598 28.7893C4.51207 28.7839 4.52848 28.7791 4.54473 28.7739C4.57028 28.7657 4.59582 28.7571 4.62137 28.7496H4.62129L7.99473 27.7562L8.40567 27.6736C8.44567 27.6656 8.48496 27.6558 8.52356 27.6444C8.53668 27.6406 8.54926 27.6355 8.56215 27.6313C8.58723 27.6231 8.61246 27.6151 8.63692 27.6056C8.65207 27.5997 8.6666 27.5925 8.68145 27.5861C8.70293 27.5768 8.72457 27.5679 8.74543 27.5577C8.7609 27.55 8.77567 27.5413 8.79082 27.5332C8.8102 27.5227 8.82981 27.5125 8.84864 27.5012C8.86395 27.492 8.87848 27.4818 8.89332 27.472C8.91106 27.4604 8.92895 27.449 8.94614 27.4366C8.9609 27.4259 8.97481 27.4143 8.9891 27.4032C9.00535 27.3904 9.02184 27.3779 9.03754 27.3644C9.05153 27.3525 9.06465 27.3397 9.07809 27.3272C9.09301 27.3132 9.10809 27.2996 9.12239 27.2851C9.13543 27.2719 9.14762 27.258 9.16012 27.2443C9.17371 27.2294 9.18739 27.2147 9.20035 27.1993C9.21231 27.1849 9.22356 27.17 9.23496 27.1552C9.24715 27.1393 9.25949 27.1236 9.27098 27.1072C9.28176 27.0919 9.29184 27.0761 9.30207 27.0602C9.31293 27.0435 9.32379 27.0268 9.33387 27.0096C9.3434 26.9933 9.35223 26.9767 9.36114 26.96C9.37059 26.9424 9.37996 26.9248 9.38864 26.9068C9.39684 26.8897 9.40434 26.8723 9.41184 26.8549C9.41981 26.8365 9.42762 26.8182 9.43481 26.7994C9.4416 26.7816 9.4477 26.7636 9.45371 26.7455C9.46012 26.7264 9.46637 26.7073 9.47192 26.6879C9.47723 26.6695 9.48184 26.651 9.48637 26.6323C9.49121 26.6125 9.49574 26.5928 9.49973 26.5727C9.50348 26.5538 9.50653 26.5348 9.50949 26.5157C9.51262 26.4954 9.51543 26.475 9.5177 26.4544C9.51981 26.4351 9.52137 26.4158 9.52262 26.3963C9.52332 26.3851 9.52496 26.3742 9.52543 26.3629C9.53551 26.3651 9.54582 26.3665 9.55598 26.3686C9.59848 26.3775 9.64145 26.3848 9.68426 26.3928C9.73481 26.4022 9.7852 26.412 9.83606 26.42C9.88614 26.4279 9.93676 26.4339 9.98731 26.4404C10.0313 26.4461 10.0751 26.4525 10.1193 26.4572C10.1765 26.4633 10.2343 26.4674 10.2919 26.4718C10.3303 26.4747 10.3686 26.4784 10.407 26.4805C10.4672 26.4839 10.5278 26.4851 10.5883 26.4866C10.6251 26.4875 10.6618 26.4892 10.6986 26.4894C10.7092 26.4895 10.7196 26.4902 10.7302 26.4902C10.7822 26.4902 10.8337 26.4876 10.8854 26.4863C10.9204 26.4854 10.9554 26.4852 10.9904 26.4836C11.0551 26.4807 11.1193 26.4757 11.1834 26.4707C11.2159 26.4681 11.2484 26.4664 11.2808 26.4632C11.3466 26.4569 11.4117 26.4486 11.4768 26.44C11.5075 26.436 11.5384 26.4328 11.569 26.4282C11.6379 26.4181 11.7059 26.4058 11.7739 26.3932C11.7961 26.3891 11.8185 26.3862 11.8406 26.3818C11.8409 26.3865 11.8418 26.3911 11.8422 26.3958C11.8436 26.4134 11.8459 26.4307 11.848 26.4482C11.8506 26.4703 11.8532 26.4922 11.8568 26.5139C11.8597 26.5314 11.8634 26.5486 11.867 26.5659C11.8714 26.5871 11.8757 26.6082 11.8811 26.629C11.8855 26.6462 11.8906 26.6632 11.8957 26.6801C11.9017 26.7005 11.9079 26.7207 11.9149 26.7408C11.9207 26.7576 11.9271 26.7741 11.9336 26.7906C11.9412 26.8102 11.9491 26.8297 11.9576 26.8489C11.9648 26.865 11.9724 26.881 11.9802 26.8968C11.9894 26.9156 11.9989 26.9341 12.0089 26.9524C12.0174 26.9679 12.0261 26.9832 12.0352 26.9984C12.0459 27.0163 12.0569 27.0339 12.0683 27.0512C12.078 27.066 12.0879 27.0805 12.0982 27.0949C12.1103 27.1118 12.1228 27.1283 12.1356 27.1447C12.1464 27.1586 12.1574 27.1723 12.1688 27.1857C12.1822 27.2017 12.1962 27.2171 12.2104 27.2324C12.2223 27.2453 12.2342 27.2582 12.2466 27.2706C12.2614 27.2854 12.2767 27.2997 12.2922 27.3138C12.305 27.3257 12.3179 27.3375 12.3311 27.3489C12.3472 27.3626 12.3639 27.3756 12.3807 27.3886C12.3943 27.3992 12.4079 27.41 12.422 27.4201C12.4395 27.4327 12.4576 27.4443 12.4757 27.4561C12.4901 27.4654 12.5042 27.4751 12.5189 27.4839C12.5379 27.4952 12.5575 27.5055 12.577 27.516C12.5918 27.5239 12.6062 27.5322 12.6213 27.5397C12.6421 27.5499 12.6637 27.5589 12.6852 27.568C12.6998 27.5743 12.7141 27.5811 12.7289 27.5869C12.7532 27.5964 12.7782 27.6043 12.8032 27.6124C12.816 27.6165 12.8283 27.6214 12.8413 27.6252C12.8795 27.6364 12.9184 27.6461 12.9581 27.6541L13.4655 27.7562L16.8391 28.7495C16.8814 28.7619 16.9233 28.7753 16.9649 28.7894C16.9697 28.7911 16.9743 28.7929 16.9791 28.7946C18.2639 29.2385 19.1491 30.469 19.1491 31.8376V37.8061ZM32.8798 28.0011L33.6799 29.4138L31.3554 33.014L32.8798 28.0011ZM29.8982 29.782H29.2506L29.0215 29.3851L29.5745 28.8803L30.1274 29.385L29.8982 29.782ZM30.048 33.2801L29.7888 34.1325L29.5744 34.8375L29.1011 33.2808L29.4229 30.9555H29.7231L30.048 33.2801ZM28.0096 27.5428C28.3672 27.6368 28.7321 27.6971 29.0989 27.7254L27.8819 28.8366C27.8435 28.8717 27.8125 28.9119 27.7854 28.9542L27.2995 27.3562L28.0096 27.5428ZM27.9893 26.3242C28.1156 26.1177 28.1921 25.8789 28.2037 25.6264C28.2599 25.6398 28.3163 25.6523 28.3729 25.6641C28.39 25.6676 28.4071 25.6707 28.4242 25.6741C28.4957 25.6883 28.5675 25.7012 28.6397 25.7127C28.6572 25.7155 28.6747 25.7187 28.6924 25.7214C28.77 25.733 28.8479 25.7425 28.926 25.7511C28.9517 25.754 28.9772 25.7569 29.003 25.7594C29.0786 25.7667 29.1545 25.7724 29.2304 25.7768C29.2577 25.7783 29.2851 25.7797 29.3126 25.781C29.3898 25.7844 29.4671 25.7865 29.5443 25.7868C29.5544 25.7869 29.5643 25.7876 29.5745 25.7876C29.5895 25.7876 29.6043 25.7866 29.6193 25.7865C29.6996 25.7859 29.7799 25.7842 29.8601 25.7804C29.8792 25.7794 29.8982 25.778 29.9172 25.7769C29.9945 25.7725 30.0717 25.7667 30.1487 25.7593C30.161 25.7581 30.1733 25.7572 30.1856 25.756C30.2725 25.7471 30.359 25.7357 30.4454 25.7229C30.4588 25.7208 30.4723 25.719 30.4857 25.7169C30.5725 25.7035 30.6588 25.6879 30.7446 25.6706C30.7555 25.6684 30.7664 25.6662 30.7771 25.6639C30.7989 25.6594 30.8208 25.6553 30.8425 25.6505C30.862 25.9035 30.9465 26.1412 31.0807 26.345L30.841 26.4079C30.0123 26.6257 29.1364 26.6257 28.3079 26.4079L27.9893 26.3242ZM30.05 27.7254C30.4168 27.6972 30.7816 27.6368 31.1392 27.5428L31.8493 27.3562L31.3635 28.9541C31.3364 28.9119 31.3054 28.8717 31.267 28.8366L30.05 27.7254ZM35.4506 20.3478C35.4549 20.2914 35.46 20.2353 35.4627 20.1785C35.4674 20.0829 35.47 19.9874 35.47 19.892V18.9837H35.654C35.6565 18.9837 35.6593 18.9839 35.6618 18.9839C35.6786 18.9841 35.6954 18.9859 35.7119 18.9894C35.7131 18.9897 35.7143 18.99 35.7154 18.9903C35.7268 18.9929 35.7368 18.9971 35.7471 19.0007C35.7535 19.0031 35.76 19.0043 35.7663 19.0071C35.7664 19.0071 35.7664 19.0072 35.7664 19.0072C35.8604 19.0496 35.9211 19.1431 35.9211 19.2453V20.1854C35.9211 20.3297 35.8037 20.4471 35.6595 20.4471H35.4436C35.4466 20.414 35.448 20.3809 35.4506 20.3478ZM23.4895 20.4471C23.3452 20.4472 23.2279 20.3297 23.2279 20.1855V19.2454C23.2279 19.1432 23.2885 19.0498 23.3827 19.0072C23.398 19.0003 23.4137 18.9954 23.4295 18.9916C23.4322 18.9909 23.4344 18.9901 23.4374 18.9894C23.4539 18.9859 23.4707 18.9841 23.4875 18.9839C23.49 18.9839 23.4925 18.9838 23.4949 18.9837H23.6789V19.892C23.6789 19.9874 23.6815 20.0829 23.6862 20.1785C23.6889 20.2351 23.6939 20.2911 23.6982 20.3472C23.7008 20.3805 23.7022 20.4138 23.7054 20.4471H23.4895ZM24.4337 15.9953C24.4114 16.0016 24.3896 16.0093 24.3684 16.0181C24.3591 16.022 24.3504 16.0268 24.3413 16.0312C24.3299 16.0367 24.3182 16.0417 24.3072 16.0479C24.2963 16.054 24.2861 16.0611 24.2757 16.0679C24.2672 16.0733 24.2584 16.0783 24.2502 16.0842C24.2393 16.092 24.2293 16.1008 24.2191 16.1093C24.2121 16.1152 24.2047 16.1206 24.1979 16.1268C24.1878 16.136 24.1786 16.1461 24.1691 16.1561C24.163 16.1625 24.1566 16.1684 24.1508 16.175C24.1417 16.1855 24.1336 16.1968 24.1252 16.2079C24.12 16.2149 24.1144 16.2214 24.1095 16.2286C24.1016 16.2402 24.0946 16.2524 24.0876 16.2646C24.0832 16.2721 24.0785 16.2793 24.0744 16.287C24.0679 16.2994 24.0624 16.3125 24.0567 16.3254C24.0537 16.3323 24.05 16.3388 24.0473 16.3458C24.0462 16.3486 24.0453 16.3512 24.0442 16.354C24.0439 16.3548 24.0434 16.3557 24.043 16.3565C24.0425 16.3581 24.0419 16.3597 24.0414 16.3613C24.0413 16.3614 24.0412 16.3618 24.0411 16.3619C24.0407 16.363 24.0404 16.3641 24.04 16.3652C24.0096 16.4479 23.9814 16.5311 23.9549 16.6147C23.9543 16.6165 23.9536 16.6182 23.9531 16.62C23.9527 16.6211 23.9524 16.6223 23.9521 16.6234C23.8473 16.9549 23.772 17.294 23.7275 17.6387V17.1232C23.7275 14.3974 25.9451 12.1797 28.671 12.1797H30.4777C33.2035 12.1797 35.4211 14.3973 35.4211 17.1232V17.6402C35.4171 17.6088 35.4121 17.5775 35.4075 17.5461C35.4071 17.5436 35.4069 17.541 35.4065 17.5384L35.3987 17.4845C35.3986 17.4835 35.3983 17.4823 35.3982 17.4813C35.3855 17.4005 35.3711 17.3201 35.3551 17.2401C35.355 17.2395 35.3549 17.2389 35.3548 17.2383L35.3418 17.1757C35.3414 17.1744 35.3411 17.1732 35.3408 17.1718C35.3253 17.0985 35.3086 17.0255 35.2903 16.9529C35.2898 16.951 35.2895 16.9492 35.289 16.9473L35.2836 16.9252C35.283 16.9228 35.2825 16.9204 35.2818 16.9179C35.2818 16.9176 35.2816 16.9174 35.2815 16.9171C35.2808 16.9143 35.28 16.9115 35.2793 16.9087C35.2758 16.8961 35.2702 16.8847 35.266 16.8725C35.2598 16.8548 35.2543 16.8368 35.2466 16.82C35.2407 16.8073 35.2332 16.7957 35.2265 16.7836C35.2177 16.7675 35.2095 16.7511 35.1993 16.736C35.1914 16.7244 35.182 16.7142 35.1734 16.7032C35.1624 16.6893 35.1519 16.6747 35.1397 16.6618C35.1296 16.6511 35.118 16.642 35.1071 16.6322C35.0947 16.6208 35.0829 16.6089 35.0695 16.5987C35.0566 16.5889 35.0424 16.5809 35.0287 16.5722C35.0158 16.564 35.0036 16.5549 34.9901 16.5477C34.9745 16.5393 34.9578 16.5332 34.9414 16.5262C34.9286 16.5208 34.9162 16.5143 34.903 16.5099C34.8853 16.5039 34.8669 16.5003 34.8486 16.496C34.8355 16.4929 34.8229 16.4886 34.8095 16.4865C34.7918 16.4836 34.7735 16.4832 34.7553 16.4819C34.7415 16.4809 34.7281 16.4785 34.7141 16.4785C34.7119 16.4785 34.7097 16.4785 34.7075 16.4785H34.7074L34.6936 16.4786C34.5906 16.4798 34.4896 16.508 34.401 16.5606C33.7713 16.934 32.937 17.1232 31.9214 17.1232C30.8893 17.1232 29.8446 16.7958 28.8343 16.4792C27.5549 16.0782 26.2364 15.6654 24.8947 15.8921C24.8815 15.8943 24.8683 15.8961 24.855 15.8985C24.8505 15.8993 24.8459 15.9004 24.8414 15.9011C24.7056 15.9257 24.5698 15.9568 24.4337 15.9953ZM24.961 20.8964C24.9445 20.8204 24.9299 20.7441 24.9172 20.6676C24.9163 20.6625 24.9152 20.6573 24.9143 20.6522C24.9011 20.5711 24.8901 20.4899 24.8811 20.4086C24.8808 20.4057 24.8804 20.4029 24.88 20.4C24.8714 20.3209 24.8652 20.2418 24.8606 20.1627C24.8603 20.1567 24.8596 20.1507 24.8592 20.1447C24.8546 20.0604 24.8522 19.9761 24.8522 19.892V18.4061C24.8522 18.4029 24.8523 18.3998 24.8523 18.3969C24.8523 18.3968 24.8523 18.3966 24.8523 18.3965C24.8523 18.35 24.8535 18.3036 24.8549 18.2572C24.8556 18.2355 24.8564 18.2135 24.8574 18.1908C24.8581 18.1747 24.8591 18.1586 24.86 18.1425C24.8603 18.1386 24.8604 18.1347 24.8607 18.1308L24.8636 18.0913C24.8668 18.0418 24.87 17.9923 24.8748 17.9427C24.8748 17.9426 24.8748 17.9425 24.8748 17.9424C24.8769 17.9203 24.8796 17.8983 24.8822 17.8764L24.8852 17.8506C24.8903 17.8067 24.8956 17.7628 24.9019 17.7189C24.9065 17.6866 24.9118 17.6546 24.9172 17.6225C24.924 17.5811 24.9313 17.5399 24.9393 17.4983C24.9456 17.4657 24.9521 17.4333 24.9591 17.4011C24.9678 17.361 24.9771 17.321 24.9868 17.2813L24.989 17.2719C24.9961 17.243 25.003 17.2141 25.0108 17.1848C25.0214 17.1447 25.0332 17.105 25.0447 17.0657L25.0475 17.0562C25.0721 17.0518 25.097 17.049 25.1217 17.0451C25.1644 17.0384 25.2071 17.031 25.25 17.0259C25.3039 17.0195 25.3581 17.0154 25.4123 17.0114C25.4263 17.0104 25.4402 17.0086 25.4543 17.0077C26.2571 16.9596 27.0964 17.1739 27.9693 17.4394C28.1393 17.4911 28.3105 17.5447 28.4831 17.5987C29.2356 17.8346 30.0057 18.0759 30.8073 18.2037C31.1717 18.2618 31.5425 18.2964 31.9212 18.2964C32.1075 18.2964 32.2883 18.2895 32.4657 18.2783C32.5956 18.2701 32.7238 18.2597 32.8488 18.2454C32.8581 18.2444 32.8678 18.2438 32.8771 18.2427C32.9407 18.2352 33.0025 18.2256 33.0649 18.2165C33.1018 18.2111 33.1397 18.2069 33.1762 18.201C33.2139 18.1949 33.2501 18.1871 33.2873 18.1804C33.3469 18.1697 33.4071 18.1597 33.4654 18.1475C33.5032 18.1396 33.5396 18.1299 33.5768 18.1214C33.6329 18.1086 33.6895 18.0964 33.7443 18.0822C33.798 18.0682 33.8499 18.0521 33.9025 18.0368C33.9393 18.0261 33.977 18.0164 34.0132 18.005C34.0568 17.9912 34.0988 17.9755 34.1417 17.9607C34.185 17.9459 34.2291 17.932 34.2715 17.9161L34.2725 17.9247C34.2795 17.9941 34.2846 18.0638 34.2885 18.1336C34.2885 18.1336 34.2885 18.1337 34.2885 18.1337L34.2909 18.1839C34.2909 18.1844 34.2909 18.1849 34.291 18.1854C34.2941 18.2556 34.2964 18.3259 34.2964 18.3963C34.2964 18.3965 34.2964 18.3965 34.2964 18.3967C34.2964 18.3996 34.2964 18.4026 34.2964 18.4058V19.8918C34.2964 19.9759 34.2941 20.0602 34.2895 20.1445C34.2892 20.1505 34.2885 20.1565 34.2881 20.1625C34.2835 20.2416 34.2772 20.3207 34.2686 20.3997C34.2683 20.4026 34.2678 20.4055 34.2675 20.4084C34.2586 20.4897 34.2475 20.5708 34.2343 20.6518C34.2335 20.6571 34.2324 20.6623 34.2315 20.6676C34.2188 20.744 34.2043 20.8202 34.1878 20.8961C33.8265 22.5566 32.59 23.8941 30.9869 24.3978C30.9731 24.4021 30.9592 24.406 30.9453 24.4102C30.8886 24.4275 30.8316 24.4438 30.774 24.459C30.7536 24.4643 30.733 24.4692 30.7125 24.4743C30.661 24.4871 30.6092 24.4992 30.5569 24.5103C30.5331 24.5154 30.5092 24.5201 30.4853 24.5248C30.4356 24.5346 30.3857 24.5435 30.3355 24.5516C30.31 24.5557 30.2844 24.5599 30.2588 24.5636C30.2093 24.5709 30.1593 24.577 30.1093 24.5827C30.0833 24.5857 30.0575 24.5889 30.0314 24.5914C29.9788 24.5965 29.9258 24.6001 29.8727 24.6035C29.8495 24.6049 29.8264 24.607 29.8032 24.6081C29.7273 24.6118 29.6511 24.6139 29.5743 24.6139C29.4959 24.6139 29.4181 24.6118 29.3407 24.6079C29.3139 24.6066 29.2875 24.604 29.2608 24.6023C29.2104 24.5989 29.1599 24.5957 29.1099 24.5908C29.0771 24.5876 29.0445 24.5832 29.0118 24.5793C28.9686 24.5741 28.9254 24.5691 28.8826 24.5628C28.846 24.5574 28.8096 24.5508 28.7731 24.5446C28.7352 24.5381 28.6972 24.5317 28.6596 24.5243C28.6196 24.5164 28.5798 24.5074 28.54 24.4985C28.5067 24.491 28.4734 24.4836 28.4404 24.4754C28.3976 24.4648 28.355 24.4532 28.3125 24.4414C28.2832 24.4332 28.2539 24.4251 28.2248 24.4164C28.1804 24.4032 28.1363 24.389 28.0923 24.3744C28.065 24.3654 28.0376 24.3562 28.0104 24.3467C27.9671 24.3314 27.9242 24.3154 27.8812 24.2989C26.4157 23.7339 25.3008 22.4586 24.961 20.8964ZM26.269 28.0011L27.7934 33.014L25.4689 29.4137L26.269 28.0011ZM36.5664 37.8022V32.1789C36.5664 31.8548 36.3037 31.5922 35.9796 31.5922C35.6556 31.5922 35.3929 31.8549 35.3929 32.1789V37.8022H23.6708V36.0533C23.6708 35.7293 23.4081 35.4666 23.0841 35.4666C22.7601 35.4666 22.4974 35.7293 22.4974 36.0533V37.8022H20.3225V31.8378V31.6038C20.3225 30.0309 21.3762 28.6222 22.8851 28.1779L25.2076 27.494L24.3345 29.0357C24.1822 29.3044 24.1995 29.6344 24.3766 29.8852L29.0815 37.1725C29.0824 37.1738 29.0835 37.175 29.0843 37.1763C29.0875 37.181 29.0906 37.1857 29.0938 37.1903C29.0962 37.1937 29.0989 37.197 29.1014 37.2004C29.1088 37.2106 29.1164 37.2207 29.1244 37.2304C29.1272 37.2338 29.1303 37.2369 29.1332 37.2403C29.1404 37.2486 29.1476 37.2571 29.1554 37.265C29.1557 37.2653 29.156 37.2655 29.1563 37.2658C29.161 37.2706 29.1661 37.275 29.1709 37.2796C29.1752 37.2837 29.1795 37.2879 29.1839 37.2918C29.1954 37.302 29.2074 37.3117 29.2197 37.3211C29.2225 37.3232 29.2252 37.3255 29.2281 37.3275C29.2304 37.3292 29.2324 37.331 29.2346 37.3326C29.2361 37.3337 29.2378 37.3346 29.2393 37.3356C29.2554 37.3468 29.2722 37.3571 29.2896 37.3668C29.2933 37.3688 29.2968 37.371 29.3006 37.3729C29.3039 37.3747 29.3075 37.3761 29.311 37.3779C29.3165 37.3807 29.3218 37.3839 29.3275 37.3865C29.3339 37.3895 29.3405 37.3915 29.3469 37.3943C29.356 37.3981 29.3651 37.4018 29.3743 37.4052C29.3788 37.4068 29.3831 37.4089 29.3875 37.4104C29.3883 37.4107 29.3892 37.4109 29.39 37.4111C29.3982 37.4139 29.4064 37.4156 29.4146 37.418C29.4228 37.4203 29.4308 37.4228 29.439 37.4247C29.4492 37.4272 29.4593 37.429 29.4696 37.4309C29.4759 37.4321 29.4822 37.4331 29.4886 37.434C29.4944 37.4349 29.5001 37.4361 29.506 37.4368C29.5286 37.4395 29.5514 37.4411 29.5739 37.4411C29.574 37.4411 29.5742 37.4411 29.5743 37.4411C29.5743 37.4411 29.5745 37.4411 29.5746 37.4411C29.5972 37.4411 29.6199 37.4395 29.6425 37.4368C29.6484 37.4361 29.6542 37.4349 29.66 37.434C29.6663 37.4331 29.6725 37.4321 29.6787 37.431C29.689 37.4291 29.6993 37.4272 29.7095 37.4248C29.7177 37.4229 29.7257 37.4204 29.7339 37.4181C29.7424 37.4157 29.751 37.4139 29.7594 37.4111C29.7597 37.411 29.7601 37.4109 29.7604 37.4107C29.765 37.4092 29.7696 37.407 29.7742 37.4053C29.7835 37.4019 29.7925 37.3982 29.8016 37.3943C29.808 37.3916 29.8146 37.3896 29.821 37.3866C29.8268 37.3839 29.8322 37.3807 29.838 37.3778C29.8411 37.3762 29.8445 37.3749 29.8476 37.3732C29.8514 37.3712 29.8551 37.3689 29.8589 37.3669C29.8763 37.3572 29.8932 37.347 29.9093 37.3357C29.9107 37.3347 29.9124 37.3338 29.9139 37.3328C29.9163 37.3311 29.9184 37.3292 29.9208 37.3274C29.9232 37.3256 29.9255 37.3236 29.9279 37.3218C29.9406 37.3123 29.9529 37.3023 29.9646 37.2919C29.969 37.2879 29.9733 37.2838 29.9777 37.2797C29.9909 37.2672 30.0035 37.2541 30.0154 37.2405C30.0183 37.2372 30.0214 37.2339 30.0243 37.2305C30.0325 37.2206 30.0403 37.2102 30.0479 37.1998C30.05 37.1968 30.0523 37.194 30.0544 37.191C30.0578 37.1862 30.0611 37.1814 30.0643 37.1765C30.0651 37.1752 30.0662 37.174 30.0671 37.1727L34.772 29.8854C34.9491 29.6347 34.9664 29.3047 34.8142 29.0361L33.941 27.4943L36.2636 28.1782C37.7724 28.6225 38.8261 30.0312 38.8261 31.6041V37.8022H36.5664Z" fill="white"/>
</svg>
