<svg width="61" height="61" viewBox="0 0 61 61" fill="none" xmlns="http://www.w3.org/2000/svg">
<g filter="url(#filter0_d)">
<rect x="8" y="4" width="45" height="45" rx="22.5" fill="#BE6D42"/>
</g>
<path fill-rule="evenodd" clip-rule="evenodd" d="M37.6324 20.3401C35.8783 18.5839 33.5454 17.6163 31.0601 17.6152C25.9388 17.6152 21.7709 21.7831 21.7689 26.9057C21.7682 28.5432 22.1959 30.1417 23.009 31.5507L21.6909 36.3652L26.6163 35.0732C27.9735 35.8135 29.5014 36.2036 31.0563 36.2041H31.0602C36.1809 36.2041 40.3492 32.0359 40.3512 26.9131C40.3522 24.4304 39.3867 22.0962 37.6324 20.3401ZM31.0601 34.635H31.0569C29.6712 34.6344 28.3122 34.262 27.1264 33.5586L26.8445 33.3911L23.9217 34.1579L24.7019 31.3082L24.5182 31.016C23.7451 29.7865 23.3369 28.3654 23.3376 26.9062C23.3392 22.6485 26.8036 19.1844 31.0632 19.1844C33.1259 19.1851 35.0648 19.9894 36.5228 21.4491C37.9808 22.9088 38.7832 24.849 38.7826 26.9125C38.7807 31.1706 35.3166 34.635 31.0601 34.635ZM35.296 28.8513C35.0639 28.735 33.9225 28.1736 33.7096 28.096C33.497 28.0185 33.342 27.9799 33.1874 28.2122C33.0326 28.4445 32.5878 28.9675 32.4523 29.1224C32.3168 29.2773 32.1815 29.2968 31.9493 29.1805C31.7171 29.0644 30.9691 28.8191 30.0823 28.0282C29.3922 27.4126 28.9263 26.6524 28.7908 26.4201C28.6556 26.1875 28.7897 26.074 28.8927 25.9463C29.144 25.6342 29.3957 25.307 29.473 25.1522C29.5505 24.9972 29.5117 24.8616 29.4536 24.7455C29.3957 24.6293 28.9314 23.4866 28.738 23.0217C28.5494 22.5692 28.3581 22.6303 28.2155 22.6232C28.0803 22.6164 27.9254 22.615 27.7706 22.615C27.6159 22.615 27.3643 22.6731 27.1515 22.9056C26.9387 23.138 26.339 23.6996 26.339 24.8423C26.339 25.985 27.1709 27.0889 27.287 27.2438C27.403 27.3988 28.924 29.7437 31.2528 30.7492C31.8067 30.9886 32.239 31.1313 32.5763 31.2383C33.1325 31.415 33.6384 31.39 34.0385 31.3303C34.4846 31.2636 35.4119 30.7686 35.6056 30.2264C35.799 29.6841 35.799 29.2193 35.7408 29.1224C35.6829 29.0256 35.5281 28.9675 35.296 28.8513Z" fill="white"/>
<defs>
<filter id="filter0_d" x="0" y="0" width="61" height="61" filterUnits="userSpaceOnUse" color-interpolation-filters="sRGB">
<feFlood flood-opacity="0" result="BackgroundImageFix"/>
<feColorMatrix in="SourceAlpha" type="matrix" values="0 0 0 0 0 0 0 0 0 0 0 0 0 0 0 0 0 0 127 0"/>
<feOffset dy="4"/>
<feGaussianBlur stdDeviation="4"/>
<feColorMatrix type="matrix" values="0 0 0 0 0 0 0 0 0 0 0 0 0 0 0 0 0 0 0.15 0"/>
<feBlend mode="normal" in2="BackgroundImageFix" result="effect1_dropShadow"/>
<feBlend mode="normal" in="SourceGraphic" in2="effect1_dropShadow" result="shape"/>
</filter>
</defs>
</svg>
